<svg width="237" height="12" viewBox="0 0 237 12" fill="none" xmlns="http://www.w3.org/2000/svg">
<path d="M5.42389 8.086V9.00659H0.903005V8.086H5.42389ZM1.13169 0.469093V9.00659H0V0.469093H1.13169ZM4.8258 4.13975V5.06034H0.903005V4.13975H4.8258ZM5.36525 0.469093V1.39555H0.903005V0.469093H5.36525ZM8.94092 3.92279V9.00659H7.85028V2.6621H8.88228L8.94092 3.92279ZM8.7181 5.59394L8.21382 5.57635C8.21773 5.14244 8.27442 4.74175 8.38387 4.3743C8.49333 4.00293 8.65555 3.68043 8.87055 3.40679C9.08556 3.13315 9.35333 2.92206 9.67388 2.77351C9.99442 2.62106 10.3658 2.54483 10.788 2.54483C11.0851 2.54483 11.3587 2.58783 11.6089 2.67383C11.8591 2.75592 12.076 2.88688 12.2598 3.0667C12.4435 3.24652 12.5862 3.47715 12.6878 3.75861C12.7894 4.04007 12.8403 4.38016 12.8403 4.77889V9.00659H11.7555V4.83166C11.7555 4.49939 11.6988 4.23357 11.5854 4.0342C11.476 3.83484 11.3196 3.6902 11.1163 3.60029C10.9131 3.50647 10.6746 3.45956 10.401 3.45956C10.0804 3.45956 9.81265 3.51625 9.59765 3.62961C9.38265 3.74297 9.21065 3.89934 9.08165 4.0987C8.95265 4.29807 8.85883 4.52675 8.80019 4.78475C8.74546 5.03884 8.7181 5.30857 8.7181 5.59394ZM12.8285 4.99584L12.1014 5.21866C12.1053 4.87075 12.162 4.53652 12.2715 4.21598C12.3848 3.89543 12.5471 3.61006 12.7582 3.35988C12.9732 3.1097 13.237 2.91229 13.5498 2.76765C13.8625 2.6191 14.2202 2.54483 14.6228 2.54483C14.9629 2.54483 15.2639 2.58979 15.5258 2.6797C15.7916 2.76961 16.0145 2.90838 16.1943 3.09602C16.378 3.27974 16.5168 3.51625 16.6106 3.80552C16.7044 4.09479 16.7513 4.4388 16.7513 4.83752V9.00659H15.6607V4.8258C15.6607 4.47007 15.604 4.19448 15.4906 3.99902C15.3812 3.79966 15.2248 3.66088 15.0215 3.5827C14.8222 3.50061 14.5837 3.45956 14.3062 3.45956C14.0677 3.45956 13.8566 3.50061 13.6729 3.5827C13.4892 3.66479 13.3348 3.77816 13.2097 3.92279C13.0846 4.06352 12.9888 4.22575 12.9223 4.40948C12.8598 4.59321 12.8285 4.78866 12.8285 4.99584ZM23.335 7.92181V4.65575C23.335 4.40557 23.2842 4.18861 23.1826 4.00488C23.0849 3.81725 22.9363 3.67261 22.737 3.57097C22.5376 3.46934 22.2913 3.41852 21.9981 3.41852C21.7245 3.41852 21.4841 3.46543 21.2769 3.55925C21.0736 3.65306 20.9134 3.7762 20.7961 3.92866C20.6827 4.08111 20.626 4.24529 20.626 4.4212H19.5413C19.5413 4.19448 19.5999 3.9697 19.7172 3.74688C19.8344 3.52406 20.0025 3.32274 20.2214 3.14293C20.4443 2.9592 20.7101 2.81456 21.0189 2.70901C21.3316 2.59956 21.6795 2.54483 22.0626 2.54483C22.5239 2.54483 22.9305 2.62301 23.2823 2.77938C23.638 2.93574 23.9156 3.17224 24.1149 3.48888C24.3182 3.80161 24.4198 4.19448 24.4198 4.66748V7.62277C24.4198 7.83386 24.4374 8.05863 24.4726 8.29709C24.5117 8.53554 24.5684 8.74077 24.6426 8.91277V9.00659H23.511C23.4562 8.8815 23.4132 8.71536 23.382 8.50818C23.3507 8.29709 23.335 8.10163 23.335 7.92181ZM23.5227 5.16003L23.5344 5.9223H22.4379C22.1291 5.9223 21.8535 5.94771 21.6111 5.99853C21.3688 6.04544 21.1655 6.11776 21.0013 6.21549C20.8371 6.31321 20.712 6.43635 20.626 6.5849C20.54 6.72953 20.497 6.89958 20.497 7.09504C20.497 7.2944 20.542 7.47617 20.6319 7.64036C20.7218 7.80454 20.8567 7.9355 21.0365 8.03322C21.2202 8.12704 21.445 8.17395 21.7108 8.17395C22.0431 8.17395 22.3363 8.10359 22.5904 7.96286C22.8445 7.82213 23.0458 7.65013 23.1943 7.44686C23.3468 7.24358 23.4289 7.04617 23.4406 6.85463L23.9038 7.37649C23.8765 7.54068 23.8022 7.72245 23.681 7.92181C23.5598 8.12118 23.3976 8.31272 23.1943 8.49645C22.995 8.67627 22.7565 8.82677 22.479 8.94796C22.2053 9.06523 21.8965 9.12387 21.5525 9.12387C21.1225 9.12387 20.7453 9.03982 20.4208 8.87173C20.1003 8.70364 19.8501 8.47886 19.6703 8.19741C19.4943 7.91204 19.4064 7.59345 19.4064 7.24163C19.4064 6.90154 19.4728 6.60249 19.6058 6.34449C19.7387 6.08258 19.9302 5.86562 20.1804 5.69362C20.4306 5.51771 20.7316 5.3848 21.0834 5.29489C21.4352 5.20498 21.8281 5.16003 22.262 5.16003H23.5227ZM28.5056 2.6621V9.00659H27.415V2.6621H28.5056ZM27.3329 0.979232C27.3329 0.803322 27.3857 0.654776 27.4912 0.533594C27.6007 0.412411 27.7609 0.35182 27.972 0.35182C28.1792 0.35182 28.3375 0.412411 28.447 0.533594C28.5604 0.654776 28.617 0.803322 28.617 0.979232C28.617 1.14732 28.5604 1.29196 28.447 1.41314C28.3375 1.53042 28.1792 1.58905 27.972 1.58905C27.7609 1.58905 27.6007 1.53042 27.4912 1.41314C27.3857 1.29196 27.3329 1.14732 27.3329 0.979232ZM32.6266 0V9.00659H31.536V0H32.6266ZM43.4896 7.92181V4.65575C43.4896 4.40557 43.4388 4.18861 43.3372 4.00488C43.2395 3.81725 43.0909 3.67261 42.8915 3.57097C42.6922 3.46934 42.4459 3.41852 42.1527 3.41852C41.8791 3.41852 41.6387 3.46543 41.4315 3.55925C41.2282 3.65306 41.0679 3.7762 40.9507 3.92866C40.8373 4.08111 40.7806 4.24529 40.7806 4.4212H39.6959C39.6959 4.19448 39.7545 3.9697 39.8718 3.74688C39.989 3.52406 40.1571 3.32274 40.376 3.14293C40.5989 2.9592 40.8647 2.81456 41.1735 2.70901C41.4862 2.59956 41.8341 2.54483 42.2172 2.54483C42.6785 2.54483 43.0851 2.62301 43.4369 2.77938C43.7926 2.93574 44.0701 3.17224 44.2695 3.48888C44.4728 3.80161 44.5744 4.19448 44.5744 4.66748V7.62277C44.5744 7.83386 44.592 8.05863 44.6272 8.29709C44.6663 8.53554 44.723 8.74077 44.7972 8.91277V9.00659H43.6656C43.6108 8.8815 43.5678 8.71536 43.5366 8.50818C43.5053 8.29709 43.4896 8.10163 43.4896 7.92181ZM43.6773 5.16003L43.689 5.9223H42.5925C42.2837 5.9223 42.0081 5.94771 41.7657 5.99853C41.5234 6.04544 41.3201 6.11776 41.1559 6.21549C40.9917 6.31321 40.8666 6.43635 40.7806 6.5849C40.6946 6.72953 40.6516 6.89958 40.6516 7.09504C40.6516 7.2944 40.6966 7.47617 40.7865 7.64036C40.8764 7.80454 41.0113 7.9355 41.1911 8.03322C41.3748 8.12704 41.5996 8.17395 41.8654 8.17395C42.1977 8.17395 42.4909 8.10359 42.745 7.96286C42.9991 7.82213 43.2004 7.65013 43.3489 7.44686C43.5014 7.24358 43.5835 7.04617 43.5952 6.85463L44.0584 7.37649C44.0311 7.54068 43.9568 7.72245 43.8356 7.92181C43.7144 8.12118 43.5522 8.31272 43.3489 8.49645C43.1496 8.67627 42.9111 8.82677 42.6335 8.94796C42.3599 9.06523 42.0511 9.12387 41.7071 9.12387C41.2771 9.12387 40.8999 9.03982 40.5754 8.87173C40.2549 8.70364 40.0047 8.47886 39.8249 8.19741C39.6489 7.91204 39.561 7.59345 39.561 7.24163C39.561 6.90154 39.6274 6.60249 39.7604 6.34449C39.8933 6.08258 40.0848 5.86562 40.335 5.69362C40.5852 5.51771 40.8862 5.3848 41.238 5.29489C41.5898 5.20498 41.9827 5.16003 42.4166 5.16003H43.6773ZM51.4806 7.77522V0H52.5713V9.00659H51.5745L51.4806 7.77522ZM47.2119 5.90471V5.78158C47.2119 5.29685 47.2705 4.85707 47.3878 4.46225C47.509 4.06352 47.679 3.72147 47.8979 3.43611C48.1208 3.15074 48.3846 2.93183 48.6895 2.77938C48.9984 2.62301 49.3424 2.54483 49.7215 2.54483C50.1203 2.54483 50.4682 2.6152 50.7653 2.75592C51.0663 2.89274 51.3204 3.09406 51.5276 3.35988C51.7387 3.62179 51.9048 3.93843 52.026 4.30979C52.1472 4.68116 52.2312 5.10139 52.2781 5.57048V6.10994C52.2351 6.57512 52.1511 6.9934 52.026 7.36477C51.9048 7.73613 51.7387 8.05277 51.5276 8.31468C51.3204 8.57659 51.0663 8.77791 50.7653 8.91864C50.4643 9.05546 50.1125 9.12387 49.7098 9.12387C49.3385 9.12387 48.9984 9.04373 48.6895 8.88345C48.3846 8.72318 48.1208 8.49841 47.8979 8.20913C47.679 7.91986 47.509 7.57977 47.3878 7.18886C47.2705 6.79404 47.2119 6.36599 47.2119 5.90471ZM48.3025 5.78158V5.90471C48.3025 6.22135 48.3338 6.51844 48.3964 6.79599C48.4628 7.07354 48.5645 7.31786 48.7013 7.52895C48.8381 7.74004 49.012 7.90618 49.2231 8.02736C49.4342 8.14463 49.6864 8.20327 49.9796 8.20327C50.3392 8.20327 50.6343 8.12704 50.865 7.97459C51.0995 7.82213 51.2871 7.62081 51.4279 7.37063C51.5686 7.12045 51.6781 6.84876 51.7562 6.55558V5.14244C51.7093 4.92743 51.6409 4.72025 51.551 4.52089C51.465 4.31761 51.3516 4.13779 51.2109 3.98143C51.0741 3.82116 50.9041 3.69411 50.7008 3.60029C50.5014 3.50647 50.2649 3.45956 49.9913 3.45956C49.6942 3.45956 49.4381 3.52211 49.2231 3.6472C49.012 3.76838 48.8381 3.93647 48.7013 4.15148C48.5645 4.36257 48.4628 4.60884 48.3964 4.8903C48.3338 5.16784 48.3025 5.46494 48.3025 5.78158ZM59.4599 7.77522V0H60.5506V9.00659H59.5537L59.4599 7.77522ZM55.1912 5.90471V5.78158C55.1912 5.29685 55.2498 4.85707 55.3671 4.46225C55.4883 4.06352 55.6583 3.72147 55.8772 3.43611C56.1 3.15074 56.3639 2.93183 56.6688 2.77938C56.9776 2.62301 57.3216 2.54483 57.7008 2.54483C58.0996 2.54483 58.4475 2.6152 58.7446 2.75592C59.0456 2.89274 59.2997 3.09406 59.5068 3.35988C59.7179 3.62179 59.8841 3.93843 60.0052 4.30979C60.1264 4.68116 60.2105 5.10139 60.2574 5.57048V6.10994C60.2144 6.57512 60.1303 6.9934 60.0052 7.36477C59.8841 7.73613 59.7179 8.05277 59.5068 8.31468C59.2997 8.57659 59.0456 8.77791 58.7446 8.91864C58.4436 9.05546 58.0917 9.12387 57.6891 9.12387C57.3177 9.12387 56.9776 9.04373 56.6688 8.88345C56.3639 8.72318 56.1 8.49841 55.8772 8.20913C55.6583 7.91986 55.4883 7.57977 55.3671 7.18886C55.2498 6.79404 55.1912 6.36599 55.1912 5.90471ZM56.2818 5.78158V5.90471C56.2818 6.22135 56.3131 6.51844 56.3756 6.79599C56.4421 7.07354 56.5437 7.31786 56.6805 7.52895C56.8174 7.74004 56.9913 7.90618 57.2024 8.02736C57.4135 8.14463 57.6656 8.20327 57.9588 8.20327C58.3185 8.20327 58.6136 8.12704 58.8442 7.97459C59.0788 7.82213 59.2664 7.62081 59.4072 7.37063C59.5479 7.12045 59.6573 6.84876 59.7355 6.55558V5.14244C59.6886 4.92743 59.6202 4.72025 59.5303 4.52089C59.4443 4.31761 59.3309 4.13779 59.1902 3.98143C59.0534 3.82116 58.8833 3.69411 58.6801 3.60029C58.4807 3.50647 58.2442 3.45956 57.9706 3.45956C57.6735 3.45956 57.4174 3.52211 57.2024 3.6472C56.9913 3.76838 56.8174 3.93647 56.6805 4.15148C56.5437 4.36257 56.4421 4.60884 56.3756 4.8903C56.3131 5.16784 56.2818 5.46494 56.2818 5.78158ZM64.525 3.65893V9.00659H63.4402V2.6621H64.4956L64.525 3.65893ZM66.5069 2.62692L66.501 3.63547C66.4111 3.61593 66.3251 3.6042 66.243 3.60029C66.1648 3.59247 66.0749 3.58856 65.9733 3.58856C65.7231 3.58856 65.5022 3.62766 65.3107 3.70584C65.1191 3.78402 64.9569 3.89347 64.824 4.0342C64.6911 4.17493 64.5856 4.34302 64.5074 4.53848C64.4331 4.73002 64.3842 4.94112 64.3608 5.17175L64.0559 5.34766C64.0559 4.96457 64.093 4.60493 64.1673 4.26875C64.2455 3.93257 64.3647 3.63547 64.525 3.37747C64.6852 3.11556 64.8885 2.91229 65.1348 2.76765C65.385 2.6191 65.6821 2.54483 66.0261 2.54483C66.1042 2.54483 66.1942 2.5546 66.2958 2.57415C66.3974 2.58979 66.4678 2.60738 66.5069 2.62692ZM71.226 9.12387C70.7842 9.12387 70.3835 9.04959 70.0239 8.90105C69.6682 8.74859 69.3613 8.53554 69.1033 8.26191C68.8492 7.98827 68.6538 7.66381 68.5169 7.28854C68.3801 6.91326 68.3117 6.50281 68.3117 6.05717V5.81089C68.3117 5.29489 68.3879 4.83557 68.5404 4.43293C68.6929 4.02638 68.9 3.68238 69.1619 3.40093C69.4239 3.11947 69.721 2.90642 70.0532 2.76179C70.3855 2.61715 70.7295 2.54483 71.0852 2.54483C71.5387 2.54483 71.9296 2.62301 72.258 2.77938C72.5902 2.93574 72.8619 3.15465 73.073 3.43611C73.2841 3.71366 73.4405 4.04202 73.5421 4.4212C73.6437 4.79648 73.6946 5.20694 73.6946 5.65257V6.13926H68.9567V5.25385H72.6098V5.17175C72.5941 4.8903 72.5355 4.61666 72.4339 4.35084C72.3361 4.08502 72.1798 3.86611 71.9648 3.69411C71.7498 3.52211 71.4566 3.43611 71.0852 3.43611C70.839 3.43611 70.6122 3.48888 70.405 3.59443C70.1979 3.69606 70.02 3.84852 69.8715 4.05179C69.7229 4.25507 69.6076 4.5033 69.5255 4.79648C69.4434 5.08966 69.4024 5.4278 69.4024 5.81089V6.05717C69.4024 6.35817 69.4434 6.64158 69.5255 6.9074C69.6115 7.16931 69.7346 7.39995 69.8949 7.59931C70.0591 7.79868 70.2565 7.95504 70.4871 8.06841C70.7217 8.18177 70.9875 8.23845 71.2846 8.23845C71.6677 8.23845 71.9921 8.16027 72.258 8.0039C72.5238 7.84754 72.7564 7.6384 72.9557 7.37649L73.6125 7.89836C73.4757 8.10554 73.3017 8.30295 73.0906 8.49059C72.8795 8.67823 72.6196 8.83068 72.3107 8.94796C72.0058 9.06523 71.6442 9.12387 71.226 9.12387ZM79.8561 7.32372C79.8561 7.16736 79.8209 7.02272 79.7506 6.88981C79.6841 6.75299 79.5453 6.62985 79.3342 6.5204C79.1271 6.40703 78.8143 6.30931 78.396 6.22721C78.0442 6.15294 77.7256 6.06499 77.4403 5.96335C77.1588 5.86171 76.9184 5.73858 76.719 5.59394C76.5236 5.4493 76.3731 5.27925 76.2675 5.0838C76.162 4.88834 76.1092 4.65966 76.1092 4.39775C76.1092 4.14757 76.1639 3.91107 76.2734 3.68825C76.3868 3.46543 76.5451 3.26802 76.7484 3.09602C76.9555 2.92402 77.2038 2.78915 77.493 2.69142C77.7823 2.5937 78.1048 2.54483 78.4605 2.54483C78.9687 2.54483 79.4026 2.63474 79.7623 2.81456C80.1219 2.99438 80.3975 3.23479 80.5891 3.53579C80.7806 3.83288 80.8764 4.1632 80.8764 4.52675H79.7916C79.7916 4.35084 79.7388 4.18079 79.6333 4.01661C79.5316 3.84852 79.3811 3.70975 79.1818 3.60029C78.9863 3.49084 78.7459 3.43611 78.4605 3.43611C78.1595 3.43611 77.9152 3.48302 77.7276 3.57684C77.5439 3.66675 77.409 3.78206 77.323 3.92279C77.2409 4.06352 77.1999 4.21207 77.1999 4.36843C77.1999 4.4857 77.2194 4.59125 77.2585 4.68507C77.3015 4.77498 77.3758 4.85903 77.4813 4.93721C77.5869 5.01148 77.7354 5.08184 77.927 5.1483C78.1185 5.21475 78.3628 5.28121 78.6599 5.34766C79.1798 5.46494 79.6079 5.60567 79.9441 5.76985C80.2802 5.93403 80.5304 6.13535 80.6946 6.37381C80.8588 6.61226 80.9409 6.90154 80.9409 7.24163C80.9409 7.51918 80.8822 7.77327 80.765 8.0039C80.6516 8.23454 80.4855 8.43391 80.2666 8.602C80.0516 8.76618 79.7936 8.89518 79.4926 8.989C79.1955 9.07891 78.8612 9.12387 78.4899 9.12387C77.9309 9.12387 77.4579 9.02418 77.0709 8.82482C76.6839 8.62545 76.3907 8.36745 76.1913 8.05081C75.9919 7.73418 75.8923 7.39995 75.8923 7.04813H76.9829C76.9985 7.34522 77.0845 7.58172 77.2409 7.75763C77.3973 7.92963 77.5888 8.05277 77.8155 8.12704C78.0423 8.19741 78.267 8.23259 78.4899 8.23259C78.787 8.23259 79.0352 8.1935 79.2346 8.11531C79.4378 8.03713 79.5922 7.92963 79.6978 7.79281C79.8033 7.65599 79.8561 7.49963 79.8561 7.32372ZM87.2607 7.32372C87.2607 7.16736 87.2256 7.02272 87.1552 6.88981C87.0887 6.75299 86.95 6.62985 86.7389 6.5204C86.5317 6.40703 86.219 6.30931 85.8007 6.22721C85.4489 6.15294 85.1303 6.06499 84.8449 5.96335C84.5635 5.86171 84.323 5.73858 84.1237 5.59394C83.9282 5.4493 83.7777 5.27925 83.6722 5.0838C83.5666 4.88834 83.5139 4.65966 83.5139 4.39775C83.5139 4.14757 83.5686 3.91107 83.678 3.68825C83.7914 3.46543 83.9497 3.26802 84.153 3.09602C84.3602 2.92402 84.6084 2.78915 84.8977 2.69142C85.187 2.5937 85.5095 2.54483 85.8652 2.54483C86.3734 2.54483 86.8073 2.63474 87.1669 2.81456C87.5266 2.99438 87.8022 3.23479 87.9937 3.53579C88.1852 3.83288 88.281 4.1632 88.281 4.52675H87.1962C87.1962 4.35084 87.1435 4.18079 87.0379 4.01661C86.9363 3.84852 86.7858 3.70975 86.5864 3.60029C86.391 3.49084 86.1506 3.43611 85.8652 3.43611C85.5642 3.43611 85.3199 3.48302 85.1322 3.57684C84.9485 3.66675 84.8136 3.78206 84.7276 3.92279C84.6455 4.06352 84.6045 4.21207 84.6045 4.36843C84.6045 4.4857 84.624 4.59125 84.6631 4.68507C84.7061 4.77498 84.7804 4.85903 84.886 4.93721C84.9915 5.01148 85.1401 5.08184 85.3316 5.1483C85.5231 5.21475 85.7675 5.28121 86.0646 5.34766C86.5845 5.46494 87.0125 5.60567 87.3487 5.76985C87.6849 5.93403 87.9351 6.13535 88.0992 6.37381C88.2634 6.61226 88.3455 6.90154 88.3455 7.24163C88.3455 7.51918 88.2869 7.77327 88.1696 8.0039C88.0562 8.23454 87.8901 8.43391 87.6712 8.602C87.4562 8.76618 87.1982 8.89518 86.8972 8.989C86.6001 9.07891 86.2659 9.12387 85.8945 9.12387C85.3355 9.12387 84.8625 9.02418 84.4755 8.82482C84.0885 8.62545 83.7953 8.36745 83.596 8.05081C83.3966 7.73418 83.2969 7.39995 83.2969 7.04813H84.3875C84.4032 7.34522 84.4892 7.58172 84.6455 7.75763C84.8019 7.92963 84.9935 8.05277 85.2202 8.12704C85.4469 8.19741 85.6717 8.23259 85.8945 8.23259C86.1916 8.23259 86.4398 8.1935 86.6392 8.11531C86.8425 8.03713 86.9969 7.92963 87.1024 7.79281C87.208 7.65599 87.2607 7.49963 87.2607 7.32372ZM90.9244 8.43195C90.9244 8.24822 90.981 8.09381 91.0944 7.96872C91.2117 7.83972 91.3798 7.77522 91.5987 7.77522C91.8176 7.77522 91.9837 7.83972 92.0971 7.96872C92.2144 8.09381 92.273 8.24822 92.273 8.43195C92.273 8.61177 92.2144 8.76423 92.0971 8.88932C91.9837 9.01441 91.8176 9.07696 91.5987 9.07696C91.3798 9.07696 91.2117 9.01441 91.0944 8.88932C90.981 8.76423 90.9244 8.61177 90.9244 8.43195ZM90.9302 3.25433C90.9302 3.07061 90.9869 2.9162 91.1003 2.79111C91.2175 2.6621 91.3856 2.5976 91.6045 2.5976C91.8235 2.5976 91.9896 2.6621 92.103 2.79111C92.2202 2.9162 92.2789 3.07061 92.2789 3.25433C92.2789 3.43415 92.2202 3.58661 92.103 3.7117C91.9896 3.83679 91.8235 3.89934 91.6045 3.89934C91.3856 3.89934 91.2175 3.83679 91.1003 3.7117C90.9869 3.58661 90.9302 3.43415 90.9302 3.25433Z" fill="white"/>
<path d="M101.799 8.23259C102.057 8.23259 102.296 8.17981 102.514 8.07427C102.733 7.96872 102.913 7.82409 103.054 7.64036C103.195 7.45272 103.275 7.23967 103.294 7.00122H104.326C104.307 7.37649 104.18 7.72636 103.945 8.05081C103.715 8.37136 103.412 8.63132 103.036 8.83068C102.661 9.02614 102.249 9.12387 101.799 9.12387C101.322 9.12387 100.906 9.03982 100.55 8.87173C100.198 8.70364 99.9052 8.473 99.6706 8.17981C99.44 7.88663 99.266 7.55045 99.1487 7.17126C99.0354 6.78817 98.9787 6.38358 98.9787 5.95749V5.71121C98.9787 5.28512 99.0354 4.88248 99.1487 4.5033C99.266 4.1202 99.44 3.78206 99.6706 3.48888C99.9052 3.1957 100.198 2.96506 100.55 2.79697C100.906 2.62888 101.322 2.54483 101.799 2.54483C102.296 2.54483 102.729 2.64647 103.101 2.84974C103.472 3.04911 103.763 3.32274 103.975 3.67066C104.19 4.01466 104.307 4.40557 104.326 4.84339H103.294C103.275 4.58148 103.201 4.34498 103.072 4.13388C102.946 3.92279 102.774 3.7547 102.556 3.62961C102.341 3.50061 102.088 3.43611 101.799 3.43611C101.467 3.43611 101.187 3.50256 100.961 3.63547C100.738 3.76447 100.56 3.94038 100.427 4.1632C100.298 4.38211 100.204 4.62643 100.146 4.89616C100.091 5.16198 100.063 5.43366 100.063 5.71121V5.95749C100.063 6.23503 100.091 6.50867 100.146 6.7784C100.2 7.04813 100.292 7.29245 100.421 7.51136C100.554 7.73027 100.732 7.90618 100.955 8.03909C101.181 8.16809 101.463 8.23259 101.799 8.23259ZM106.46 5.90471V5.76985C106.46 5.31248 106.526 4.88834 106.659 4.49743C106.792 4.10261 106.983 3.76056 107.234 3.47129C107.484 3.17811 107.787 2.95138 108.142 2.79111C108.498 2.62692 108.897 2.54483 109.339 2.54483C109.784 2.54483 110.185 2.62692 110.541 2.79111C110.9 2.95138 111.205 3.17811 111.455 3.47129C111.709 3.76056 111.903 4.10261 112.036 4.49743C112.169 4.88834 112.235 5.31248 112.235 5.76985V5.90471C112.235 6.36208 112.169 6.78622 112.036 7.17713C111.903 7.56804 111.709 7.91009 111.455 8.20327C111.205 8.49254 110.902 8.71927 110.547 8.88345C110.195 9.04373 109.796 9.12387 109.35 9.12387C108.905 9.12387 108.504 9.04373 108.148 8.88345C107.793 8.71927 107.488 8.49254 107.234 8.20327C106.983 7.91009 106.792 7.56804 106.659 7.17713C106.526 6.78622 106.46 6.36208 106.46 5.90471ZM107.544 5.76985V5.90471C107.544 6.22135 107.581 6.5204 107.656 6.80185C107.73 7.0794 107.841 7.32567 107.99 7.54068C108.142 7.75568 108.332 7.92572 108.559 8.05081C108.785 8.172 109.049 8.23259 109.35 8.23259C109.647 8.23259 109.907 8.172 110.13 8.05081C110.357 7.92572 110.545 7.75568 110.693 7.54068C110.842 7.32567 110.953 7.0794 111.027 6.80185C111.106 6.5204 111.145 6.22135 111.145 5.90471V5.76985C111.145 5.45712 111.106 5.16198 111.027 4.88443C110.953 4.60298 110.84 4.35475 110.687 4.13975C110.539 3.92084 110.351 3.74884 110.124 3.62375C109.902 3.49865 109.64 3.43611 109.339 3.43611C109.042 3.43611 108.78 3.49865 108.553 3.62375C108.33 3.74884 108.142 3.92084 107.99 4.13975C107.841 4.35475 107.73 4.60298 107.656 4.88443C107.581 5.16198 107.544 5.45712 107.544 5.76985ZM115.881 4.01661V9.00659H114.797V2.6621H115.823L115.881 4.01661ZM115.623 5.59394L115.172 5.57635C115.176 5.14244 115.24 4.74175 115.365 4.3743C115.49 4.00293 115.666 3.68043 115.893 3.40679C116.12 3.13315 116.389 2.92206 116.702 2.77351C117.019 2.62106 117.369 2.54483 117.752 2.54483C118.065 2.54483 118.346 2.58783 118.596 2.67383C118.846 2.75592 119.059 2.88883 119.235 3.07256C119.415 3.25629 119.552 3.49475 119.646 3.78793C119.74 4.0772 119.787 4.43098 119.787 4.84925V9.00659H118.696V4.83752C118.696 4.50525 118.647 4.23943 118.549 4.04007C118.452 3.83679 118.309 3.6902 118.121 3.60029C117.934 3.50647 117.703 3.45956 117.429 3.45956C117.16 3.45956 116.913 3.51625 116.69 3.62961C116.472 3.74297 116.282 3.89934 116.122 4.0987C115.965 4.29807 115.842 4.52675 115.752 4.78475C115.666 5.03884 115.623 5.30857 115.623 5.59394ZM125.291 2.6621V3.49475H121.861V2.6621H125.291ZM123.022 1.11996H124.107V7.43513C124.107 7.65013 124.14 7.81236 124.207 7.92181C124.273 8.03127 124.359 8.10359 124.465 8.13877C124.57 8.17395 124.683 8.19154 124.805 8.19154C124.895 8.19154 124.988 8.18372 125.086 8.16809C125.188 8.14854 125.264 8.13291 125.315 8.12118L125.321 9.00659C125.235 9.03396 125.121 9.05936 124.981 9.08282C124.844 9.11018 124.678 9.12387 124.482 9.12387C124.216 9.12387 123.972 9.07109 123.749 8.96555C123.526 8.86 123.348 8.68409 123.216 8.43782C123.087 8.18763 123.022 7.85145 123.022 7.42927V1.11996ZM131.506 7.92181V4.65575C131.506 4.40557 131.455 4.18861 131.353 4.00488C131.255 3.81725 131.107 3.67261 130.908 3.57097C130.708 3.46934 130.462 3.41852 130.169 3.41852C129.895 3.41852 129.655 3.46543 129.447 3.55925C129.244 3.65306 129.084 3.7762 128.967 3.92866C128.853 4.08111 128.797 4.24529 128.797 4.4212H127.712C127.712 4.19448 127.77 3.9697 127.888 3.74688C128.005 3.52406 128.173 3.32274 128.392 3.14293C128.615 2.9592 128.881 2.81456 129.189 2.70901C129.502 2.59956 129.85 2.54483 130.233 2.54483C130.694 2.54483 131.101 2.62301 131.453 2.77938C131.809 2.93574 132.086 3.17224 132.285 3.48888C132.489 3.80161 132.59 4.19448 132.59 4.66748V7.62277C132.59 7.83386 132.608 8.05863 132.643 8.29709C132.682 8.53554 132.739 8.74077 132.813 8.91277V9.00659H131.682C131.627 8.8815 131.584 8.71536 131.553 8.50818C131.521 8.29709 131.506 8.10163 131.506 7.92181ZM131.693 5.16003L131.705 5.9223H130.608C130.3 5.9223 130.024 5.94771 129.782 5.99853C129.539 6.04544 129.336 6.11776 129.172 6.21549C129.008 6.31321 128.883 6.43635 128.797 6.5849C128.711 6.72953 128.668 6.89958 128.668 7.09504C128.668 7.2944 128.713 7.47617 128.802 7.64036C128.892 7.80454 129.027 7.9355 129.207 8.03322C129.391 8.12704 129.616 8.17395 129.881 8.17395C130.214 8.17395 130.507 8.10359 130.761 7.96286C131.015 7.82213 131.216 7.65013 131.365 7.44686C131.517 7.24358 131.599 7.04617 131.611 6.85463L132.074 7.37649C132.047 7.54068 131.973 7.72245 131.852 7.92181C131.73 8.12118 131.568 8.31272 131.365 8.49645C131.166 8.67627 130.927 8.82677 130.65 8.94796C130.376 9.06523 130.067 9.12387 129.723 9.12387C129.293 9.12387 128.916 9.03982 128.591 8.87173C128.271 8.70364 128.021 8.47886 127.841 8.19741C127.665 7.91204 127.577 7.59345 127.577 7.24163C127.577 6.90154 127.643 6.60249 127.776 6.34449C127.909 6.08258 128.101 5.86562 128.351 5.69362C128.601 5.51771 128.902 5.3848 129.254 5.29489C129.606 5.20498 129.999 5.16003 130.433 5.16003H131.693ZM138.037 8.23259C138.295 8.23259 138.533 8.17981 138.752 8.07427C138.971 7.96872 139.151 7.82409 139.291 7.64036C139.432 7.45272 139.512 7.23967 139.532 7.00122H140.564C140.544 7.37649 140.417 7.72636 140.183 8.05081C139.952 8.37136 139.649 8.63132 139.274 8.83068C138.899 9.02614 138.486 9.12387 138.037 9.12387C137.56 9.12387 137.143 9.03982 136.788 8.87173C136.436 8.70364 136.143 8.473 135.908 8.17981C135.677 7.88663 135.503 7.55045 135.386 7.17126C135.273 6.78817 135.216 6.38358 135.216 5.95749V5.71121C135.216 5.28512 135.273 4.88248 135.386 4.5033C135.503 4.1202 135.677 3.78206 135.908 3.48888C136.143 3.1957 136.436 2.96506 136.788 2.79697C137.143 2.62888 137.56 2.54483 138.037 2.54483C138.533 2.54483 138.967 2.64647 139.338 2.84974C139.71 3.04911 140.001 3.32274 140.212 3.67066C140.427 4.01466 140.544 4.40557 140.564 4.84339H139.532C139.512 4.58148 139.438 4.34498 139.309 4.13388C139.184 3.92279 139.012 3.7547 138.793 3.62961C138.578 3.50061 138.326 3.43611 138.037 3.43611C137.704 3.43611 137.425 3.50256 137.198 3.63547C136.975 3.76447 136.797 3.94038 136.664 4.1632C136.535 4.38211 136.442 4.62643 136.383 4.89616C136.328 5.16198 136.301 5.43366 136.301 5.71121V5.95749C136.301 6.23503 136.328 6.50867 136.383 6.7784C136.438 7.04813 136.53 7.29245 136.659 7.51136C136.792 7.73027 136.969 7.90618 137.192 8.03909C137.419 8.16809 137.7 8.23259 138.037 8.23259ZM145.641 2.6621V3.49475H142.21V2.6621H145.641ZM143.371 1.11996H144.456V7.43513C144.456 7.65013 144.489 7.81236 144.556 7.92181C144.622 8.03127 144.708 8.10359 144.814 8.13877C144.919 8.17395 145.033 8.19154 145.154 8.19154C145.244 8.19154 145.338 8.18372 145.435 8.16809C145.537 8.14854 145.613 8.13291 145.664 8.12118L145.67 9.00659C145.584 9.03396 145.471 9.05936 145.33 9.08282C145.193 9.11018 145.027 9.12387 144.831 9.12387C144.566 9.12387 144.321 9.07109 144.098 8.96555C143.876 8.86 143.698 8.68409 143.565 8.43782C143.436 8.18763 143.371 7.85145 143.371 7.42927V1.11996ZM157.466 6.05717C157.451 6.41681 157.396 6.7784 157.302 7.14195C157.208 7.50158 157.068 7.8319 156.88 8.13291C156.692 8.43391 156.448 8.67627 156.147 8.86C155.85 9.03982 155.49 9.12973 155.068 9.12973C154.798 9.12973 154.562 9.08282 154.359 8.989C154.159 8.89127 153.995 8.7525 153.866 8.57268C153.741 8.39286 153.653 8.17591 153.602 7.92181C153.555 7.66772 153.548 7.38431 153.579 7.07158L153.878 3.82311H154.74L154.441 7.07158C154.417 7.35695 154.423 7.58954 154.458 7.76936C154.497 7.94918 154.556 8.08795 154.634 8.18568C154.712 8.2795 154.8 8.344 154.898 8.37918C155 8.41436 155.097 8.43195 155.191 8.43195C155.426 8.43195 155.635 8.37136 155.819 8.25018C156.002 8.12509 156.157 7.95504 156.282 7.74004C156.411 7.52113 156.511 7.26899 156.581 6.98363C156.651 6.69435 156.694 6.38553 156.71 6.05717C156.737 5.47471 156.71 4.93916 156.628 4.45052C156.55 3.96188 156.415 3.52797 156.223 3.14879C156.036 2.76961 155.789 2.44906 155.484 2.18715C155.18 1.92524 154.816 1.72587 154.394 1.58905C153.972 1.45223 153.489 1.38383 152.946 1.38383C152.453 1.38383 151.998 1.46005 151.579 1.61251C151.165 1.76105 150.792 1.97606 150.459 2.25751C150.131 2.53897 149.848 2.87711 149.609 3.27193C149.375 3.66675 149.189 4.11238 149.052 4.60884C148.919 5.10139 148.841 5.63303 148.818 6.20376C148.79 6.79013 148.821 7.32958 148.911 7.82213C149.001 8.31077 149.146 8.74664 149.345 9.12973C149.549 9.51673 149.805 9.84314 150.113 10.109C150.422 10.3787 150.78 10.582 151.186 10.7188C151.593 10.8595 152.046 10.9299 152.547 10.9299C152.891 10.9299 153.239 10.8888 153.591 10.8067C153.946 10.7246 154.243 10.6132 154.482 10.4725L154.705 11.141C154.431 11.3169 154.089 11.4478 153.678 11.5338C153.272 11.6198 152.887 11.6628 152.523 11.6628C151.929 11.6628 151.386 11.5807 150.893 11.4166C150.405 11.2563 149.971 11.0198 149.592 10.7071C149.216 10.3982 148.904 10.021 148.653 9.57537C148.403 9.13364 148.219 8.62936 148.102 8.06254C147.985 7.49572 147.94 6.87613 147.967 6.20376C147.995 5.56267 148.09 4.95871 148.255 4.39189C148.423 3.82507 148.651 3.31102 148.941 2.84974C149.23 2.38847 149.574 1.99169 149.973 1.65942C150.375 1.32323 150.827 1.06523 151.327 0.885414C151.831 0.705595 152.379 0.615685 152.969 0.615685C153.571 0.615685 154.116 0.697776 154.605 0.861959C155.094 1.02614 155.522 1.26264 155.889 1.57146C156.26 1.88028 156.567 2.25751 156.81 2.70315C157.052 3.14879 157.228 3.65306 157.337 4.21598C157.451 4.77889 157.494 5.39262 157.466 6.05717ZM151.444 6.55558C151.417 6.82922 151.417 7.07354 151.444 7.28854C151.472 7.50354 151.525 7.68531 151.603 7.83386C151.681 7.9824 151.783 8.09577 151.908 8.17395C152.037 8.24822 152.187 8.28536 152.359 8.28536C152.473 8.28536 152.592 8.258 152.717 8.20327C152.842 8.14463 152.965 8.05472 153.086 7.93354C153.207 7.81236 153.321 7.65404 153.426 7.45858C153.532 7.26313 153.62 7.02858 153.69 6.75494L154.077 7.17713C153.987 7.49768 153.87 7.77913 153.725 8.0215C153.585 8.26386 153.426 8.46713 153.25 8.63132C153.075 8.7955 152.887 8.92059 152.688 9.00659C152.492 9.08868 152.293 9.12973 152.089 9.12973C151.804 9.12973 151.554 9.06914 151.339 8.94796C151.124 8.82286 150.95 8.64695 150.817 8.42023C150.684 8.1935 150.59 7.92377 150.536 7.61104C150.485 7.2944 150.477 6.94258 150.512 6.55558C150.547 6.14512 150.62 5.76594 150.729 5.41803C150.839 5.07012 150.973 4.75934 151.134 4.4857C151.298 4.21207 151.482 3.97948 151.685 3.78793C151.892 3.59638 152.111 3.45175 152.342 3.35402C152.572 3.25238 152.809 3.20156 153.051 3.20156C153.473 3.20156 153.806 3.26411 154.048 3.3892C154.29 3.51038 154.521 3.65502 154.74 3.82311L154.241 4.40361C154.128 4.29416 153.979 4.19252 153.796 4.0987C153.612 4.00488 153.395 3.95797 153.145 3.95797C152.93 3.95797 152.729 4.0127 152.541 4.12216C152.353 4.23161 152.183 4.3958 152.031 4.61471C151.882 4.83362 151.757 5.1053 151.656 5.42976C151.554 5.7503 151.484 6.12558 151.444 6.55558ZM162.76 2.6621V3.49475H159.33V2.6621H162.76ZM160.491 1.11996H161.576V7.43513C161.576 7.65013 161.609 7.81236 161.675 7.92181C161.742 8.03127 161.828 8.10359 161.933 8.13877C162.039 8.17395 162.152 8.19154 162.273 8.19154C162.363 8.19154 162.457 8.18372 162.555 8.16809C162.657 8.14854 162.733 8.13291 162.784 8.12118L162.789 9.00659C162.703 9.03396 162.59 9.05936 162.449 9.08282C162.313 9.11018 162.146 9.12387 161.951 9.12387C161.685 9.12387 161.441 9.07109 161.218 8.96555C160.995 8.86 160.817 8.68409 160.684 8.43782C160.555 8.18763 160.491 7.85145 160.491 7.42927V1.11996ZM166.318 0V9.00659H165.233V0H166.318ZM166.06 5.59394L165.609 5.57635C165.613 5.14244 165.677 4.74175 165.802 4.3743C165.927 4.00293 166.103 3.68043 166.33 3.40679C166.557 3.13315 166.826 2.92206 167.139 2.77351C167.456 2.62106 167.806 2.54483 168.189 2.54483C168.501 2.54483 168.783 2.58783 169.033 2.67383C169.283 2.75592 169.496 2.88883 169.672 3.07256C169.852 3.25629 169.989 3.49475 170.083 3.78793C170.177 4.0772 170.223 4.43098 170.223 4.84925V9.00659H169.133V4.83752C169.133 4.50525 169.084 4.23943 168.986 4.04007C168.888 3.83679 168.746 3.6902 168.558 3.60029C168.371 3.50647 168.14 3.45956 167.866 3.45956C167.596 3.45956 167.35 3.51625 167.127 3.62961C166.908 3.74297 166.719 3.89934 166.559 4.0987C166.402 4.29807 166.279 4.52675 166.189 4.78475C166.103 5.03884 166.06 5.30857 166.06 5.59394ZM174.227 2.6621V9.00659H173.136V2.6621H174.227ZM173.054 0.979232C173.054 0.803322 173.107 0.654776 173.213 0.533594C173.322 0.412411 173.482 0.35182 173.694 0.35182C173.901 0.35182 174.059 0.412411 174.168 0.533594C174.282 0.654776 174.339 0.803322 174.339 0.979232C174.339 1.14732 174.282 1.29196 174.168 1.41314C174.059 1.53042 173.901 1.58905 173.694 1.58905C173.482 1.58905 173.322 1.53042 173.213 1.41314C173.107 1.29196 173.054 1.14732 173.054 0.979232ZM178.254 4.01661V9.00659H177.17V2.6621H178.196L178.254 4.01661ZM177.996 5.59394L177.545 5.57635C177.549 5.14244 177.613 4.74175 177.738 4.3743C177.863 4.00293 178.039 3.68043 178.266 3.40679C178.493 3.13315 178.762 2.92206 179.075 2.77351C179.392 2.62106 179.742 2.54483 180.125 2.54483C180.438 2.54483 180.719 2.58783 180.969 2.67383C181.219 2.75592 181.432 2.88883 181.608 3.07256C181.788 3.25629 181.925 3.49475 182.019 3.78793C182.113 4.0772 182.159 4.43098 182.159 4.84925V9.00659H181.069V4.83752C181.069 4.50525 181.02 4.23943 180.922 4.04007C180.825 3.83679 180.682 3.6902 180.494 3.60029C180.307 3.50647 180.076 3.45956 179.802 3.45956C179.533 3.45956 179.286 3.51625 179.063 3.62961C178.845 3.74297 178.655 3.89934 178.495 4.0987C178.338 4.29807 178.215 4.52675 178.125 4.78475C178.039 5.03884 177.996 5.30857 177.996 5.59394ZM186.099 0V9.00659H185.008V0H186.099ZM189.975 2.6621L187.207 5.62326L185.659 7.2299L185.571 6.07476L186.679 4.74957L188.649 2.6621H189.975ZM188.984 9.00659L186.72 5.98094L187.283 5.01343L190.262 9.00659H188.984ZM197.948 6.1334V7.02467H191.779V6.38553L195.603 0.469093H196.488L195.538 2.18128L193.011 6.1334H197.948ZM196.758 0.469093V9.00659H195.673V0.469093H196.758ZM203.699 0.422184V9.00659H202.614V1.77669L200.427 2.57415V1.59492L203.529 0.422184H203.699ZM208.225 8.43195C208.225 8.24822 208.281 8.09381 208.395 7.96872C208.512 7.83972 208.68 7.77522 208.899 7.77522C209.118 7.77522 209.284 7.83972 209.397 7.96872C209.515 8.09381 209.573 8.24822 209.573 8.43195C209.573 8.61177 209.515 8.76423 209.397 8.88932C209.284 9.01441 209.118 9.07696 208.899 9.07696C208.68 9.07696 208.512 9.01441 208.395 8.88932C208.281 8.76423 208.225 8.61177 208.225 8.43195ZM215.113 8.23259C215.371 8.23259 215.61 8.17981 215.829 8.07427C216.048 7.96872 216.227 7.82409 216.368 7.64036C216.509 7.45272 216.589 7.23967 216.609 7.00122H217.641C217.621 7.37649 217.494 7.72636 217.259 8.05081C217.029 8.37136 216.726 8.63132 216.351 8.83068C215.975 9.02614 215.563 9.12387 215.113 9.12387C214.636 9.12387 214.22 9.03982 213.864 8.87173C213.513 8.70364 213.219 8.473 212.985 8.17981C212.754 7.88663 212.58 7.55045 212.463 7.17126C212.35 6.78817 212.293 6.38358 212.293 5.95749V5.71121C212.293 5.28512 212.35 4.88248 212.463 4.5033C212.58 4.1202 212.754 3.78206 212.985 3.48888C213.219 3.1957 213.513 2.96506 213.864 2.79697C214.22 2.62888 214.636 2.54483 215.113 2.54483C215.61 2.54483 216.044 2.64647 216.415 2.84974C216.786 3.04911 217.078 3.32274 217.289 3.67066C217.504 4.01466 217.621 4.40557 217.641 4.84339H216.609C216.589 4.58148 216.515 4.34498 216.386 4.13388C216.261 3.92279 216.089 3.7547 215.87 3.62961C215.655 3.50061 215.403 3.43611 215.113 3.43611C214.781 3.43611 214.502 3.50256 214.275 3.63547C214.052 3.76447 213.874 3.94038 213.741 4.1632C213.612 4.38211 213.518 4.62643 213.46 4.89616C213.405 5.16198 213.378 5.43366 213.378 5.71121V5.95749C213.378 6.23503 213.405 6.50867 213.46 6.7784C213.514 7.04813 213.606 7.29245 213.735 7.51136C213.868 7.73027 214.046 7.90618 214.269 8.03909C214.496 8.16809 214.777 8.23259 215.113 8.23259ZM219.774 5.90471V5.76985C219.774 5.31248 219.84 4.88834 219.973 4.49743C220.106 4.10261 220.298 3.76056 220.548 3.47129C220.798 3.17811 221.101 2.95138 221.457 2.79111C221.812 2.62692 222.211 2.54483 222.653 2.54483C223.098 2.54483 223.499 2.62692 223.855 2.79111C224.214 2.95138 224.519 3.17811 224.77 3.47129C225.024 3.76056 225.217 4.10261 225.35 4.49743C225.483 4.88834 225.549 5.31248 225.549 5.76985V5.90471C225.549 6.36208 225.483 6.78622 225.35 7.17713C225.217 7.56804 225.024 7.91009 224.77 8.20327C224.519 8.49254 224.216 8.71927 223.861 8.88345C223.509 9.04373 223.11 9.12387 222.665 9.12387C222.219 9.12387 221.818 9.04373 221.462 8.88345C221.107 8.71927 220.802 8.49254 220.548 8.20327C220.298 7.91009 220.106 7.56804 219.973 7.17713C219.84 6.78622 219.774 6.36208 219.774 5.90471ZM220.859 5.76985V5.90471C220.859 6.22135 220.896 6.5204 220.97 6.80185C221.044 7.0794 221.156 7.32567 221.304 7.54068C221.457 7.75568 221.646 7.92572 221.873 8.05081C222.1 8.172 222.364 8.23259 222.665 8.23259C222.962 8.23259 223.222 8.172 223.444 8.05081C223.671 7.92572 223.859 7.75568 224.007 7.54068C224.156 7.32567 224.267 7.0794 224.342 6.80185C224.42 6.5204 224.459 6.22135 224.459 5.90471V5.76985C224.459 5.45712 224.42 5.16198 224.342 4.88443C224.267 4.60298 224.154 4.35475 224.001 4.13975C223.853 3.92084 223.665 3.74884 223.439 3.62375C223.216 3.49865 222.954 3.43611 222.653 3.43611C222.356 3.43611 222.094 3.49865 221.867 3.62375C221.644 3.74884 221.457 3.92084 221.304 4.13975C221.156 4.35475 221.044 4.60298 220.97 4.88443C220.896 5.16198 220.859 5.45712 220.859 5.76985ZM229.19 3.92279V9.00659H228.099V2.6621H229.131L229.19 3.92279ZM228.967 5.59394L228.463 5.57635C228.466 5.14244 228.523 4.74175 228.633 4.3743C228.742 4.00293 228.904 3.68043 229.119 3.40679C229.334 3.13315 229.602 2.92206 229.923 2.77351C230.243 2.62106 230.614 2.54483 231.037 2.54483C231.334 2.54483 231.607 2.58783 231.858 2.67383C232.108 2.75592 232.325 2.88688 232.508 3.0667C232.692 3.24652 232.835 3.47715 232.937 3.75861C233.038 4.04007 233.089 4.38016 233.089 4.77889V9.00659H232.004V4.83166C232.004 4.49939 231.948 4.23357 231.834 4.0342C231.725 3.83484 231.568 3.6902 231.365 3.60029C231.162 3.50647 230.923 3.45956 230.65 3.45956C230.329 3.45956 230.061 3.51625 229.846 3.62961C229.631 3.74297 229.459 3.89934 229.33 4.0987C229.201 4.29807 229.108 4.52675 229.049 4.78475C228.994 5.03884 228.967 5.30857 228.967 5.59394ZM233.077 4.99584L232.35 5.21866C232.354 4.87075 232.411 4.53652 232.52 4.21598C232.634 3.89543 232.796 3.61006 233.007 3.35988C233.222 3.1097 233.486 2.91229 233.798 2.76765C234.111 2.6191 234.469 2.54483 234.872 2.54483C235.212 2.54483 235.513 2.58979 235.775 2.6797C236.04 2.76961 236.263 2.90838 236.443 3.09602C236.627 3.27974 236.765 3.51625 236.859 3.80552C236.953 4.09479 237 4.4388 237 4.83752V9.00659H235.909V4.8258C235.909 4.47007 235.853 4.19448 235.739 3.99902C235.63 3.79966 235.474 3.66088 235.27 3.5827C235.071 3.50061 234.832 3.45956 234.555 3.45956C234.316 3.45956 234.105 3.50061 233.922 3.5827C233.738 3.66479 233.583 3.77816 233.458 3.92279C233.333 4.06352 233.238 4.22575 233.171 4.40948C233.109 4.59321 233.077 4.78866 233.077 4.99584Z" fill="#E0E0E0"/>
</svg>
