<svg width="28" height="28" viewBox="0 0 28 28" fill="none" xmlns="http://www.w3.org/2000/svg">
<path d="M27.5179 13.9283C27.5179 20.781 22.4384 26.4463 15.8398 27.3656C15.2228 27.4512 14.5916 27.4959 13.9508 27.4959C13.2112 27.4959 12.4849 27.4369 11.7776 27.3228C5.31778 26.2828 0.383789 20.6812 0.383789 13.9283C0.383789 6.43487 6.45859 0.359863 13.9518 0.359863C21.445 0.359863 27.5198 6.43487 27.5198 13.9283H27.5179Z" fill="white"/>
<path d="M15.8395 11.2553V14.2111H19.4958L18.9169 18.1926H15.8395V27.366C15.2225 27.4515 14.5913 27.4962 13.9505 27.4962C13.2109 27.4962 12.4846 27.4373 11.7773 27.3232V18.1926H8.40527V14.2111H11.7773V10.5946C11.7773 8.35091 13.5959 6.53125 15.8405 6.53125V6.53315C15.8471 6.53315 15.8528 6.53125 15.8595 6.53125H19.4968V9.97471H17.1201C16.4137 9.97471 15.8405 10.548 15.8405 11.2544L15.8395 11.2553Z" fill="#F68C20"/>
</svg>
