<svg width="190" height="47" viewBox="0 0 190 47" fill="none" xmlns="http://www.w3.org/2000/svg">
<path d="M26.0364 7.5H25.9636C17.1471 7.5 10 14.6471 10 23.4636V23.5364C10 32.3529 17.1471 39.5 25.9636 39.5H26.0364C34.8529 39.5 42 32.3529 42 23.5364V23.4636C42 14.6471 34.8529 7.5 26.0364 7.5Z" fill="white"/>
<path d="M17.6312 18.1361C17.2096 17.7449 17 17.2605 17 16.6843C17 16.108 17.2108 15.6024 17.6312 15.21C18.0527 14.8188 18.5953 14.6226 19.2602 14.6226C19.925 14.6226 20.4463 14.8188 20.8667 15.21C21.2883 15.6013 21.4979 16.0935 21.4979 16.6843C21.4979 17.2751 21.2871 17.7449 20.8667 18.1361C20.4452 18.5274 19.9104 18.7236 19.2602 18.7236C18.6099 18.7236 18.0527 18.5274 17.6312 18.1361ZM21.1436 20.3806V32.3765H17.3531V20.3806H21.1436Z" fill="#F68C20"/>
<path d="M33.7618 21.5656C34.5881 22.4624 35.0007 23.6934 35.0007 25.2608V32.1646H31.4008V25.7473C31.4008 24.9569 31.1956 24.3426 30.7864 23.9053C30.3772 23.4681 29.8256 23.2483 29.135 23.2483C28.4444 23.2483 27.8928 23.467 27.4836 23.9053C27.0744 24.3426 26.8692 24.9569 26.8692 25.7473V32.1646H23.248V20.3469H26.8692V21.9142C27.2358 21.3918 27.7303 20.9792 28.3514 20.6754C28.9725 20.3716 29.6709 20.2202 30.4478 20.2202C31.8313 20.2202 32.9367 20.6687 33.7618 21.5644V21.5656Z" fill="#F68C20"/>
<path d="M91.0364 7.5H90.9636C82.1471 7.5 75 14.6471 75 23.4636V23.5364C75 32.3529 82.1471 39.5 90.9636 39.5H91.0364C99.8529 39.5 107 32.3529 107 23.5364V23.4636C107 14.6471 99.8529 7.5 91.0364 7.5Z" fill="white"/>
<path d="M95.9525 14.0103H86.0508C83.3153 14.0103 81.0898 16.2357 81.0898 18.9712V28.0298C81.0898 30.7653 83.3153 32.9907 86.0508 32.9907H95.9525C98.688 32.9907 100.913 30.7653 100.913 28.0298V18.9712C100.913 16.2357 98.688 14.0103 95.9525 14.0103ZM82.8399 18.9712C82.8399 17.2009 84.2805 15.7603 86.0508 15.7603H95.9525C97.7227 15.7603 99.1633 17.2009 99.1633 18.9712V28.0298C99.1633 29.8 97.7227 31.2407 95.9525 31.2407H86.0508C84.2805 31.2407 82.8399 29.8 82.8399 28.0298V18.9712Z" fill="#F68C20"/>
<path d="M91.0012 28.1138C93.545 28.1138 95.6157 26.0442 95.6157 23.4993C95.6157 20.9543 93.5462 18.8848 91.0012 18.8848C88.4563 18.8848 86.3867 20.9543 86.3867 23.4993C86.3867 26.0442 88.4563 28.1138 91.0012 28.1138ZM91.0012 20.6359C92.5809 20.6359 93.8657 21.9207 93.8657 23.5004C93.8657 25.08 92.5809 26.3648 91.0012 26.3648C89.4216 26.3648 88.1368 25.08 88.1368 23.5004C88.1368 21.9207 89.4216 20.6359 91.0012 20.6359Z" fill="#F68C20"/>
<path d="M96.0441 19.6307C96.7291 19.6307 97.2874 19.0735 97.2874 18.3874C97.2874 17.7012 96.7302 17.144 96.0441 17.144C95.358 17.144 94.8008 17.7012 94.8008 18.3874C94.8008 19.0735 95.358 19.6307 96.0441 19.6307Z" fill="#F68C20"/>
<path d="M171.998 23.5006C171.998 31.5816 166.008 38.2623 158.226 39.3464C157.499 39.4473 156.754 39.5 155.999 39.5C155.127 39.5 154.27 39.4305 153.436 39.296C145.818 38.0695 140 31.4638 140 23.5006C140 14.6639 147.164 7.5 156 7.5C164.836 7.5 172 14.6639 172 23.5006H171.998Z" fill="white"/>
<path d="M158.226 20.3482V23.8337H162.537L161.855 28.529H158.226V39.3466C157.498 39.4475 156.754 39.5002 155.998 39.5002C155.126 39.5002 154.27 39.4307 153.435 39.2961V28.529H149.459V23.8337H153.435V19.569C153.435 16.9232 155.58 14.7773 158.227 14.7773V14.7796C158.235 14.7796 158.241 14.7773 158.249 14.7773H162.539V18.838H159.736C158.903 18.838 158.227 19.5141 158.227 20.3471L158.226 20.3482Z" fill="#F68C20"/>
</svg>
