<svg width="435" height="156" viewBox="0 0 435 156" fill="none" xmlns="http://www.w3.org/2000/svg">
<path d="M5.27695 1.40814V30.5381H-5.61035e-06V1.40814H5.27695ZM10.7637 30.5381V8.69062H15.6851V12.403H15.9411C16.3962 11.1513 17.1501 10.1746 18.2026 9.47291C19.2552 8.76173 20.5116 8.40615 21.9719 8.40615C23.4511 8.40615 24.6981 8.76648 25.7127 9.48714C26.7368 10.1983 27.4575 11.1703 27.8747 12.403H28.1023C28.5859 11.1892 29.4013 10.222 30.5487 9.50136C31.7056 8.77122 33.0758 8.40615 34.6593 8.40615C36.6696 8.40615 38.3101 9.04146 39.5807 10.3121C40.8513 11.5827 41.4867 13.4366 41.4867 15.8735V30.5381H36.3235V16.6701C36.3235 15.3141 35.9632 14.3232 35.2425 13.6973C34.5218 13.062 33.64 12.7443 32.5969 12.7443C31.3547 12.7443 30.3828 13.1331 29.6811 13.9107C28.9889 14.6787 28.6428 15.6791 28.6428 16.9119V30.5381H23.5934V16.4567C23.5934 15.3283 23.252 14.4275 22.5693 13.7542C21.896 13.081 21.0142 12.7443 19.9237 12.7443C19.1841 12.7443 18.5108 12.934 17.9039 13.3133C17.2971 13.6831 16.8135 14.2094 16.4531 14.8921C16.0928 15.5654 15.9126 16.3524 15.9126 17.2532V30.5381H10.7637ZM46.7103 38.7308V8.69062H51.7739V12.3034H52.0726C52.3381 11.7724 52.7126 11.2082 53.1962 10.6108C53.6798 10.0039 54.3341 9.48714 55.1591 9.06043C55.984 8.62424 57.0366 8.40615 58.3167 8.40615C60.0046 8.40615 61.5265 8.83759 62.8825 9.70049C64.248 10.5539 65.3289 11.8198 66.1255 13.4982C66.9315 15.1671 67.3345 17.2153 67.3345 19.6428C67.3345 22.0418 66.941 24.0805 66.1539 25.7589C65.3669 27.4373 64.2954 28.7174 62.9394 29.5993C61.5834 30.4812 60.0473 30.9221 58.3309 30.9221C57.0793 30.9221 56.0409 30.7135 55.216 30.2963C54.391 29.879 53.7272 29.3765 53.2247 28.7886C52.7316 28.1912 52.3475 27.627 52.0726 27.0959H51.8592V38.7308H46.7103ZM51.7596 19.6143C51.7596 21.0272 51.9588 22.2647 52.357 23.3267C52.7648 24.3887 53.3479 25.2184 54.1065 25.8158C54.8746 26.4037 55.8039 26.6977 56.8944 26.6977C58.0322 26.6977 58.9852 26.3942 59.7533 25.7874C60.5214 25.171 61.0998 24.3318 61.4886 23.2698C61.8868 22.1983 62.086 20.9798 62.086 19.6143C62.086 18.2584 61.8916 17.0541 61.5028 16.0015C61.114 14.949 60.5356 14.124 59.7675 13.5266C58.9994 12.9292 58.0417 12.6306 56.8944 12.6306C55.7944 12.6306 54.8604 12.9198 54.0923 13.4982C53.3242 14.0766 52.7411 14.8874 52.3428 15.9304C51.954 16.9735 51.7596 18.2015 51.7596 19.6143ZM71.7438 30.5381V8.69062H76.7363V12.3319H76.9638C77.3621 11.0707 78.0448 10.0988 79.012 9.41602C79.9887 8.7238 81.1029 8.3777 82.3546 8.3777C82.6391 8.3777 82.9567 8.39192 83.3076 8.42037C83.6679 8.43933 83.9666 8.47252 84.2037 8.51993V13.2564C83.9856 13.1805 83.6394 13.1142 83.1653 13.0573C82.7007 12.9909 82.2503 12.9577 81.8141 12.9577C80.8753 12.9577 80.0314 13.1616 79.2823 13.5693C78.5427 13.9676 77.9595 14.5223 77.5328 15.2335C77.1061 15.9446 76.8927 16.7649 76.8927 17.6941V30.5381H71.7438ZM96.2546 30.9648C94.1211 30.9648 92.272 30.4954 90.7074 29.5566C89.1428 28.6179 87.929 27.3046 87.0661 25.6167C86.2127 23.9288 85.786 21.9565 85.786 19.6997C85.786 17.4429 86.2127 15.4658 87.0661 13.7684C87.929 12.0711 89.1428 10.753 90.7074 9.81428C92.272 8.87552 94.1211 8.40615 96.2546 8.40615C98.3881 8.40615 100.237 8.87552 101.802 9.81428C103.366 10.753 104.575 12.0711 105.429 13.7684C106.292 15.4658 106.723 17.4429 106.723 19.6997C106.723 21.9565 106.292 23.9288 105.429 25.6167C104.575 27.3046 103.366 28.6179 101.802 29.5566C100.237 30.4954 98.3881 30.9648 96.2546 30.9648ZM96.283 26.8399C97.4399 26.8399 98.4071 26.5223 99.1846 25.8869C99.9622 25.2421 100.541 24.3792 100.92 23.2982C101.309 22.2173 101.503 21.013 101.503 19.6855C101.503 18.3484 101.309 17.1394 100.92 16.0584C100.541 14.968 99.9622 14.1003 99.1846 13.4555C98.4071 12.8107 97.4399 12.4883 96.283 12.4883C95.0977 12.4883 94.1116 12.8107 93.3245 13.4555C92.547 14.1003 91.9638 14.968 91.575 16.0584C91.1957 17.1394 91.0061 18.3484 91.0061 19.6855C91.0061 21.013 91.1957 22.2173 91.575 23.2982C91.9638 24.3792 92.547 25.2421 93.3245 25.8869C94.1116 26.5223 95.0977 26.8399 96.283 26.8399ZM129.865 8.69062L122.085 30.5381H116.395L108.615 8.69062H114.105L119.126 24.9197H119.354L124.389 8.69062H129.865ZM133.428 30.5381V8.69062H138.577V30.5381H133.428ZM136.017 5.58987C135.201 5.58987 134.499 5.31963 133.912 4.77913C133.324 4.22915 133.03 3.57012 133.03 2.80205C133.03 2.02449 133.324 1.36547 133.912 0.824969C134.499 0.274991 135.201 1.90991e-06 136.017 1.90991e-06C136.842 1.90991e-06 137.543 0.274991 138.122 0.824969C138.71 1.36547 139.004 2.02449 139.004 2.80205C139.004 3.57012 138.71 4.22915 138.122 4.77913C137.543 5.31963 136.842 5.58987 136.017 5.58987ZM149.021 17.7368V30.5381H143.872V8.69062H148.793V12.403H149.049C149.552 11.1797 150.353 10.2078 151.453 9.48714C152.562 8.76648 153.932 8.40615 155.563 8.40615C157.071 8.40615 158.384 8.72855 159.503 9.37335C160.632 10.0182 161.504 10.9522 162.12 12.1754C162.746 13.3986 163.054 14.8826 163.045 16.6274V30.5381H157.896V17.4239C157.896 15.9636 157.517 14.821 156.758 13.996C156.009 13.171 154.971 12.7586 153.643 12.7586C152.742 12.7586 151.941 12.9577 151.239 13.356C150.547 13.7447 150.002 14.3089 149.604 15.0486C149.215 15.7882 149.021 16.6843 149.021 17.7368ZM177.781 39.186C175.932 39.186 174.343 38.9347 173.016 38.4321C171.688 37.9391 170.621 37.2753 169.815 36.4408C169.009 35.6064 168.45 34.6819 168.137 33.6672L172.774 32.5436C172.983 32.9703 173.286 33.3923 173.684 33.8095C174.083 34.2362 174.618 34.587 175.292 34.862C175.974 35.1465 176.832 35.2887 177.866 35.2887C179.326 35.2887 180.535 34.9331 181.493 34.222C182.451 33.5203 182.93 32.3634 182.93 30.7514V26.6123H182.674C182.408 27.1434 182.019 27.6886 181.507 28.2481C181.005 28.8075 180.336 29.2769 179.502 29.6562C178.677 30.0355 177.638 30.2251 176.387 30.2251C174.708 30.2251 173.186 29.8316 171.821 29.0446C170.465 28.2481 169.384 27.0628 168.578 25.4887C167.781 23.9051 167.383 21.9233 167.383 19.5432C167.383 17.1442 167.781 15.1197 168.578 13.4697C169.384 11.8103 170.47 10.5539 171.835 9.70049C173.201 8.83759 174.723 8.40615 176.401 8.40615C177.681 8.40615 178.734 8.62424 179.559 9.06043C180.393 9.48714 181.057 10.0039 181.55 10.6108C182.043 11.2082 182.418 11.7724 182.674 12.3034H182.958V8.69062H188.036V30.8936C188.036 32.7617 187.59 34.3073 186.699 35.5305C185.808 36.7538 184.589 37.6688 183.043 38.2757C181.498 38.8826 179.744 39.186 177.781 39.186ZM177.823 26.1856C178.914 26.1856 179.843 25.9201 180.611 25.3891C181.379 24.8581 181.962 24.0948 182.361 23.0991C182.759 22.1035 182.958 20.9087 182.958 19.5148C182.958 18.1398 182.759 16.9356 182.361 15.902C181.972 14.8684 181.393 14.0671 180.625 13.4982C179.867 12.9198 178.933 12.6306 177.823 12.6306C176.676 12.6306 175.718 12.9292 174.95 13.5266C174.182 14.124 173.604 14.9443 173.215 15.9873C172.826 17.0209 172.632 18.1967 172.632 19.5148C172.632 20.8518 172.826 22.0229 173.215 23.028C173.613 24.0236 174.196 24.8012 174.964 25.3607C175.742 25.9106 176.695 26.1856 177.823 26.1856ZM23.9383 59.4859V88.6158H19.2445L5.51875 68.7739H5.27695V88.6158H-5.61035e-06V59.4859H4.72223L18.4338 79.342H18.6898V59.4859H23.9383ZM39.1326 89.0425C36.9422 89.0425 35.0505 88.5874 33.4574 87.6771C31.8739 86.7573 30.6554 85.4582 29.802 83.7798C28.9486 82.0919 28.5218 80.1054 28.5218 77.8201C28.5218 75.5728 28.9486 73.6004 29.802 71.9031C30.6649 70.1963 31.8691 68.8687 33.4148 67.9205C34.9604 66.9628 36.7763 66.4839 38.8624 66.4839C40.2089 66.4839 41.4795 66.702 42.6743 67.1382C43.8786 67.5649 44.9406 68.2287 45.8604 69.1295C46.7897 70.0303 47.5198 71.1777 48.0508 72.5716C48.5819 73.956 48.8474 75.606 48.8474 77.5214V79.1002H30.9399V75.6297H43.9118C43.9023 74.6435 43.6889 73.7664 43.2717 72.9983C42.8545 72.2208 42.2713 71.6091 41.5222 71.1635C40.7826 70.7178 39.9197 70.495 38.9335 70.495C37.881 70.495 36.9564 70.751 36.1599 71.263C35.3634 71.7656 34.7423 72.4294 34.2966 73.2543C33.8604 74.0698 33.6376 74.9659 33.6281 75.9426V78.9722C33.6281 80.2429 33.8604 81.3333 34.3251 82.2436C34.7897 83.1445 35.4393 83.8367 36.2737 84.3203C37.1082 84.7944 38.0848 85.0315 39.2038 85.0315C39.9529 85.0315 40.6309 84.9272 41.2377 84.7186C41.8446 84.5005 42.3709 84.1828 42.8166 83.7656C43.2622 83.3483 43.5989 82.8316 43.8264 82.2152L48.634 82.7557C48.3306 84.0263 47.7521 85.1358 46.8987 86.084C46.0548 87.0228 44.9738 87.7529 43.6558 88.2745C42.3377 88.7865 40.83 89.0425 39.1326 89.0425ZM57.5949 88.6158L51.4218 66.7684H56.6703L60.5107 82.1299H60.7098L64.6355 66.7684H69.8272L73.7529 82.0445H73.9662L77.7497 66.7684H83.0124L76.8252 88.6158H71.4629L67.3665 73.8517H67.0678L62.9714 88.6158H57.5949ZM223.46 117.564V146.694H218.183V117.564H223.46ZM234.095 133.892V146.694H228.946V124.846H233.868V128.559H234.124C234.626 127.335 235.428 126.363 236.528 125.643C237.637 124.922 239.007 124.562 240.638 124.562C242.146 124.562 243.459 124.884 244.578 125.529C245.707 126.174 246.579 127.108 247.195 128.331C247.821 129.554 248.129 131.038 248.12 132.783V146.694H242.971V133.579C242.971 132.119 242.592 130.977 241.833 130.152C241.084 129.327 240.046 128.914 238.718 128.914C237.817 128.914 237.016 129.113 236.314 129.511C235.622 129.9 235.077 130.464 234.679 131.204C234.29 131.944 234.095 132.84 234.095 133.892ZM258.503 133.892V146.694H253.354V124.846H258.276V128.559H258.532C259.034 127.335 259.835 126.363 260.935 125.643C262.045 124.922 263.415 124.562 265.046 124.562C266.554 124.562 267.867 124.884 268.986 125.529C270.114 126.174 270.987 127.108 271.603 128.331C272.229 129.554 272.537 131.038 272.528 132.783V146.694H267.379V133.579C267.379 132.119 266.999 130.977 266.241 130.152C265.492 129.327 264.453 128.914 263.126 128.914C262.225 128.914 261.424 129.113 260.722 129.511C260.03 129.9 259.485 130.464 259.086 131.204C258.697 131.944 258.503 132.84 258.503 133.892ZM287.292 147.12C285.158 147.12 283.309 146.651 281.744 145.712C280.18 144.773 278.966 143.46 278.103 141.772C277.25 140.084 276.823 138.112 276.823 135.855C276.823 133.598 277.25 131.621 278.103 129.924C278.966 128.227 280.18 126.909 281.744 125.97C283.309 125.031 285.158 124.562 287.292 124.562C289.425 124.562 291.274 125.031 292.839 125.97C294.403 126.909 295.612 128.227 296.466 129.924C297.329 131.621 297.76 133.598 297.76 135.855C297.76 138.112 297.329 140.084 296.466 141.772C295.612 143.46 294.403 144.773 292.839 145.712C291.274 146.651 289.425 147.12 287.292 147.12ZM287.32 142.995C288.477 142.995 289.444 142.678 290.222 142.042C290.999 141.398 291.578 140.535 291.957 139.454C292.346 138.373 292.54 137.169 292.54 135.841C292.54 134.504 292.346 133.295 291.957 132.214C291.578 131.123 290.999 130.256 290.222 129.611C289.444 128.966 288.477 128.644 287.32 128.644C286.135 128.644 285.149 128.966 284.362 129.611C283.584 130.256 283.001 131.123 282.612 132.214C282.233 133.295 282.043 134.504 282.043 135.841C282.043 137.169 282.233 138.373 282.612 139.454C283.001 140.535 283.584 141.398 284.362 142.042C285.149 142.678 286.135 142.995 287.32 142.995ZM320.902 124.846L313.122 146.694H307.432L299.652 124.846H305.142L310.163 141.075H310.391L315.426 124.846H320.902ZM330.126 147.135C328.742 147.135 327.495 146.888 326.385 146.395C325.285 145.892 324.413 145.153 323.768 144.176C323.133 143.199 322.815 141.995 322.815 140.563C322.815 139.331 323.043 138.311 323.498 137.505C323.953 136.699 324.574 136.054 325.361 135.571C326.148 135.087 327.035 134.722 328.021 134.476C329.017 134.219 330.045 134.035 331.107 133.921C332.388 133.788 333.426 133.67 334.222 133.565C335.019 133.451 335.597 133.281 335.958 133.053C336.327 132.816 336.512 132.451 336.512 131.958V131.873C336.512 130.801 336.195 129.971 335.559 129.383C334.924 128.796 334.009 128.502 332.814 128.502C331.553 128.502 330.553 128.777 329.813 129.327C329.083 129.877 328.59 130.526 328.334 131.275L323.526 130.592C323.906 129.265 324.531 128.156 325.404 127.264C326.276 126.363 327.343 125.69 328.604 125.244C329.865 124.789 331.259 124.562 332.786 124.562C333.838 124.562 334.886 124.685 335.929 124.931C336.972 125.178 337.925 125.586 338.788 126.155C339.651 126.714 340.343 127.478 340.865 128.445C341.396 129.412 341.661 130.621 341.661 132.072V146.694H336.712V143.692H336.541C336.228 144.299 335.787 144.868 335.218 145.399C334.659 145.921 333.952 146.343 333.099 146.665C332.255 146.978 331.264 147.135 330.126 147.135ZM331.463 143.351C332.497 143.351 333.393 143.147 334.151 142.739C334.91 142.322 335.493 141.772 335.901 141.089C336.318 140.407 336.527 139.662 336.527 138.856V136.282C336.365 136.415 336.09 136.538 335.702 136.652C335.322 136.766 334.896 136.865 334.422 136.95C333.947 137.036 333.478 137.112 333.013 137.178C332.549 137.244 332.146 137.301 331.804 137.349C331.036 137.453 330.349 137.624 329.742 137.861C329.135 138.098 328.656 138.43 328.305 138.856C327.955 139.274 327.779 139.814 327.779 140.478C327.779 141.426 328.125 142.142 328.817 142.626C329.51 143.109 330.391 143.351 331.463 143.351ZM357.748 124.846V128.829H345.189V124.846H357.748ZM348.29 119.612H353.438V140.122C353.438 140.814 353.543 141.346 353.751 141.715C353.969 142.076 354.254 142.322 354.605 142.455C354.956 142.588 355.344 142.654 355.771 142.654C356.094 142.654 356.387 142.63 356.653 142.583C356.928 142.536 357.137 142.493 357.279 142.455L358.146 146.48C357.871 146.575 357.478 146.679 356.966 146.793C356.463 146.907 355.847 146.973 355.117 146.992C353.827 147.03 352.666 146.836 351.632 146.409C350.598 145.973 349.778 145.3 349.171 144.389C348.574 143.479 348.28 142.341 348.29 140.976V119.612ZM362.054 146.694V124.846H367.203V146.694H362.054ZM364.643 121.745C363.828 121.745 363.126 121.475 362.538 120.935C361.95 120.385 361.656 119.726 361.656 118.958C361.656 118.18 361.95 117.521 362.538 116.98C363.126 116.431 363.828 116.156 364.643 116.156C365.468 116.156 366.17 116.431 366.748 116.98C367.336 117.521 367.63 118.18 367.63 118.958C367.63 119.726 367.336 120.385 366.748 120.935C366.17 121.475 365.468 121.745 364.643 121.745ZM382.028 147.12C379.894 147.12 378.045 146.651 376.481 145.712C374.916 144.773 373.702 143.46 372.839 141.772C371.986 140.084 371.559 138.112 371.559 135.855C371.559 133.598 371.986 131.621 372.839 129.924C373.702 128.227 374.916 126.909 376.481 125.97C378.045 125.031 379.894 124.562 382.028 124.562C384.161 124.562 386.01 125.031 387.575 125.97C389.14 126.909 390.349 128.227 391.202 129.924C392.065 131.621 392.496 133.598 392.496 135.855C392.496 138.112 392.065 140.084 391.202 141.772C390.349 143.46 389.14 144.773 387.575 145.712C386.01 146.651 384.161 147.12 382.028 147.12ZM382.056 142.995C383.213 142.995 384.18 142.678 384.958 142.042C385.735 141.398 386.314 140.535 386.693 139.454C387.082 138.373 387.276 137.169 387.276 135.841C387.276 134.504 387.082 133.295 386.693 132.214C386.314 131.123 385.735 130.256 384.958 129.611C384.18 128.966 383.213 128.644 382.056 128.644C380.871 128.644 379.885 128.966 379.098 129.611C378.32 130.256 377.737 131.123 377.348 132.214C376.969 133.295 376.779 134.504 376.779 135.841C376.779 137.169 376.969 138.373 377.348 139.454C377.737 140.535 378.32 141.398 379.098 142.042C379.885 142.678 380.871 142.995 382.056 142.995ZM402.016 133.892V146.694H396.867V124.846H401.788V128.559H402.044C402.547 127.335 403.348 126.363 404.448 125.643C405.557 124.922 406.927 124.562 408.558 124.562C410.066 124.562 411.379 124.884 412.498 125.529C413.627 126.174 414.499 127.108 415.115 128.331C415.741 129.554 416.05 131.038 416.04 132.783V146.694H410.891V133.579C410.891 132.119 410.512 130.977 409.753 130.152C409.004 129.327 407.966 128.914 406.638 128.914C405.737 128.914 404.936 129.113 404.234 129.511C403.542 129.9 402.997 130.464 402.599 131.204C402.21 131.944 402.016 132.84 402.016 133.892Z" fill="#59534F"/>
<path d="M203.476 30.5381V1.40814H214.399C216.637 1.40814 218.515 1.82536 220.032 2.65981C221.558 3.49426 222.711 4.64163 223.488 6.10192C224.275 7.55273 224.669 9.20266 224.669 11.0517C224.669 12.9198 224.275 14.5792 223.488 16.03C222.701 17.4808 221.54 18.6234 220.003 19.4579C218.467 20.2828 216.575 20.6953 214.328 20.6953H207.088V16.3571H213.617C214.926 16.3571 215.997 16.1296 216.832 15.6744C217.666 15.2192 218.282 14.5934 218.681 13.7969C219.088 13.0004 219.292 12.0853 219.292 11.0517C219.292 10.0182 219.088 9.10784 218.681 8.3208C218.282 7.53376 217.661 6.92215 216.817 6.48596C215.983 6.04029 214.907 5.81745 213.589 5.81745H208.753V30.5381H203.476ZM229.025 30.5381V8.69062H234.017V12.3319H234.245C234.643 11.0707 235.326 10.0988 236.293 9.41602C237.27 8.7238 238.384 8.3777 239.635 8.3777C239.92 8.3777 240.238 8.39192 240.588 8.42037C240.949 8.43933 241.248 8.47252 241.485 8.51993V13.2564C241.266 13.1805 240.92 13.1142 240.446 13.0573C239.982 12.9909 239.531 12.9577 239.095 12.9577C238.156 12.9577 237.312 13.1616 236.563 13.5693C235.824 13.9676 235.24 14.5223 234.814 15.2335C234.387 15.9446 234.174 16.7649 234.174 17.6941V30.5381H229.025ZM253.535 30.9648C251.402 30.9648 249.553 30.4954 247.988 29.5566C246.424 28.6179 245.21 27.3046 244.347 25.6167C243.494 23.9288 243.067 21.9565 243.067 19.6997C243.067 17.4429 243.494 15.4658 244.347 13.7684C245.21 12.0711 246.424 10.753 247.988 9.81428C249.553 8.87552 251.402 8.40615 253.535 8.40615C255.669 8.40615 257.518 8.87552 259.083 9.81428C260.647 10.753 261.856 12.0711 262.71 13.7684C263.573 15.4658 264.004 17.4429 264.004 19.6997C264.004 21.9565 263.573 23.9288 262.71 25.6167C261.856 27.3046 260.647 28.6179 259.083 29.5566C257.518 30.4954 255.669 30.9648 253.535 30.9648ZM253.564 26.8399C254.721 26.8399 255.688 26.5223 256.466 25.8869C257.243 25.2421 257.822 24.3792 258.201 23.2982C258.59 22.2173 258.784 21.013 258.784 19.6855C258.784 18.3484 258.59 17.1394 258.201 16.0584C257.822 14.968 257.243 14.1003 256.466 13.4555C255.688 12.8107 254.721 12.4883 253.564 12.4883C252.379 12.4883 251.392 12.8107 250.605 13.4555C249.828 14.1003 249.245 14.968 248.856 16.0584C248.477 17.1394 248.287 18.3484 248.287 19.6855C248.287 21.013 248.477 22.2173 248.856 23.2982C249.245 24.3792 249.828 25.2421 250.605 25.8869C251.392 26.5223 252.379 26.8399 253.564 26.8399ZM276.482 30.9221C274.765 30.9221 273.229 30.4812 271.873 29.5993C270.517 28.7174 269.446 27.4373 268.659 25.7589C267.872 24.0805 267.478 22.0418 267.478 19.6428C267.478 17.2153 267.876 15.1671 268.673 13.4982C269.479 11.8198 270.565 10.5539 271.93 9.70049C273.296 8.83759 274.818 8.40615 276.496 8.40615C277.776 8.40615 278.829 8.62424 279.654 9.06043C280.479 9.48714 281.133 10.0039 281.616 10.6108C282.1 11.2082 282.475 11.7724 282.74 12.3034H282.953V1.40814H288.117V30.5381H283.053V27.0959H282.74C282.475 27.627 282.091 28.1912 281.588 28.7886C281.085 29.3765 280.422 29.879 279.597 30.2963C278.772 30.7135 277.733 30.9221 276.482 30.9221ZM277.918 26.6977C279.009 26.6977 279.938 26.4037 280.706 25.8158C281.474 25.2184 282.057 24.3887 282.456 23.3267C282.854 22.2647 283.053 21.0272 283.053 19.6143C283.053 18.2015 282.854 16.9735 282.456 15.9304C282.067 14.8874 281.488 14.0766 280.72 13.4982C279.962 12.9198 279.028 12.6306 277.918 12.6306C276.771 12.6306 275.813 12.9292 275.045 13.5266C274.277 14.124 273.699 14.949 273.31 16.0015C272.921 17.0541 272.727 18.2584 272.727 19.6143C272.727 20.9798 272.921 22.1983 273.31 23.2698C273.708 24.3318 274.291 25.171 275.059 25.7874C275.837 26.3942 276.79 26.6977 277.918 26.6977ZM307.528 21.3496V8.69062H312.677V30.5381H307.685V26.655H307.457C306.964 27.8782 306.153 28.8786 305.025 29.6562C303.906 30.4337 302.526 30.8225 300.886 30.8225C299.454 30.8225 298.188 30.5049 297.088 29.8695C295.998 29.2247 295.144 28.2907 294.528 27.0675C293.912 25.8348 293.603 24.346 293.603 22.6013V8.69062H298.752V21.8048C298.752 23.1892 299.132 24.2892 299.89 25.1046C300.649 25.9201 301.644 26.3279 302.877 26.3279C303.636 26.3279 304.371 26.143 305.082 25.7731C305.793 25.4033 306.376 24.8534 306.831 24.1232C307.296 23.3836 307.528 22.4591 307.528 21.3496ZM327.502 30.9648C325.321 30.9648 323.448 30.4859 321.883 29.5282C320.328 28.5705 319.129 27.2477 318.285 25.5598C317.45 23.8624 317.033 21.9091 317.033 19.6997C317.033 17.4808 317.46 15.5227 318.313 13.8253C319.167 12.1185 320.371 10.791 321.926 9.84273C323.491 8.88501 325.34 8.40615 327.473 8.40615C329.246 8.40615 330.816 8.73329 332.181 9.38757C333.556 10.0324 334.651 10.9474 335.467 12.1327C336.282 13.3085 336.747 14.6835 336.861 16.2576H331.939C331.74 15.205 331.266 14.3279 330.517 13.6262C329.777 12.915 328.787 12.5594 327.544 12.5594C326.492 12.5594 325.567 12.8439 324.771 13.4128C323.974 13.9723 323.353 14.7783 322.908 15.8309C322.471 16.8834 322.253 18.1446 322.253 19.6143C322.253 21.1031 322.471 22.3832 322.908 23.4547C323.344 24.5167 323.955 25.337 324.742 25.9154C325.539 26.4843 326.473 26.7688 327.544 26.7688C328.303 26.7688 328.981 26.6266 329.578 26.3421C330.185 26.0481 330.693 25.6262 331.1 25.0762C331.508 24.5262 331.788 23.8577 331.939 23.0707H336.861C336.738 24.6163 336.282 25.9865 335.495 27.1813C334.708 28.3666 333.637 29.2959 332.281 29.9691C330.925 30.6329 329.332 30.9648 327.502 30.9648ZM351.998 8.69062V12.6732H339.439V8.69062H351.998ZM342.54 3.45633H347.689V23.9668C347.689 24.659 347.793 25.19 348.001 25.5598C348.22 25.9201 348.504 26.1667 348.855 26.2994C349.206 26.4322 349.595 26.4986 350.021 26.4986C350.344 26.4986 350.638 26.4748 350.903 26.4274C351.178 26.38 351.387 26.3374 351.529 26.2994L352.397 30.3247C352.122 30.4195 351.728 30.5238 351.216 30.6376C350.713 30.7514 350.097 30.8178 349.367 30.8367C348.077 30.8747 346.916 30.6803 345.882 30.2536C344.849 29.8174 344.028 29.1441 343.421 28.2338C342.824 27.3235 342.53 26.1856 342.54 24.8202V3.45633ZM356.304 30.5381V8.69062H361.453V30.5381H356.304ZM358.893 5.58987C358.078 5.58987 357.376 5.31963 356.788 4.77913C356.2 4.22915 355.906 3.57012 355.906 2.80205C355.906 2.02449 356.2 1.36547 356.788 0.824969C357.376 0.274991 358.078 1.90991e-06 358.893 1.90991e-06C359.718 1.90991e-06 360.42 0.274991 360.998 0.824969C361.586 1.36547 361.88 2.02449 361.88 2.80205C361.88 3.57012 361.586 4.22915 360.998 4.77913C360.42 5.31963 359.718 5.58987 358.893 5.58987ZM386.263 8.69062L378.483 30.5381H372.793L365.013 8.69062H370.503L375.524 24.9197H375.752L380.787 8.69062H386.263ZM389.826 30.5381V8.69062H394.975V30.5381H389.826ZM392.415 5.58987C391.599 5.58987 390.897 5.31963 390.31 4.77913C389.722 4.22915 389.428 3.57012 389.428 2.80205C389.428 2.02449 389.722 1.36547 390.31 0.824969C390.897 0.274991 391.599 1.90991e-06 392.415 1.90991e-06C393.24 1.90991e-06 393.941 0.274991 394.52 0.824969C395.108 1.36547 395.402 2.02449 395.402 2.80205C395.402 3.57012 395.108 4.22915 394.52 4.77913C393.941 5.31963 393.24 5.58987 392.415 5.58987ZM411.179 8.69062V12.6732H398.62V8.69062H411.179ZM401.72 3.45633H406.869V23.9668C406.869 24.659 406.974 25.19 407.182 25.5598C407.4 25.9201 407.685 26.1667 408.036 26.2994C408.387 26.4322 408.775 26.4986 409.202 26.4986C409.524 26.4986 409.818 26.4748 410.084 26.4274C410.359 26.38 410.567 26.3374 410.71 26.2994L411.577 30.3247C411.302 30.4195 410.909 30.5238 410.397 30.6376C409.894 30.7514 409.278 30.8178 408.548 30.8367C407.258 30.8747 406.097 30.6803 405.063 30.2536C404.029 29.8174 403.209 29.1441 402.602 28.2338C402.005 27.3235 401.711 26.1856 401.72 24.8202V3.45633ZM418.686 38.7308C417.984 38.7308 417.334 38.6739 416.737 38.5602C416.149 38.4559 415.68 38.3326 415.329 38.1903L416.524 34.1793C417.273 34.3974 417.941 34.5017 418.529 34.4922C419.117 34.4827 419.634 34.2978 420.08 33.9375C420.535 33.5866 420.919 32.9987 421.232 32.1738L421.673 30.9932L413.75 8.69062H419.212L424.247 25.19H424.475L429.524 8.69062H435L426.253 33.1836C425.845 34.3405 425.304 35.3314 424.631 36.1564C423.958 36.9908 423.133 37.6261 422.156 38.0623C421.189 38.508 420.032 38.7308 418.686 38.7308ZM96.7702 88.6158V59.4859H107.694C109.932 59.4859 111.809 59.9031 113.326 60.7376C114.853 61.572 116.005 62.7194 116.783 64.1797C117.57 65.6305 117.963 67.2804 117.963 69.1295C117.963 70.9975 117.57 72.6569 116.783 74.1078C115.996 75.5586 114.834 76.7012 113.298 77.5356C111.762 78.3606 109.87 78.7731 107.623 78.7731H100.383V74.4349H106.912C108.22 74.4349 109.292 74.2073 110.126 73.7522C110.961 73.297 111.577 72.6712 111.975 71.8747C112.383 71.0781 112.587 70.1631 112.587 69.1295C112.587 68.0959 112.383 67.1856 111.975 66.3986C111.577 65.6115 110.956 64.9999 110.112 64.5637C109.277 64.1181 108.201 63.8952 106.883 63.8952H102.047V88.6158H96.7702ZM131.536 89.0425C129.403 89.0425 127.554 88.5731 125.989 87.6344C124.424 86.6956 123.211 85.3823 122.348 83.6945C121.494 82.0066 121.068 80.0343 121.068 77.7774C121.068 75.5206 121.494 73.5436 122.348 71.8462C123.211 70.1489 124.424 68.8308 125.989 67.892C127.554 66.9533 129.403 66.4839 131.536 66.4839C133.67 66.4839 135.519 66.9533 137.083 67.892C138.648 68.8308 139.857 70.1489 140.71 71.8462C141.573 73.5436 142.005 75.5206 142.005 77.7774C142.005 80.0343 141.573 82.0066 140.71 83.6945C139.857 85.3823 138.648 86.6956 137.083 87.6344C135.519 88.5731 133.67 89.0425 131.536 89.0425ZM131.565 84.9177C132.722 84.9177 133.689 84.6 134.466 83.9647C135.244 83.3199 135.822 82.457 136.202 81.376C136.59 80.295 136.785 79.0908 136.785 77.7632C136.785 76.4262 136.59 75.2172 136.202 74.1362C135.822 73.0457 135.244 72.1781 134.466 71.5333C133.689 70.8885 132.722 70.5661 131.565 70.5661C130.379 70.5661 129.393 70.8885 128.606 71.5333C127.829 72.1781 127.245 73.0457 126.857 74.1362C126.477 75.2172 126.288 76.4262 126.288 77.7632C126.288 79.0908 126.477 80.295 126.857 81.376C127.245 82.457 127.829 83.3199 128.606 83.9647C129.393 84.6 130.379 84.9177 131.565 84.9177ZM163.642 72.5432L158.949 73.0552C158.816 72.5811 158.584 72.1354 158.252 71.7182C157.929 71.301 157.493 70.9643 156.943 70.7083C156.393 70.4523 155.72 70.3243 154.923 70.3243C153.852 70.3243 152.951 70.5566 152.221 71.0212C151.5 71.4859 151.145 72.088 151.154 72.8276C151.145 73.463 151.377 73.9797 151.851 74.378C152.335 74.7763 153.131 75.1034 154.241 75.3594L157.967 76.156C160.034 76.6016 161.571 77.3081 162.576 78.2753C163.59 79.2425 164.102 80.5084 164.112 82.073C164.102 83.4479 163.699 84.6617 162.903 85.7142C162.116 86.7573 161.021 87.5728 159.617 88.1607C158.214 88.7486 156.602 89.0425 154.781 89.0425C152.107 89.0425 149.955 88.4831 148.324 87.3641C146.693 86.2357 145.721 84.6664 145.408 82.6561L150.429 82.1725C150.656 83.1587 151.14 83.9031 151.879 84.4056C152.619 84.9082 153.582 85.1595 154.767 85.1595C155.99 85.1595 156.972 84.9082 157.711 84.4056C158.46 83.9031 158.835 83.282 158.835 82.5423C158.835 81.9165 158.593 81.3997 158.109 80.992C157.635 80.5842 156.896 80.2713 155.891 80.0532L152.164 79.2709C150.068 78.8347 148.518 78.0998 147.513 77.0663C146.508 76.0232 146.01 74.7051 146.019 73.1121C146.01 71.7656 146.375 70.5993 147.115 69.6131C147.864 68.6174 148.902 67.8494 150.23 67.3089C151.567 66.7589 153.107 66.4839 154.852 66.4839C157.412 66.4839 159.427 67.0291 160.897 68.1196C162.377 69.2101 163.292 70.6846 163.642 72.5432ZM185.625 72.5432L180.931 73.0552C180.798 72.5811 180.566 72.1354 180.234 71.7182C179.912 71.301 179.476 70.9643 178.926 70.7083C178.376 70.4523 177.702 70.3243 176.906 70.3243C175.834 70.3243 174.934 70.5566 174.203 71.0212C173.483 71.4859 173.127 72.088 173.137 72.8276C173.127 73.463 173.359 73.9797 173.834 74.378C174.317 74.7763 175.114 75.1034 176.223 75.3594L179.95 76.156C182.017 76.6016 183.553 77.3081 184.558 78.2753C185.573 79.2425 186.085 80.5084 186.094 82.073C186.085 83.4479 185.682 84.6617 184.885 85.7142C184.098 86.7573 183.003 87.5728 181.6 88.1607C180.196 88.7486 178.584 89.0425 176.764 89.0425C174.09 89.0425 171.937 88.4831 170.306 87.3641C168.675 86.2357 167.703 84.6664 167.39 82.6561L172.411 82.1725C172.639 83.1587 173.122 83.9031 173.862 84.4056C174.602 84.9082 175.564 85.1595 176.749 85.1595C177.973 85.1595 178.954 84.9082 179.694 84.4056C180.443 83.9031 180.817 83.282 180.817 82.5423C180.817 81.9165 180.576 81.3997 180.092 80.992C179.618 80.5842 178.878 80.2713 177.873 80.0532L174.147 79.2709C172.051 78.8347 170.501 78.0998 169.495 77.0663C168.49 76.0232 167.992 74.7051 168.002 73.1121C167.992 71.7656 168.358 70.5993 169.097 69.6131C169.846 68.6174 170.885 67.8494 172.212 67.3089C173.549 66.7589 175.09 66.4839 176.835 66.4839C179.395 66.4839 181.41 67.0291 182.88 68.1196C184.359 69.2101 185.274 70.6846 185.625 72.5432ZM190.34 88.6158V66.7684H195.489V88.6158H190.34ZM192.929 63.6676C192.113 63.6676 191.412 63.3974 190.824 62.8569C190.236 62.3069 189.942 61.6479 189.942 60.8798C189.942 60.1023 190.236 59.4432 190.824 58.9027C191.412 58.3528 192.113 58.0778 192.929 58.0778C193.754 58.0778 194.455 58.3528 195.034 58.9027C195.622 59.4432 195.916 60.1023 195.916 60.8798C195.916 61.6479 195.622 62.3069 195.034 62.8569C194.455 63.3974 193.754 63.6676 192.929 63.6676ZM201.011 88.6158V59.4859H206.16V70.3812H206.374C206.639 69.8502 207.014 69.286 207.497 68.6886C207.981 68.0817 208.635 67.5649 209.46 67.1382C210.285 66.702 211.338 66.4839 212.618 66.4839C214.306 66.4839 215.828 66.9154 217.184 67.7783C218.549 68.6317 219.63 69.8976 220.427 71.576C221.233 73.2449 221.636 75.2931 221.636 77.7205C221.636 80.1196 221.242 82.1583 220.455 83.8367C219.668 85.5151 218.596 86.7952 217.24 87.6771C215.884 88.5589 214.348 88.9999 212.632 88.9999C211.38 88.9999 210.342 88.7912 209.517 88.374C208.692 87.9568 208.028 87.4542 207.526 86.8663C207.033 86.2689 206.649 85.7047 206.374 85.1737H206.075V88.6158H201.011ZM206.061 77.6921C206.061 79.105 206.26 80.3424 206.658 81.4045C207.066 82.4665 207.649 83.2962 208.408 83.8936C209.176 84.4815 210.105 84.7754 211.195 84.7754C212.333 84.7754 213.286 84.472 214.054 83.8651C214.822 83.2488 215.401 82.4096 215.79 81.3476C216.188 80.2761 216.387 79.0576 216.387 77.6921C216.387 76.3361 216.193 75.1319 215.804 74.0793C215.415 73.0268 214.837 72.2018 214.069 71.6044C213.301 71.007 212.343 70.7083 211.195 70.7083C210.095 70.7083 209.161 70.9975 208.393 71.576C207.625 72.1544 207.042 72.9651 206.644 74.0082C206.255 75.0513 206.061 76.2792 206.061 77.6921ZM226.013 88.6158V66.7684H231.162V88.6158H226.013ZM228.602 63.6676C227.786 63.6676 227.084 63.3974 226.496 62.8569C225.909 62.3069 225.615 61.6479 225.615 60.8798C225.615 60.1023 225.909 59.4432 226.496 58.9027C227.084 58.3528 227.786 58.0778 228.602 58.0778C229.427 58.0778 230.128 58.3528 230.707 58.9027C231.295 59.4432 231.588 60.1023 231.588 60.8798C231.588 61.6479 231.295 62.3069 230.707 62.8569C230.128 63.3974 229.427 63.6676 228.602 63.6676ZM241.605 59.4859V88.6158H236.457V59.4859H241.605ZM246.9 88.6158V66.7684H252.049V88.6158H246.9ZM249.489 63.6676C248.673 63.6676 247.972 63.3974 247.384 62.8569C246.796 62.3069 246.502 61.6479 246.502 60.8798C246.502 60.1023 246.796 59.4432 247.384 58.9027C247.972 58.3528 248.673 58.0778 249.489 58.0778C250.314 58.0778 251.016 58.3528 251.594 58.9027C252.182 59.4432 252.476 60.1023 252.476 60.8798C252.476 61.6479 252.182 62.3069 251.594 62.8569C251.016 63.3974 250.314 63.6676 249.489 63.6676ZM268.253 66.7684V70.751H255.694V66.7684H268.253ZM258.795 61.5341H263.944V82.0445C263.944 82.7367 264.048 83.2677 264.257 83.6376C264.475 83.9979 264.759 84.2444 265.11 84.3772C265.461 84.5099 265.85 84.5763 266.276 84.5763C266.599 84.5763 266.893 84.5526 267.158 84.5052C267.433 84.4578 267.642 84.4151 267.784 84.3772L268.652 88.4025C268.377 88.4973 267.983 88.6016 267.471 88.7154C266.968 88.8292 266.352 88.8955 265.622 88.9145C264.332 88.9524 263.171 88.7581 262.137 88.3313C261.104 87.8952 260.283 87.2219 259.677 86.3116C259.079 85.4013 258.785 84.2634 258.795 82.8979V61.5341ZM275.76 96.8086C275.058 96.8086 274.409 96.7517 273.811 96.6379C273.223 96.5336 272.754 96.4103 272.403 96.2681L273.598 92.2571C274.347 92.4752 275.015 92.5795 275.603 92.57C276.191 92.5605 276.708 92.3756 277.154 92.0153C277.609 91.6644 277.993 91.0765 278.306 90.2515L278.747 89.071L270.824 66.7684H276.286L281.321 83.2677H281.549L286.598 66.7684H292.074L283.327 91.2614C282.919 92.4183 282.379 93.4092 281.705 94.2341C281.032 95.0686 280.207 95.7039 279.23 96.1401C278.263 96.5858 277.106 96.8086 275.76 96.8086ZM-5.61035e-06 146.694V117.564H10.9237C13.1616 117.564 15.0391 117.981 16.5563 118.815C18.0829 119.65 19.235 120.797 20.0126 122.257C20.7996 123.708 21.1931 125.358 21.1931 127.207C21.1931 129.075 20.7996 130.735 20.0126 132.186C19.2255 133.636 18.064 134.779 16.5278 135.613C14.9917 136.438 13.0999 136.851 10.8526 136.851H3.61279V132.513H10.1414C11.45 132.513 12.5215 132.285 13.3559 131.83C14.1904 131.375 14.8068 130.749 15.205 129.952C15.6128 129.156 15.8166 128.241 15.8166 127.207C15.8166 126.174 15.6128 125.263 15.205 124.476C14.8068 123.689 14.1857 123.078 13.3417 122.641C12.5073 122.196 11.431 121.973 10.113 121.973H5.27695V146.694H-5.61035e-06ZM25.5491 146.694V124.846H30.6981V146.694H25.5491ZM28.1378 121.745C27.3223 121.745 26.6206 121.475 26.0327 120.935C25.4448 120.385 25.1509 119.726 25.1509 118.958C25.1509 118.18 25.4448 117.521 26.0327 116.98C26.6206 116.431 27.3223 116.156 28.1378 116.156C28.9628 116.156 29.6645 116.431 30.2429 116.98C30.8308 117.521 31.1248 118.18 31.1248 118.958C31.1248 119.726 30.8308 120.385 30.2429 120.935C29.6645 121.475 28.9628 121.745 28.1378 121.745ZM45.5226 147.12C43.3891 147.12 41.54 146.651 39.9754 145.712C38.4108 144.773 37.1971 143.46 36.3342 141.772C35.4807 140.084 35.054 138.112 35.054 135.855C35.054 133.598 35.4807 131.621 36.3342 129.924C37.1971 128.227 38.4108 126.909 39.9754 125.97C41.54 125.031 43.3891 124.562 45.5226 124.562C47.6561 124.562 49.5052 125.031 51.0698 125.97C52.6344 126.909 53.8434 128.227 54.6968 129.924C55.5597 131.621 55.9912 133.598 55.9912 135.855C55.9912 138.112 55.5597 140.084 54.6968 141.772C53.8434 143.46 52.6344 144.773 51.0698 145.712C49.5052 146.651 47.6561 147.12 45.5226 147.12ZM45.551 142.995C46.7079 142.995 47.6751 142.678 48.4527 142.042C49.2302 141.398 49.8086 140.535 50.1879 139.454C50.5767 138.373 50.7711 137.169 50.7711 135.841C50.7711 134.504 50.5767 133.295 50.1879 132.214C49.8086 131.123 49.2302 130.256 48.4527 129.611C47.6751 128.966 46.7079 128.644 45.551 128.644C44.3657 128.644 43.3796 128.966 42.5925 129.611C41.815 130.256 41.2318 131.123 40.843 132.214C40.4637 133.295 40.2741 134.504 40.2741 135.841C40.2741 137.169 40.4637 138.373 40.843 139.454C41.2318 140.535 41.815 141.398 42.5925 142.042C43.3796 142.678 44.3657 142.995 45.551 142.995ZM65.5103 133.892V146.694H60.3614V124.846H65.2827V128.559H65.5387C66.0413 127.335 66.8426 126.363 67.9425 125.643C69.052 124.922 70.4222 124.562 72.0531 124.562C73.5608 124.562 74.8742 124.884 75.9931 125.529C77.1215 126.174 77.9939 127.108 78.6102 128.331C79.2361 129.554 79.5442 131.038 79.5348 132.783V146.694H74.3858V133.579C74.3858 132.119 74.0065 130.977 73.2479 130.152C72.4988 129.327 71.4605 128.914 70.133 128.914C69.2321 128.914 68.4309 129.113 67.7292 129.511C67.037 129.9 66.4917 130.464 66.0935 131.204C65.7047 131.944 65.5103 132.84 65.5103 133.892ZM94.4411 147.12C92.2506 147.12 90.3589 146.665 88.7659 145.755C87.1823 144.835 85.9638 143.536 85.1104 141.858C84.257 140.17 83.8303 138.183 83.8303 135.898C83.8303 133.651 84.257 131.678 85.1104 129.981C85.9733 128.274 87.1776 126.946 88.7232 125.998C90.2688 125.041 92.0847 124.562 94.1708 124.562C95.5173 124.562 96.788 124.78 97.9828 125.216C99.187 125.643 100.249 126.306 101.169 127.207C102.098 128.108 102.828 129.255 103.359 130.649C103.89 132.034 104.156 133.684 104.156 135.599V137.178H86.2483V133.707H99.2202C99.2107 132.721 98.9974 131.844 98.5801 131.076C98.1629 130.299 97.5798 129.687 96.8306 129.241C96.091 128.796 95.2281 128.573 94.2419 128.573C93.1894 128.573 92.2649 128.829 91.4684 129.341C90.6718 129.843 90.0507 130.507 89.6051 131.332C89.1689 132.148 88.946 133.044 88.9366 134.02V137.05C88.9366 138.321 89.1689 139.411 89.6335 140.321C90.0981 141.222 90.7477 141.914 91.5821 142.398C92.4166 142.872 93.3933 143.109 94.5122 143.109C95.2613 143.109 95.9393 143.005 96.5462 142.796C97.153 142.578 97.6793 142.261 98.125 141.843C98.5707 141.426 98.9073 140.909 99.1349 140.293L103.942 140.833C103.639 142.104 103.061 143.214 102.207 144.162C101.363 145.101 100.282 145.831 98.9642 146.352C97.6461 146.864 96.1384 147.12 94.4411 147.12ZM118.184 147.12C115.993 147.12 114.102 146.665 112.509 145.755C110.925 144.835 109.707 143.536 108.853 141.858C108 140.17 107.573 138.183 107.573 135.898C107.573 133.651 108 131.678 108.853 129.981C109.716 128.274 110.92 126.946 112.466 125.998C114.012 125.041 115.827 124.562 117.914 124.562C119.26 124.562 120.531 124.78 121.725 125.216C122.93 125.643 123.992 126.306 124.912 127.207C125.841 128.108 126.571 129.255 127.102 130.649C127.633 132.034 127.899 133.684 127.899 135.599V137.178H109.991V133.707H122.963C122.953 132.721 122.74 131.844 122.323 131.076C121.906 130.299 121.322 129.687 120.573 129.241C119.834 128.796 118.971 128.573 117.985 128.573C116.932 128.573 116.008 128.829 115.211 129.341C114.415 129.843 113.793 130.507 113.348 131.332C112.912 132.148 112.689 133.044 112.679 134.02V137.05C112.679 138.321 112.912 139.411 113.376 140.321C113.841 141.222 114.49 141.914 115.325 142.398C116.159 142.872 117.136 143.109 118.255 143.109C119.004 143.109 119.682 143.005 120.289 142.796C120.896 142.578 121.422 142.261 121.868 141.843C122.313 141.426 122.65 140.909 122.878 140.293L127.685 140.833C127.382 142.104 126.803 143.214 125.95 144.162C125.106 145.101 124.025 145.831 122.707 146.352C121.389 146.864 119.881 147.12 118.184 147.12ZM132.254 146.694V124.846H137.247V128.487H137.475C137.873 127.226 138.556 126.254 139.523 125.572C140.499 124.879 141.614 124.533 142.865 124.533C143.15 124.533 143.467 124.547 143.818 124.576C144.179 124.595 144.477 124.628 144.714 124.675V129.412C144.496 129.336 144.15 129.27 143.676 129.213C143.211 129.146 142.761 129.113 142.325 129.113C141.386 129.113 140.542 129.317 139.793 129.725C139.053 130.123 138.47 130.678 138.043 131.389C137.617 132.1 137.403 132.92 137.403 133.85V146.694H132.254ZM148.135 146.694V124.846H153.284V146.694H148.135ZM150.724 121.745C149.908 121.745 149.207 121.475 148.619 120.935C148.031 120.385 147.737 119.726 147.737 118.958C147.737 118.18 148.031 117.521 148.619 116.98C149.207 116.431 149.908 116.156 150.724 116.156C151.549 116.156 152.25 116.431 152.829 116.98C153.417 117.521 153.711 118.18 153.711 118.958C153.711 119.726 153.417 120.385 152.829 120.935C152.25 121.475 151.549 121.745 150.724 121.745ZM163.728 133.892V146.694H158.579V124.846H163.5V128.559H163.756C164.259 127.335 165.06 126.363 166.16 125.643C167.269 124.922 168.64 124.562 170.271 124.562C171.778 124.562 173.092 124.884 174.211 125.529C175.339 126.174 176.211 127.108 176.828 128.331C177.454 129.554 177.762 131.038 177.752 132.783V146.694H172.603V133.579C172.603 132.119 172.224 130.977 171.465 130.152C170.716 129.327 169.678 128.914 168.35 128.914C167.45 128.914 166.648 129.113 165.947 129.511C165.254 129.9 164.709 130.464 164.311 131.204C163.922 131.944 163.728 132.84 163.728 133.892ZM192.488 155.342C190.639 155.342 189.05 155.09 187.723 154.588C186.395 154.095 185.329 153.431 184.523 152.596C183.717 151.762 183.157 150.837 182.844 149.823L187.481 148.699C187.69 149.126 187.993 149.548 188.391 149.965C188.79 150.392 189.325 150.743 189.999 151.018C190.681 151.302 191.54 151.444 192.573 151.444C194.033 151.444 195.242 151.089 196.2 150.377C197.158 149.676 197.637 148.519 197.637 146.907V142.768H197.381C197.115 143.299 196.726 143.844 196.214 144.404C195.712 144.963 195.043 145.432 194.209 145.812C193.384 146.191 192.346 146.381 191.094 146.381C189.416 146.381 187.894 145.987 186.528 145.2C185.172 144.404 184.091 143.218 183.285 141.644C182.489 140.061 182.09 138.079 182.09 135.699C182.09 133.3 182.489 131.275 183.285 129.625C184.091 127.966 185.177 126.709 186.542 125.856C187.908 124.993 189.43 124.562 191.108 124.562C192.388 124.562 193.441 124.78 194.266 125.216C195.1 125.643 195.764 126.159 196.257 126.766C196.75 127.364 197.125 127.928 197.381 128.459H197.665V124.846H202.743V147.049C202.743 148.917 202.297 150.463 201.406 151.686C200.515 152.909 199.296 153.824 197.751 154.431C196.205 155.038 194.451 155.342 192.488 155.342ZM192.531 142.341C193.621 142.341 194.55 142.076 195.318 141.545C196.086 141.014 196.67 140.25 197.068 139.255C197.466 138.259 197.665 137.064 197.665 135.67C197.665 134.295 197.466 133.091 197.068 132.058C196.679 131.024 196.101 130.223 195.333 129.654C194.574 129.075 193.64 128.786 192.531 128.786C191.383 128.786 190.425 129.085 189.657 129.682C188.889 130.28 188.311 131.1 187.922 132.143C187.533 133.176 187.339 134.352 187.339 135.67C187.339 137.007 187.533 138.178 187.922 139.184C188.32 140.179 188.904 140.957 189.672 141.516C190.449 142.066 191.402 142.341 192.531 142.341Z" fill="#F68C20"/>
</svg>
