<svg width="28" height="28" viewBox="0 0 28 28" fill="none" xmlns="http://www.w3.org/2000/svg">
<path d="M14.031 0.359863H13.9692C6.4929 0.359863 0.432129 6.42063 0.432129 13.897V13.9588C0.432129 21.4351 6.4929 27.4959 13.9692 27.4959H14.031C21.5074 27.4959 27.5681 21.4351 27.5681 13.9588V13.897C27.5681 6.42063 21.5074 0.359863 14.031 0.359863Z" fill="white"/>
<path d="M18.1997 5.88062H9.80307C7.48334 5.88062 5.59619 7.76777 5.59619 10.0875V17.7692C5.59619 20.0889 7.48334 21.9761 9.80307 21.9761H18.1997C20.5194 21.9761 22.4066 20.0889 22.4066 17.7692V10.0875C22.4066 7.76777 20.5194 5.88062 18.1997 5.88062ZM7.08024 10.0875C7.08024 8.58632 8.3019 7.36467 9.80307 7.36467H18.1997C19.7009 7.36467 20.9225 8.58632 20.9225 10.0875V17.7692C20.9225 19.2704 19.7009 20.492 18.1997 20.492H9.80307C8.3019 20.492 7.08024 19.2704 7.08024 17.7692V10.0875Z" fill="#F68C20"/>
<path d="M14.001 17.8404C16.1582 17.8404 17.9141 16.0854 17.9141 13.9273C17.9141 11.7692 16.1591 10.0142 14.001 10.0142C11.8429 10.0142 10.0879 11.7692 10.0879 13.9273C10.0879 16.0854 11.8429 17.8404 14.001 17.8404ZM14.001 11.4992C15.3405 11.4992 16.4301 12.5887 16.4301 13.9282C16.4301 15.2678 15.3405 16.3573 14.001 16.3573C12.6615 16.3573 11.5719 15.2678 11.5719 13.9282C11.5719 12.5887 12.6615 11.4992 14.001 11.4992Z" fill="#F68C20"/>
<path d="M18.2775 10.6468C18.8584 10.6468 19.3318 10.1743 19.3318 9.59242C19.3318 9.01059 18.8593 8.53809 18.2775 8.53809C17.6956 8.53809 17.2231 9.01059 17.2231 9.59242C17.2231 10.1743 17.6956 10.6468 18.2775 10.6468Z" fill="#F68C20"/>
</svg>
