<svg width="28" height="28" viewBox="0 0 28 28" fill="none" xmlns="http://www.w3.org/2000/svg">
<path d="M14.0789 0.359863H14.0171C6.54076 0.359863 0.47998 6.42063 0.47998 13.897V13.9588C0.47998 21.4351 6.54076 27.4959 14.0171 27.4959H14.0789C21.5552 27.4959 27.616 21.4351 27.616 13.9588V13.897C27.616 6.42063 21.5552 0.359863 14.0789 0.359863Z" fill="white"/>
<path d="M6.95125 9.37941C6.59379 9.04761 6.41602 8.63691 6.41602 8.14825C6.41602 7.65959 6.59474 7.23082 6.95125 6.89807C7.30872 6.56627 7.76886 6.3999 8.33263 6.3999C8.8964 6.3999 9.33848 6.56627 9.695 6.89807C10.0525 7.22987 10.2302 7.64723 10.2302 8.14825C10.2302 8.64927 10.0515 9.04761 9.695 9.37941C9.33753 9.71121 8.88404 9.87758 8.33263 9.87758C7.78122 9.87758 7.30872 9.71121 6.95125 9.37941ZM9.92982 11.2827V21.4553H6.71548V11.2827H9.92982Z" fill="#F68C20"/>
<path d="M20.6301 12.2876C21.3307 13.0481 21.6806 14.092 21.6806 15.4211V21.2756H18.6279V15.8337C18.6279 15.1635 18.4539 14.6425 18.1069 14.2717C17.7599 13.9009 17.2921 13.7146 16.7065 13.7146C16.1209 13.7146 15.6531 13.9 15.3061 14.2717C14.9591 14.6425 14.7851 15.1635 14.7851 15.8337V21.2756H11.7144V11.2542H14.7851V12.5832C15.096 12.1402 15.5153 11.7904 16.042 11.5327C16.5687 11.2751 17.1609 11.1467 17.8198 11.1467C18.993 11.1467 19.9303 11.527 20.6301 12.2866V12.2876Z" fill="#F68C20"/>
</svg>
