<svg width="181" height="10" viewBox="0 0 181 10" fill="none" xmlns="http://www.w3.org/2000/svg">
<path d="M0.357881 0.469353H1.45499L4.25351 7.43337L7.04616 0.469353H8.14914L4.67593 9.01157H3.81936L0.357881 0.469353ZM0 0.469353H0.96804L1.12645 5.67917V9.01157H0V0.469353ZM7.53311 0.469353H8.50115V9.01157H7.3747V5.67917L7.53311 0.469353ZM11.2398 5.90798V5.77304C11.2398 5.31542 11.3063 4.89105 11.4393 4.49992C11.5723 4.10488 11.7639 3.76264 12.0143 3.47321C12.2646 3.17986 12.5677 2.95301 12.9236 2.79265C13.2796 2.62838 13.6785 2.54624 14.1205 2.54624C14.5664 2.54624 14.9673 2.62838 15.3232 2.79265C15.683 2.95301 15.9881 3.17986 16.2384 3.47321C16.4927 3.76264 16.6863 4.10488 16.8193 4.49992C16.9522 4.89105 17.0187 5.31542 17.0187 5.77304V5.90798C17.0187 6.3656 16.9522 6.78997 16.8193 7.1811C16.6863 7.57222 16.4927 7.91446 16.2384 8.20781C15.9881 8.49724 15.685 8.72409 15.3291 8.88837C14.977 9.04873 14.5781 9.12891 14.1322 9.12891C13.6863 9.12891 13.2854 9.04873 12.9295 8.88837C12.5736 8.72409 12.2685 8.49724 12.0143 8.20781C11.7639 7.91446 11.5723 7.57222 11.4393 7.1811C11.3063 6.78997 11.2398 6.3656 11.2398 5.90798ZM12.3252 5.77304V5.90798C12.3252 6.22479 12.3624 6.524 12.4367 6.80561C12.511 7.08331 12.6225 7.32972 12.7711 7.54484C12.9236 7.75996 13.1133 7.9301 13.3402 8.05527C13.567 8.17652 13.831 8.23714 14.1322 8.23714C14.4295 8.23714 14.6896 8.17652 14.9125 8.05527C15.1394 7.9301 15.3271 7.75996 15.4757 7.54484C15.6244 7.32972 15.7358 7.08331 15.8101 6.80561C15.8884 6.524 15.9275 6.22479 15.9275 5.90798V5.77304C15.9275 5.46014 15.8884 5.16484 15.8101 4.88713C15.7358 4.60552 15.6224 4.35716 15.4699 4.14204C15.3212 3.92301 15.1335 3.75091 14.9066 3.62575C14.6837 3.50059 14.4216 3.43801 14.1205 3.43801C13.8232 3.43801 13.5612 3.50059 13.3343 3.62575C13.1114 3.75091 12.9236 3.92301 12.7711 4.14204C12.6225 4.35716 12.511 4.60552 12.4367 4.88713C12.3624 5.16484 12.3252 5.46014 12.3252 5.77304ZM19.5755 0H20.6668V7.77952L20.5729 9.01157H19.5755V0ZM24.9555 5.78477V5.90798C24.9555 6.36951 24.9007 6.79779 24.7912 7.19283C24.6817 7.58396 24.5213 7.92424 24.3101 8.21367C24.0989 8.50311 23.8408 8.728 23.5357 8.88837C23.2306 9.04873 22.8806 9.12891 22.4855 9.12891C22.0827 9.12891 21.7287 9.06046 21.4236 8.92357C21.1224 8.78276 20.8682 8.58133 20.6609 8.31928C20.4536 8.05722 20.2874 7.74041 20.1622 7.36884C20.041 6.99727 19.9569 6.57876 19.9099 6.11332V5.57356C19.9569 5.10421 20.041 4.68375 20.1622 4.31218C20.2874 3.94061 20.4536 3.62379 20.6609 3.36174C20.8682 3.09577 21.1224 2.89434 21.4236 2.75745C21.7248 2.61664 22.0748 2.54624 22.4738 2.54624C22.8727 2.54624 23.2267 2.62446 23.5357 2.78091C23.8447 2.93345 24.1028 3.15249 24.3101 3.43801C24.5213 3.72353 24.6817 4.06577 24.7912 4.46472C24.9007 4.85976 24.9555 5.29977 24.9555 5.78477ZM23.8642 5.90798V5.78477C23.8642 5.46796 23.8349 5.1707 23.7762 4.893C23.7176 4.61139 23.6237 4.36498 23.4946 4.15377C23.3656 3.93865 23.1954 3.77047 22.9842 3.64922C22.773 3.52406 22.5129 3.46148 22.2039 3.46148C21.9301 3.46148 21.6915 3.50841 21.4881 3.60228C21.2887 3.69615 21.1185 3.82327 20.9777 3.98363C20.8369 4.14008 20.7215 4.32 20.6316 4.52339C20.5455 4.72286 20.481 4.93016 20.438 5.14528V6.5592C20.5005 6.83299 20.6022 7.097 20.743 7.35124C20.8878 7.60156 21.0794 7.8069 21.318 7.96726C21.5605 8.12762 21.8597 8.20781 22.2156 8.20781C22.509 8.20781 22.7593 8.14914 22.9666 8.0318C23.1778 7.91055 23.3479 7.74432 23.477 7.53311C23.61 7.3219 23.7078 7.07745 23.7704 6.79975C23.8329 6.52205 23.8642 6.22479 23.8642 5.90798ZM28.7091 2.66358V9.01157H27.6179V2.66358H28.7091ZM27.5357 0.979774C27.5357 0.803766 27.5886 0.655138 27.6942 0.533889C27.8037 0.412639 27.964 0.352015 28.1752 0.352015C28.3825 0.352015 28.5409 0.412639 28.6505 0.533889C28.7639 0.655138 28.8206 0.803766 28.8206 0.979774C28.8206 1.14796 28.7639 1.29268 28.6505 1.41392C28.5409 1.53126 28.3825 1.58993 28.1752 1.58993C27.964 1.58993 27.8037 1.53126 27.6942 1.41392C27.5886 1.29268 27.5357 1.14796 27.5357 0.979774ZM32.8324 0V9.01157H31.7411V0H32.8324ZM38.4107 9.12891C37.9687 9.12891 37.5678 9.0546 37.2079 8.90597C36.852 8.75343 36.545 8.54026 36.2868 8.26647C36.0326 7.99269 35.837 7.66805 35.7001 7.29257C35.5632 6.91709 35.4948 6.5064 35.4948 6.06052V5.81411C35.4948 5.29782 35.5711 4.83824 35.7236 4.43538C35.8761 4.02861 36.0834 3.68442 36.3455 3.40281C36.6076 3.1212 36.9048 2.90803 37.2373 2.76331C37.5697 2.6186 37.9139 2.54624 38.2698 2.54624C38.7236 2.54624 39.1147 2.62446 39.4432 2.78091C39.7757 2.93737 40.0475 3.1564 40.2587 3.43801C40.4699 3.71571 40.6264 4.04426 40.7281 4.42365C40.8298 4.79913 40.8806 5.20981 40.8806 5.6557V6.14265H36.1402V5.25675H39.7952V5.17461C39.7796 4.893 39.7209 4.61921 39.6192 4.35325C39.5215 4.08728 39.365 3.86825 39.1499 3.69615C38.9348 3.52406 38.6414 3.43801 38.2698 3.43801C38.0234 3.43801 37.7966 3.49081 37.5893 3.59642C37.382 3.69811 37.204 3.85065 37.0554 4.05403C36.9068 4.25742 36.7914 4.50579 36.7092 4.79913C36.6271 5.09248 36.586 5.4308 36.586 5.81411V6.06052C36.586 6.36168 36.6271 6.64525 36.7092 6.91122C36.7953 7.17327 36.9185 7.40404 37.0789 7.60351C37.2431 7.80299 37.4407 7.95944 37.6714 8.07287C37.9061 8.18629 38.1721 8.24301 38.4693 8.24301C38.8526 8.24301 39.1773 8.16478 39.4432 8.00833C39.7092 7.85188 39.9419 7.64263 40.1414 7.38057L40.7985 7.90273C40.6616 8.11002 40.4875 8.30754 40.2763 8.49528C40.0651 8.68302 39.805 8.83556 39.496 8.9529C39.191 9.07024 38.8292 9.12891 38.4107 9.12891ZM48.6167 4.01883V9.01157H47.5313V2.66358H48.5581L48.6167 4.01883ZM48.3586 5.59703L47.9068 5.57943C47.9107 5.14528 47.9753 4.74437 48.1004 4.37671C48.2256 4.00514 48.4016 3.68246 48.6285 3.40867C48.8553 3.13488 49.1252 2.92368 49.4381 2.77505C49.7549 2.62251 50.105 2.54624 50.4883 2.54624C50.8012 2.54624 51.0828 2.58926 51.3331 2.67531C51.5834 2.75745 51.7966 2.89043 51.9726 3.07426C52.1525 3.25809 52.2894 3.49668 52.3833 3.79002C52.4772 4.07946 52.5241 4.43343 52.5241 4.85193V9.01157H51.4328V4.8402C51.4328 4.50774 51.384 4.24177 51.2862 4.0423C51.1884 3.83891 51.0456 3.69224 50.8579 3.60228C50.6701 3.50841 50.4394 3.46148 50.1656 3.46148C49.8957 3.46148 49.6493 3.51819 49.4264 3.63162C49.2073 3.74504 49.0176 3.90149 48.8573 4.10097C48.7008 4.30044 48.5776 4.52925 48.4877 4.7874C48.4016 5.04163 48.3586 5.31151 48.3586 5.59703ZM55.0868 5.90798V5.77304C55.0868 5.31542 55.1532 4.89105 55.2862 4.49992C55.4192 4.10488 55.6109 3.76264 55.8612 3.47321C56.1115 3.17986 56.4146 2.95301 56.7706 2.79265C57.1265 2.62838 57.5254 2.54624 57.9674 2.54624C58.4133 2.54624 58.8142 2.62838 59.1701 2.79265C59.53 2.95301 59.835 3.17986 60.0854 3.47321C60.3396 3.76264 60.5332 4.10488 60.6662 4.49992C60.7992 4.89105 60.8657 5.31542 60.8657 5.77304V5.90798C60.8657 6.3656 60.7992 6.78997 60.6662 7.1811C60.5332 7.57222 60.3396 7.91446 60.0854 8.20781C59.835 8.49724 59.5319 8.72409 59.176 8.88837C58.824 9.04873 58.425 9.12891 57.9791 9.12891C57.5333 9.12891 57.1323 9.04873 56.7764 8.88837C56.4205 8.72409 56.1154 8.49724 55.8612 8.20781C55.6109 7.91446 55.4192 7.57222 55.2862 7.1811C55.1532 6.78997 55.0868 6.3656 55.0868 5.90798ZM56.1721 5.77304V5.90798C56.1721 6.22479 56.2093 6.524 56.2836 6.80561C56.3579 7.08331 56.4694 7.32972 56.618 7.54484C56.7706 7.75996 56.9603 7.9301 57.1871 8.05527C57.414 8.17652 57.678 8.23714 57.9791 8.23714C58.2764 8.23714 58.5365 8.17652 58.7594 8.05527C58.9863 7.9301 59.174 7.75996 59.3227 7.54484C59.4713 7.32972 59.5828 7.08331 59.6571 6.80561C59.7353 6.524 59.7744 6.22479 59.7744 5.90798V5.77304C59.7744 5.46014 59.7353 5.16484 59.6571 4.88713C59.5828 4.60552 59.4693 4.35716 59.3168 4.14204C59.1682 3.92301 58.9804 3.75091 58.7536 3.62575C58.5306 3.50059 58.2686 3.43801 57.9674 3.43801C57.6701 3.43801 57.4081 3.50059 57.1812 3.62575C56.9583 3.75091 56.7706 3.92301 56.618 4.14204C56.4694 4.35716 56.3579 4.60552 56.2836 4.88713C56.2093 5.16484 56.1721 5.46014 56.1721 5.77304ZM63.4459 8.43661C63.4459 8.25278 63.5026 8.09829 63.6161 7.97313C63.7334 7.84406 63.9016 7.77952 64.1206 7.77952C64.3396 7.77952 64.5059 7.84406 64.6193 7.97313C64.7366 8.09829 64.7953 8.25278 64.7953 8.43661C64.7953 8.61653 64.7366 8.76907 64.6193 8.89423C64.5059 9.01939 64.3396 9.08197 64.1206 9.08197C63.9016 9.08197 63.7334 9.01939 63.6161 8.89423C63.5026 8.76907 63.4459 8.61653 63.4459 8.43661ZM67.7511 8.43661C67.7511 8.25278 67.8078 8.09829 67.9212 7.97313C68.0385 7.84406 68.2067 7.77952 68.4258 7.77952C68.6448 7.77952 68.811 7.84406 68.9244 7.97313C69.0418 8.09829 69.1005 8.25278 69.1005 8.43661C69.1005 8.61653 69.0418 8.76907 68.9244 8.89423C68.811 9.01939 68.6448 9.08197 68.4258 9.08197C68.2067 9.08197 68.0385 9.01939 67.9212 8.89423C67.8078 8.76907 67.7511 8.61653 67.7511 8.43661ZM67.7569 3.25613C67.7569 3.0723 67.8136 2.91781 67.9271 2.79265C68.0444 2.66358 68.2126 2.59904 68.4316 2.59904C68.6507 2.59904 68.8169 2.66358 68.9303 2.79265C69.0476 2.91781 69.1063 3.0723 69.1063 3.25613C69.1063 3.43605 69.0476 3.58859 68.9303 3.71375C68.8169 3.83891 68.6507 3.90149 68.4316 3.90149C68.2126 3.90149 68.0444 3.83891 67.9271 3.71375C67.8136 3.58859 67.7569 3.43605 67.7569 3.25613Z" fill="white"/>
<path d="M81.577 4.42952V5.45036H75.7218V4.42952H81.577ZM79.1951 1.93608V8.155H78.1097V1.93608H79.1951ZM85.0725 8.1022H85.184C85.8098 8.1022 86.3183 8.0142 86.7094 7.83819C87.1005 7.66218 87.4017 7.42555 87.6129 7.12829C87.8241 6.83104 87.9688 6.49662 88.047 6.12505C88.1253 5.74957 88.1644 5.36431 88.1644 4.96927V3.66095C88.1644 3.27374 88.1194 2.92954 88.0294 2.62838C87.9434 2.32721 87.8221 2.07493 87.6657 1.87154C87.5132 1.66816 87.3391 1.51366 87.1435 1.40806C86.948 1.30245 86.7407 1.24965 86.5216 1.24965C86.2713 1.24965 86.0464 1.3005 85.847 1.40219C85.6514 1.49997 85.4852 1.63882 85.3483 1.81874C85.2153 1.99866 85.1136 2.20987 85.0432 2.45237C84.9728 2.69487 84.9376 2.95888 84.9376 3.2444C84.9376 3.49863 84.9689 3.74504 85.0315 3.98363C85.094 4.22222 85.1899 4.43734 85.3189 4.62899C85.448 4.82064 85.6084 4.97318 85.8 5.08661C85.9956 5.19613 86.2244 5.25088 86.4864 5.25088C86.7289 5.25088 86.9558 5.20395 87.167 5.11008C87.3821 5.0123 87.5718 4.88127 87.7361 4.71699C87.9043 4.54881 88.0373 4.35911 88.135 4.1479C88.2367 3.9367 88.2954 3.71571 88.3111 3.48494H88.8273C88.8273 3.80958 88.7628 4.1303 88.6337 4.44712C88.5086 4.76002 88.3326 5.04554 88.1057 5.30369C87.8789 5.56183 87.6129 5.76913 87.3078 5.92558C87.0027 6.07812 86.6703 6.15439 86.3104 6.15439C85.888 6.15439 85.5223 6.07225 85.2133 5.90798C84.9043 5.7437 84.6501 5.52467 84.4506 5.25088C84.2551 4.97709 84.1084 4.67201 84.0106 4.33565C83.9167 3.99536 83.8698 3.65117 83.8698 3.30307C83.8698 2.8963 83.9265 2.51495 84.0399 2.15902C84.1534 1.8031 84.3216 1.49019 84.5445 1.22032C84.7674 0.946528 85.0432 0.733364 85.3717 0.580824C85.7042 0.428284 86.0875 0.352015 86.5216 0.352015C87.0106 0.352015 87.4271 0.449796 87.7713 0.64536C88.1155 0.840924 88.3951 1.10298 88.6103 1.43153C88.8293 1.76007 88.9897 2.12969 89.0914 2.54037C89.193 2.95106 89.2439 3.37347 89.2439 3.80762V4.20071C89.2439 4.64268 89.2146 5.09248 89.1559 5.5501C89.1011 6.0038 88.9936 6.43795 88.8332 6.85255C88.6768 7.26714 88.4479 7.63872 88.1468 7.96726C87.8456 8.2919 87.4525 8.55004 86.9675 8.74169C86.4864 8.92944 85.8919 9.02331 85.184 9.02331H85.0725V8.1022ZM95.5203 0.422417V9.01157H94.4349V1.77767L92.2466 2.57557V1.5958L95.3502 0.422417H95.5203ZM105.175 8.1022H105.286C105.912 8.1022 106.421 8.0142 106.812 7.83819C107.203 7.66218 107.504 7.42555 107.715 7.12829C107.926 6.83104 108.071 6.49662 108.149 6.12505C108.228 5.74957 108.267 5.36431 108.267 4.96927V3.66095C108.267 3.27374 108.222 2.92954 108.132 2.62838C108.046 2.32721 107.925 2.07493 107.768 1.87154C107.616 1.66816 107.441 1.51366 107.246 1.40806C107.05 1.30245 106.843 1.24965 106.624 1.24965C106.374 1.24965 106.149 1.3005 105.949 1.40219C105.754 1.49997 105.588 1.63882 105.451 1.81874C105.318 1.99866 105.216 2.20987 105.146 2.45237C105.075 2.69487 105.04 2.95888 105.04 3.2444C105.04 3.49863 105.071 3.74504 105.134 3.98363C105.196 4.22222 105.292 4.43734 105.421 4.62899C105.55 4.82064 105.711 4.97318 105.902 5.08661C106.098 5.19613 106.327 5.25088 106.589 5.25088C106.831 5.25088 107.058 5.20395 107.269 5.11008C107.485 5.0123 107.674 4.88127 107.838 4.71699C108.007 4.54881 108.14 4.35911 108.237 4.1479C108.339 3.9367 108.398 3.71571 108.413 3.48494H108.93C108.93 3.80958 108.865 4.1303 108.736 4.44712C108.611 4.76002 108.435 5.04554 108.208 5.30369C107.981 5.56183 107.715 5.76913 107.41 5.92558C107.105 6.07812 106.773 6.15439 106.413 6.15439C105.99 6.15439 105.625 6.07225 105.316 5.90798C105.007 5.7437 104.752 5.52467 104.553 5.25088C104.357 4.97709 104.211 4.67201 104.113 4.33565C104.019 3.99536 103.972 3.65117 103.972 3.30307C103.972 2.8963 104.029 2.51495 104.142 2.15902C104.256 1.8031 104.424 1.49019 104.647 1.22032C104.87 0.946528 105.146 0.733364 105.474 0.580824C105.807 0.428284 106.19 0.352015 106.624 0.352015C107.113 0.352015 107.529 0.449796 107.874 0.64536C108.218 0.840924 108.498 1.10298 108.713 1.43153C108.932 1.76007 109.092 2.12969 109.194 2.54037C109.295 2.95106 109.346 3.37347 109.346 3.80762V4.20071C109.346 4.64268 109.317 5.09248 109.258 5.5501C109.204 6.0038 109.096 6.43795 108.936 6.85255C108.779 7.26714 108.55 7.63872 108.249 7.96726C107.948 8.2919 107.555 8.55004 107.07 8.74169C106.589 8.92944 105.994 9.02331 105.286 9.02331H105.175V8.1022ZM117.441 6.70001C117.441 7.22021 117.32 7.66218 117.078 8.02593C116.839 8.38577 116.514 8.65956 116.104 8.8473C115.697 9.03504 115.237 9.12891 114.725 9.12891C114.213 9.12891 113.751 9.03504 113.34 8.8473C112.93 8.65956 112.605 8.38577 112.367 8.02593C112.128 7.66218 112.009 7.22021 112.009 6.70001C112.009 6.35973 112.073 6.04878 112.202 5.76717C112.335 5.48165 112.521 5.23328 112.76 5.02207C113.002 4.81087 113.288 4.64855 113.616 4.53512C113.949 4.41778 114.314 4.35911 114.713 4.35911C115.237 4.35911 115.705 4.46081 116.116 4.66419C116.526 4.86367 116.849 5.13941 117.084 5.49143C117.322 5.84344 117.441 6.2463 117.441 6.70001ZM116.35 6.67654C116.35 6.35973 116.282 6.08007 116.145 5.83757C116.008 5.59116 115.816 5.39951 115.57 5.26262C115.323 5.12572 115.038 5.05728 114.713 5.05728C114.381 5.05728 114.093 5.12572 113.851 5.26262C113.612 5.39951 113.427 5.59116 113.294 5.83757C113.161 6.08007 113.094 6.35973 113.094 6.67654C113.094 7.00509 113.159 7.2867 113.288 7.52138C113.421 7.75214 113.608 7.9301 113.851 8.05527C114.097 8.17652 114.389 8.23714 114.725 8.23714C115.061 8.23714 115.351 8.17652 115.593 8.05527C115.836 7.9301 116.022 7.75214 116.151 7.52138C116.284 7.2867 116.35 7.00509 116.35 6.67654ZM117.242 2.69291C117.242 3.10751 117.132 3.48103 116.913 3.81349C116.694 4.14595 116.395 4.408 116.016 4.59966C115.636 4.79131 115.206 4.88713 114.725 4.88713C114.236 4.88713 113.8 4.79131 113.417 4.59966C113.037 4.408 112.74 4.14595 112.525 3.81349C112.31 3.48103 112.202 3.10751 112.202 2.69291C112.202 2.19618 112.31 1.77376 112.525 1.42566C112.744 1.07756 113.043 0.811589 113.423 0.627759C113.802 0.443929 114.234 0.352015 114.719 0.352015C115.208 0.352015 115.642 0.443929 116.022 0.627759C116.401 0.811589 116.698 1.07756 116.913 1.42566C117.132 1.77376 117.242 2.19618 117.242 2.69291ZM116.157 2.71051C116.157 2.42499 116.096 2.17271 115.975 1.95368C115.853 1.73465 115.685 1.56255 115.47 1.43739C115.255 1.30832 115.005 1.24378 114.719 1.24378C114.434 1.24378 114.183 1.30441 113.968 1.42566C113.757 1.543 113.591 1.71118 113.47 1.93021C113.352 2.14924 113.294 2.40934 113.294 2.71051C113.294 3.00386 113.352 3.26005 113.47 3.47908C113.591 3.69811 113.759 3.86825 113.974 3.9895C114.189 4.11075 114.44 4.17137 114.725 4.17137C115.011 4.17137 115.259 4.11075 115.47 3.9895C115.685 3.86825 115.853 3.69811 115.975 3.47908C116.096 3.26005 116.157 3.00386 116.157 2.71051ZM125.613 8.1198V9.01157H120.022V8.23127L122.82 5.11594C123.164 4.73264 123.43 4.408 123.618 4.14204C123.81 3.87216 123.943 3.63162 124.017 3.42041C124.095 3.20529 124.134 2.98626 124.134 2.76331C124.134 2.4817 124.076 2.22747 123.958 2.00062C123.845 1.76985 123.677 1.58602 123.454 1.44913C123.231 1.31223 122.961 1.24378 122.644 1.24378C122.265 1.24378 121.948 1.3181 121.694 1.46673C121.443 1.61144 121.256 1.81483 121.131 2.07689C121.005 2.33894 120.943 2.64011 120.943 2.98039H119.857C119.857 2.4993 119.963 2.05928 120.174 1.66034C120.385 1.26139 120.698 0.944572 121.113 0.709896C121.528 0.471308 122.038 0.352015 122.644 0.352015C123.184 0.352015 123.645 0.447841 124.029 0.639493C124.412 0.827234 124.705 1.0932 124.909 1.43739C125.116 1.77767 125.22 2.17662 125.22 2.63424C125.22 2.88456 125.177 3.1388 125.091 3.39694C125.009 3.65117 124.893 3.90541 124.745 4.15964C124.6 4.41387 124.43 4.66419 124.234 4.9106C124.042 5.15701 123.837 5.39951 123.618 5.6381L121.33 8.1198H125.613ZM133.497 0.469353V1.07951L129.959 9.01157H128.815L132.347 1.36112H127.724V0.469353H133.497ZM137.52 4.20657H138.295C138.674 4.20657 138.987 4.14399 139.233 4.01883C139.484 3.88976 139.67 3.71571 139.791 3.49668C139.916 3.27374 139.979 3.02341 139.979 2.74571C139.979 2.41717 139.924 2.14142 139.814 1.91848C139.705 1.69554 139.541 1.52735 139.321 1.41392C139.102 1.3005 138.825 1.24378 138.488 1.24378C138.183 1.24378 137.913 1.30441 137.679 1.42566C137.448 1.543 137.266 1.71118 137.133 1.93021C137.004 2.14924 136.94 2.40739 136.94 2.70464H135.854C135.854 2.27049 135.964 1.87546 136.183 1.51953C136.402 1.1636 136.709 0.880036 137.104 0.668828C137.503 0.457619 137.964 0.352015 138.488 0.352015C139.005 0.352015 139.456 0.443929 139.844 0.627759C140.231 0.807678 140.532 1.07756 140.747 1.43739C140.962 1.79332 141.07 2.23725 141.07 2.76918C141.07 2.9843 141.019 3.21507 140.917 3.46148C140.819 3.70398 140.665 3.93083 140.454 4.14204C140.246 4.35325 139.977 4.5273 139.644 4.66419C139.312 4.79718 138.913 4.86367 138.447 4.86367H137.52V4.20657ZM137.52 5.09834V4.44712H138.447C138.991 4.44712 139.441 4.51165 139.797 4.64072C140.153 4.7698 140.432 4.94189 140.636 5.15701C140.843 5.37213 140.988 5.60876 141.07 5.86691C141.156 6.12114 141.199 6.37537 141.199 6.62961C141.199 7.02856 141.13 7.38253 140.994 7.69152C140.861 8.00051 140.671 8.26256 140.424 8.47768C140.182 8.6928 139.896 8.85512 139.568 8.96464C139.239 9.07415 138.881 9.12891 138.494 9.12891C138.123 9.12891 137.773 9.07611 137.444 8.9705C137.119 8.8649 136.832 8.71236 136.582 8.51288C136.331 8.3095 136.136 8.06113 135.995 7.76779C135.854 7.47053 135.784 7.13221 135.784 6.75281H136.869C136.869 7.05007 136.934 7.31017 137.063 7.53311C137.196 7.75605 137.383 7.9301 137.626 8.05527C137.872 8.17652 138.162 8.23714 138.494 8.23714C138.827 8.23714 139.112 8.18043 139.351 8.067C139.593 7.94966 139.779 7.77365 139.908 7.53898C140.041 7.3043 140.108 7.009 140.108 6.65307C140.108 6.29715 140.033 6.00576 139.885 5.77891C139.736 5.54814 139.525 5.378 139.251 5.26848C138.981 5.15506 138.662 5.09834 138.295 5.09834H137.52ZM148.062 0.457619H148.156V1.37872H148.062C147.487 1.37872 147.006 1.47259 146.619 1.66034C146.232 1.84416 145.924 2.09253 145.698 2.40543C145.471 2.71442 145.307 3.06253 145.205 3.44974C145.107 3.83696 145.058 4.23004 145.058 4.62899V5.88451C145.058 6.2639 145.103 6.60027 145.193 6.89362C145.283 7.18305 145.406 7.42751 145.563 7.62698C145.719 7.82646 145.895 7.97704 146.091 8.07873C146.29 8.18043 146.497 8.23127 146.713 8.23127C146.963 8.23127 147.186 8.18434 147.381 8.09047C147.577 7.99269 147.741 7.85775 147.874 7.68565C148.011 7.50964 148.115 7.30235 148.185 7.06376C148.256 6.82517 148.291 6.56312 148.291 6.27759C148.291 6.02336 148.26 5.77891 148.197 5.54423C148.134 5.30564 148.039 5.09443 147.909 4.9106C147.78 4.72286 147.618 4.57619 147.423 4.47058C147.231 4.36107 147.002 4.30631 146.736 4.30631C146.435 4.30631 146.153 4.38063 145.891 4.52925C145.633 4.67397 145.42 4.86562 145.252 5.10421C145.087 5.33889 144.994 5.59508 144.97 5.87278L144.395 5.86691C144.45 5.42885 144.552 5.05532 144.7 4.74633C144.853 4.43343 145.041 4.17919 145.263 3.98363C145.49 3.78416 145.743 3.63944 146.02 3.54948C146.302 3.45561 146.599 3.40867 146.912 3.40867C147.338 3.40867 147.706 3.48886 148.015 3.64922C148.324 3.80958 148.578 4.0247 148.778 4.29458C148.977 4.56054 149.124 4.86171 149.218 5.19808C149.316 5.53054 149.364 5.87278 149.364 6.22479C149.364 6.62765 149.308 7.00509 149.194 7.3571C149.081 7.70912 148.911 8.01811 148.684 8.28408C148.461 8.55004 148.185 8.75734 147.857 8.90597C147.528 9.0546 147.147 9.12891 146.713 9.12891C146.251 9.12891 145.848 9.03504 145.504 8.8473C145.16 8.65565 144.874 8.40141 144.647 8.0846C144.421 7.76779 144.25 7.41577 144.137 7.02856C144.024 6.64134 143.967 6.24826 143.967 5.84931V5.33889C143.967 4.73655 144.028 4.14595 144.149 3.56708C144.27 2.98821 144.479 2.4641 144.777 1.99475C145.078 1.5254 145.494 1.15187 146.026 0.874169C146.558 0.596469 147.237 0.457619 148.062 0.457619ZM157.243 6.70001C157.243 7.22021 157.121 7.66218 156.879 8.02593C156.64 8.38577 156.316 8.65956 155.905 8.8473C155.498 9.03504 155.039 9.12891 154.526 9.12891C154.014 9.12891 153.552 9.03504 153.142 8.8473C152.731 8.65956 152.406 8.38577 152.168 8.02593C151.929 7.66218 151.81 7.22021 151.81 6.70001C151.81 6.35973 151.874 6.04878 152.003 5.76717C152.136 5.48165 152.322 5.23328 152.561 5.02207C152.803 4.81087 153.089 4.64855 153.417 4.53512C153.75 4.41778 154.115 4.35911 154.514 4.35911C155.039 4.35911 155.506 4.46081 155.917 4.66419C156.327 4.86367 156.65 5.13941 156.885 5.49143C157.123 5.84344 157.243 6.2463 157.243 6.70001ZM156.151 6.67654C156.151 6.35973 156.083 6.08007 155.946 5.83757C155.809 5.59116 155.617 5.39951 155.371 5.26262C155.125 5.12572 154.839 5.05728 154.514 5.05728C154.182 5.05728 153.894 5.12572 153.652 5.26262C153.413 5.39951 153.228 5.59116 153.095 5.83757C152.962 6.08007 152.895 6.35973 152.895 6.67654C152.895 7.00509 152.96 7.2867 153.089 7.52138C153.222 7.75214 153.409 7.9301 153.652 8.05527C153.898 8.17652 154.19 8.23714 154.526 8.23714C154.863 8.23714 155.152 8.17652 155.394 8.05527C155.637 7.9301 155.823 7.75214 155.952 7.52138C156.085 7.2867 156.151 7.00509 156.151 6.67654ZM157.043 2.69291C157.043 3.10751 156.934 3.48103 156.715 3.81349C156.495 4.14595 156.196 4.408 155.817 4.59966C155.437 4.79131 155.007 4.88713 154.526 4.88713C154.037 4.88713 153.601 4.79131 153.218 4.59966C152.838 4.408 152.541 4.14595 152.326 3.81349C152.111 3.48103 152.003 3.10751 152.003 2.69291C152.003 2.19618 152.111 1.77376 152.326 1.42566C152.545 1.07756 152.844 0.811589 153.224 0.627759C153.603 0.443929 154.035 0.352015 154.52 0.352015C155.009 0.352015 155.443 0.443929 155.823 0.627759C156.202 0.811589 156.499 1.07756 156.715 1.42566C156.934 1.77376 157.043 2.19618 157.043 2.69291ZM155.958 2.71051C155.958 2.42499 155.897 2.17271 155.776 1.95368C155.655 1.73465 155.486 1.56255 155.271 1.43739C155.056 1.30832 154.806 1.24378 154.52 1.24378C154.235 1.24378 153.984 1.30441 153.769 1.42566C153.558 1.543 153.392 1.71118 153.271 1.93021C153.153 2.14924 153.095 2.40934 153.095 2.71051C153.095 3.00386 153.153 3.26005 153.271 3.47908C153.392 3.69811 153.56 3.86825 153.775 3.9895C153.99 4.11075 154.241 4.17137 154.526 4.17137C154.812 4.17137 155.06 4.11075 155.271 3.9895C155.486 3.86825 155.655 3.69811 155.776 3.47908C155.897 3.26005 155.958 3.00386 155.958 2.71051ZM161.401 4.20657H162.175C162.555 4.20657 162.868 4.14399 163.114 4.01883C163.364 3.88976 163.55 3.71571 163.672 3.49668C163.797 3.27374 163.859 3.02341 163.859 2.74571C163.859 2.41717 163.804 2.14142 163.695 1.91848C163.585 1.69554 163.421 1.52735 163.202 1.41392C162.983 1.3005 162.705 1.24378 162.369 1.24378C162.064 1.24378 161.794 1.30441 161.559 1.42566C161.329 1.543 161.147 1.71118 161.014 1.93021C160.885 2.14924 160.82 2.40739 160.82 2.70464H159.735C159.735 2.27049 159.844 1.87546 160.063 1.51953C160.282 1.1636 160.589 0.880036 160.984 0.668828C161.383 0.457619 161.845 0.352015 162.369 0.352015C162.885 0.352015 163.337 0.443929 163.724 0.627759C164.112 0.807678 164.413 1.07756 164.628 1.43739C164.843 1.79332 164.95 2.23725 164.95 2.76918C164.95 2.9843 164.9 3.21507 164.798 3.46148C164.7 3.70398 164.546 3.93083 164.334 4.14204C164.127 4.35325 163.857 4.5273 163.525 4.66419C163.192 4.79718 162.793 4.86367 162.328 4.86367H161.401V4.20657ZM161.401 5.09834V4.44712H162.328C162.872 4.44712 163.321 4.51165 163.677 4.64072C164.033 4.7698 164.313 4.94189 164.516 5.15701C164.724 5.37213 164.868 5.60876 164.95 5.86691C165.037 6.12114 165.08 6.37537 165.08 6.62961C165.08 7.02856 165.011 7.38253 164.874 7.69152C164.741 8.00051 164.552 8.26256 164.305 8.47768C164.063 8.6928 163.777 8.85512 163.449 8.96464C163.12 9.07415 162.762 9.12891 162.375 9.12891C162.003 9.12891 161.653 9.07611 161.325 8.9705C161 8.8649 160.713 8.71236 160.462 8.51288C160.212 8.3095 160.016 8.06113 159.876 7.76779C159.735 7.47053 159.664 7.13221 159.664 6.75281H160.75C160.75 7.05007 160.814 7.31017 160.943 7.53311C161.076 7.75605 161.264 7.9301 161.507 8.05527C161.753 8.17652 162.042 8.23714 162.375 8.23714C162.707 8.23714 162.993 8.18043 163.231 8.067C163.474 7.94966 163.66 7.77365 163.789 7.53898C163.922 7.3043 163.988 7.009 163.988 6.65307C163.988 6.29715 163.914 6.00576 163.765 5.77891C163.617 5.54814 163.406 5.378 163.132 5.26848C162.862 5.15506 162.543 5.09834 162.175 5.09834H161.401ZM171.943 0.457619H172.037V1.37872H171.943C171.368 1.37872 170.887 1.47259 170.499 1.66034C170.112 1.84416 169.805 2.09253 169.578 2.40543C169.351 2.71442 169.187 3.06253 169.085 3.44974C168.988 3.83696 168.939 4.23004 168.939 4.62899V5.88451C168.939 6.2639 168.984 6.60027 169.074 6.89362C169.164 7.18305 169.287 7.42751 169.443 7.62698C169.6 7.82646 169.776 7.97704 169.971 8.07873C170.171 8.18043 170.378 8.23127 170.593 8.23127C170.844 8.23127 171.067 8.18434 171.262 8.09047C171.458 7.99269 171.622 7.85775 171.755 7.68565C171.892 7.50964 171.995 7.30235 172.066 7.06376C172.136 6.82517 172.171 6.56312 172.171 6.27759C172.171 6.02336 172.14 5.77891 172.078 5.54423C172.015 5.30564 171.919 5.09443 171.79 4.9106C171.661 4.72286 171.499 4.57619 171.303 4.47058C171.112 4.36107 170.883 4.30631 170.617 4.30631C170.316 4.30631 170.034 4.38063 169.772 4.52925C169.514 4.67397 169.301 4.86562 169.132 5.10421C168.968 5.33889 168.874 5.59508 168.851 5.87278L168.276 5.86691C168.331 5.42885 168.432 5.05532 168.581 4.74633C168.733 4.43343 168.921 4.17919 169.144 3.98363C169.371 3.78416 169.623 3.63944 169.901 3.54948C170.183 3.45561 170.48 3.40867 170.793 3.40867C171.219 3.40867 171.587 3.48886 171.896 3.64922C172.205 3.80958 172.459 4.0247 172.658 4.29458C172.858 4.56054 173.005 4.86171 173.098 5.19808C173.196 5.53054 173.245 5.87278 173.245 6.22479C173.245 6.62765 173.188 7.00509 173.075 7.3571C172.962 7.70912 172.791 8.01811 172.565 8.28408C172.342 8.55004 172.066 8.75734 171.737 8.90597C171.409 9.0546 171.027 9.12891 170.593 9.12891C170.132 9.12891 169.729 9.03504 169.385 8.8473C169.041 8.65565 168.755 8.40141 168.528 8.0846C168.301 7.76779 168.131 7.41577 168.018 7.02856C167.904 6.64134 167.848 6.24826 167.848 5.84931V5.33889C167.848 4.73655 167.908 4.14595 168.029 3.56708C168.151 2.98821 168.36 2.4641 168.657 1.99475C168.958 1.5254 169.375 1.15187 169.907 0.874169C170.439 0.596469 171.117 0.457619 171.943 0.457619ZM177.321 4.20657H178.096C178.475 4.20657 178.788 4.14399 179.035 4.01883C179.285 3.88976 179.471 3.71571 179.592 3.49668C179.717 3.27374 179.78 3.02341 179.78 2.74571C179.78 2.41717 179.725 2.14142 179.615 1.91848C179.506 1.69554 179.342 1.52735 179.123 1.41392C178.904 1.3005 178.626 1.24378 178.289 1.24378C177.984 1.24378 177.715 1.30441 177.48 1.42566C177.249 1.543 177.067 1.71118 176.934 1.93021C176.805 2.14924 176.741 2.40739 176.741 2.70464H175.655C175.655 2.27049 175.765 1.87546 175.984 1.51953C176.203 1.1636 176.51 0.880036 176.905 0.668828C177.304 0.457619 177.765 0.352015 178.289 0.352015C178.806 0.352015 179.258 0.443929 179.645 0.627759C180.032 0.807678 180.333 1.07756 180.548 1.43739C180.763 1.79332 180.871 2.23725 180.871 2.76918C180.871 2.9843 180.82 3.21507 180.718 3.46148C180.621 3.70398 180.466 3.93083 180.255 4.14204C180.048 4.35325 179.778 4.5273 179.445 4.66419C179.113 4.79718 178.714 4.86367 178.248 4.86367H177.321V4.20657ZM177.321 5.09834V4.44712H178.248C178.792 4.44712 179.242 4.51165 179.598 4.64072C179.954 4.7698 180.233 4.94189 180.437 5.15701C180.644 5.37213 180.789 5.60876 180.871 5.86691C180.957 6.12114 181 6.37537 181 6.62961C181 7.02856 180.932 7.38253 180.795 7.69152C180.662 8.00051 180.472 8.26256 180.226 8.47768C179.983 8.6928 179.698 8.85512 179.369 8.96464C179.04 9.07415 178.683 9.12891 178.295 9.12891C177.924 9.12891 177.574 9.07611 177.245 8.9705C176.921 8.8649 176.633 8.71236 176.383 8.51288C176.132 8.3095 175.937 8.06113 175.796 7.76779C175.655 7.47053 175.585 7.13221 175.585 6.75281H176.67C176.67 7.05007 176.735 7.31017 176.864 7.53311C176.997 7.75605 177.185 7.9301 177.427 8.05527C177.673 8.17652 177.963 8.23714 178.295 8.23714C178.628 8.23714 178.913 8.18043 179.152 8.067C179.394 7.94966 179.58 7.77365 179.709 7.53898C179.842 7.3043 179.909 7.009 179.909 6.65307C179.909 6.29715 179.834 6.00576 179.686 5.77891C179.537 5.54814 179.326 5.378 179.052 5.26848C178.782 5.15506 178.464 5.09834 178.096 5.09834H177.321Z" fill="#E0E0E0"/>
</svg>
