<svg width="249" height="48" viewBox="0 0 249 48" fill="none" xmlns="http://www.w3.org/2000/svg">
<path d="M6.88814 4.60582V5.14699C6.88814 5.79011 6.80775 6.36658 6.64696 6.87637C6.48618 7.38617 6.25481 7.8195 5.95286 8.17635C5.6509 8.53321 5.28816 8.80576 4.86464 8.99399C4.44503 9.18222 3.97445 9.27634 3.45289 9.27634C2.94702 9.27634 2.48232 9.18222 2.05879 8.99399C1.63919 8.80576 1.27449 8.53321 0.964692 8.17635C0.658814 7.8195 0.421563 7.38617 0.252938 6.87637C0.0843125 6.36658 0 5.79011 0 5.14699V4.60582C0 3.96269 0.0823518 3.38819 0.247055 2.88231C0.41568 2.37252 0.652932 1.93919 0.95881 1.58233C1.26469 1.22155 1.62743 0.947045 2.04703 0.758813C2.47055 0.57058 2.93525 0.476464 3.44113 0.476464C3.96269 0.476464 4.43327 0.57058 4.85287 0.758813C5.2764 0.947045 5.63914 1.22155 5.94109 1.58233C6.24697 1.93919 6.4803 2.37252 6.64108 2.88231C6.80579 3.38819 6.88814 3.96269 6.88814 4.60582ZM5.76462 5.14699V4.59405C5.76462 4.08426 5.71168 3.63328 5.6058 3.24113C5.50384 2.84898 5.35286 2.51957 5.15287 2.25291C4.95287 1.98625 4.70778 1.78429 4.41758 1.64704C4.13131 1.50978 3.80583 1.44116 3.44113 1.44116C3.08819 1.44116 2.76859 1.50978 2.48232 1.64704C2.19997 1.78429 1.95683 1.98625 1.75292 2.25291C1.55292 2.51957 1.39802 2.84898 1.28822 3.24113C1.17841 3.63328 1.12351 4.08426 1.12351 4.59405V5.14699C1.12351 5.6607 1.17841 6.1156 1.28822 6.51167C1.39802 6.90382 1.55488 7.23519 1.7588 7.50578C1.96664 7.77244 2.21173 7.9744 2.49408 8.11165C2.78035 8.2489 3.09996 8.31753 3.45289 8.31753C3.82151 8.31753 4.14896 8.2489 4.43523 8.11165C4.7215 7.9744 4.96267 7.77244 5.15875 7.50578C5.35875 7.23519 5.50973 6.90382 5.61168 6.51167C5.71364 6.1156 5.76462 5.6607 5.76462 5.14699ZM11.2516 9.15869H10.1634V2.1235C10.1634 1.66468 10.2457 1.27841 10.4104 0.964692C10.5791 0.64705 10.8202 0.407837 11.134 0.247055C11.4477 0.0823518 11.8202 0 12.2516 0C12.3771 0 12.5026 0.00784303 12.6281 0.0235291C12.7575 0.0392151 12.883 0.0627442 13.0045 0.0941163L12.9457 0.982339C12.8633 0.962731 12.7692 0.949006 12.6633 0.941163C12.5614 0.93332 12.4594 0.929398 12.3575 0.929398C12.1261 0.929398 11.9261 0.976457 11.7575 1.07057C11.5928 1.16077 11.4673 1.2941 11.381 1.47057C11.2947 1.64704 11.2516 1.86468 11.2516 2.1235V9.15869ZM12.6633 2.79408V3.62936H9.15752V2.79408H12.6633ZM14.6927 9.15869H13.6045V2.24114C13.6045 1.7588 13.6967 1.35096 13.881 1.01763C14.0692 0.684304 14.3378 0.431366 14.6868 0.25882C15.0359 0.0862733 15.4496 0 15.928 0C16.2143 0 16.4927 0.0352936 16.7633 0.105881C17.0339 0.172547 17.3123 0.256859 17.5986 0.358818L17.4103 1.27645C17.2339 1.20587 17.026 1.1392 16.7868 1.07646C16.5476 1.00979 16.2888 0.976457 16.0104 0.976457C15.5437 0.976457 15.2064 1.08234 14.9986 1.2941C14.7947 1.50194 14.6927 1.81762 14.6927 2.24114V9.15869ZM15.9927 2.79408V3.62936H12.5986V2.79408H15.9927ZM18.1339 2.79408V9.15869H17.0456V2.79408H18.1339ZM23.662 8.38223C23.9208 8.38223 24.16 8.32929 24.3797 8.22341C24.5993 8.11753 24.7796 7.97244 24.9208 7.78812C25.062 7.59989 25.1424 7.38617 25.162 7.14696H26.1973C26.1777 7.52342 26.0502 7.8744 25.8149 8.19988C25.5836 8.52145 25.2796 8.78223 24.9032 8.98222C24.5267 9.1783 24.113 9.27634 23.662 9.27634C23.1836 9.27634 22.7659 9.19203 22.4091 9.0234C22.0562 8.85478 21.762 8.62341 21.5268 8.32929C21.2954 8.03518 21.1209 7.69793 21.0032 7.31754C20.8895 6.93323 20.8326 6.52736 20.8326 6.09991V5.85286C20.8326 5.42541 20.8895 5.0215 21.0032 4.64111C21.1209 4.2568 21.2954 3.91759 21.5268 3.62348C21.762 3.32936 22.0562 3.09799 22.4091 2.92937C22.7659 2.76074 23.1836 2.67643 23.662 2.67643C24.16 2.67643 24.5953 2.77839 24.9679 2.98231C25.3404 3.18231 25.6326 3.45681 25.8443 3.80583C26.06 4.15092 26.1777 4.54307 26.1973 4.98228H25.162C25.1424 4.71954 25.0679 4.48229 24.9385 4.27053C24.813 4.05877 24.6404 3.89014 24.4208 3.76465C24.2051 3.63524 23.9522 3.57054 23.662 3.57054C23.3287 3.57054 23.0483 3.6372 22.8209 3.77053C22.5973 3.89994 22.4189 4.07641 22.2856 4.29994C22.1562 4.51954 22.062 4.76464 22.0032 5.03522C21.9483 5.30189 21.9209 5.57443 21.9209 5.85286V6.09991C21.9209 6.37834 21.9483 6.65285 22.0032 6.92343C22.0581 7.19401 22.1503 7.43911 22.2797 7.65871C22.413 7.87832 22.5914 8.05479 22.815 8.18812C23.0424 8.31753 23.3248 8.38223 23.662 8.38223ZM31.2666 9.27634C30.8235 9.27634 30.4215 9.20183 30.0607 9.05281C29.7039 8.89987 29.3961 8.68615 29.1372 8.41164C28.8823 8.13714 28.6863 7.81165 28.549 7.43519C28.4118 7.05872 28.3431 6.64696 28.3431 6.19991V5.95286C28.3431 5.43522 28.4196 4.97444 28.5725 4.57052C28.7255 4.16269 28.9333 3.81759 29.1961 3.53524C29.4588 3.25289 29.7568 3.03917 30.0902 2.89408C30.4235 2.74898 30.7686 2.67643 31.1254 2.67643C31.5803 2.67643 31.9725 2.75486 32.3019 2.91172C32.6352 3.06858 32.9078 3.28819 33.1195 3.57054C33.3313 3.84896 33.4881 4.17837 33.5901 4.55876C33.6921 4.93522 33.743 5.34698 33.743 5.79403V6.28226H28.9902V5.39404H32.6548V5.31169C32.6391 5.02934 32.5803 4.75483 32.4784 4.48817C32.3803 4.22151 32.2235 4.0019 32.0078 3.82936C31.7921 3.65681 31.498 3.57054 31.1254 3.57054C30.8784 3.57054 30.6509 3.62348 30.4431 3.72936C30.2353 3.83132 30.0568 3.98426 29.9078 4.18818C29.7588 4.39209 29.6431 4.64111 29.5608 4.93522C29.4784 5.22934 29.4372 5.56855 29.4372 5.95286V6.19991C29.4372 6.50187 29.4784 6.78618 29.5608 7.05284C29.647 7.31558 29.7706 7.54695 29.9313 7.74695C30.096 7.94695 30.2941 8.10381 30.5254 8.21753C30.7607 8.33125 31.0274 8.38812 31.3254 8.38812C31.7097 8.38812 32.0352 8.30969 32.3019 8.15282C32.5686 7.99596 32.8019 7.78616 33.0019 7.52342L33.6607 8.04694C33.5234 8.25478 33.3489 8.45282 33.1372 8.64105C32.9254 8.82929 32.6646 8.98222 32.3548 9.09987C32.049 9.21752 31.6862 9.27634 31.2666 9.27634ZM44.1641 8.07047V4.79405C44.1641 4.54307 44.1131 4.32543 44.0111 4.14112C43.9131 3.95288 43.7641 3.80779 43.5641 3.70583C43.3641 3.60387 43.117 3.55289 42.8229 3.55289C42.5484 3.55289 42.3072 3.59995 42.0994 3.69406C41.8955 3.78818 41.7347 3.91171 41.6171 4.06465C41.5033 4.21759 41.4465 4.38229 41.4465 4.55876H40.3582C40.3582 4.33131 40.4171 4.10582 40.5347 3.8823C40.6524 3.65877 40.821 3.45681 41.0406 3.27642C41.2641 3.09211 41.5308 2.94702 41.8406 2.84114C42.1543 2.73133 42.5033 2.67643 42.8876 2.67643C43.3504 2.67643 43.7582 2.75486 44.1111 2.91172C44.468 3.06858 44.7464 3.30584 44.9464 3.62348C45.1503 3.9372 45.2523 4.33131 45.2523 4.80581V7.77048C45.2523 7.98224 45.2699 8.20773 45.3052 8.44694C45.3445 8.68615 45.4013 8.89203 45.4758 9.06458V9.15869H44.3405C44.2856 9.0332 44.2425 8.86654 44.2111 8.6587C44.1798 8.44694 44.1641 8.25086 44.1641 8.07047ZM44.3523 5.29992L44.3641 6.06462H43.2641C42.9543 6.06462 42.6778 6.09011 42.4347 6.14109C42.1916 6.18815 41.9876 6.26069 41.8229 6.35873C41.6582 6.45677 41.5327 6.5803 41.4465 6.72932C41.3602 6.87441 41.3171 7.045 41.3171 7.24107C41.3171 7.44107 41.3622 7.62342 41.4523 7.78812C41.5425 7.95283 41.6778 8.0842 41.8582 8.18224C42.0425 8.27635 42.268 8.32341 42.5347 8.32341C42.868 8.32341 43.1621 8.25282 43.417 8.11165C43.6719 7.97047 43.8739 7.79793 44.0229 7.59401C44.1758 7.39009 44.2582 7.19205 44.27 6.9999L44.7347 7.52342C44.7072 7.68813 44.6327 7.87048 44.5111 8.07047C44.3896 8.27047 44.2268 8.46262 44.0229 8.64694C43.8229 8.82732 43.5837 8.9783 43.3053 9.09987C43.0308 9.21752 42.721 9.27634 42.3759 9.27634C41.9445 9.27634 41.5661 9.19203 41.2406 9.0234C40.919 8.85478 40.668 8.62929 40.4877 8.34694C40.3112 8.06067 40.223 7.74107 40.223 7.38813C40.223 7.04696 40.2896 6.74696 40.423 6.48814C40.5563 6.2254 40.7484 6.00776 40.9994 5.83521C41.2504 5.65874 41.5523 5.52541 41.9053 5.43522C42.2582 5.34502 42.6523 5.29992 43.0876 5.29992H44.3523ZM52.1804 7.92342V0.123528H53.2745V9.15869H52.2745L52.1804 7.92342ZM47.8981 6.04697V5.92344C47.8981 5.43718 47.957 4.99601 48.0746 4.59993C48.1962 4.19994 48.3668 3.85681 48.5864 3.57054C48.8099 3.28427 49.0746 3.06466 49.3805 2.91172C49.6903 2.75486 50.0354 2.67643 50.4158 2.67643C50.8157 2.67643 51.1648 2.74702 51.4628 2.88819C51.7648 3.02545 52.0197 3.2274 52.2275 3.49407C52.4393 3.75681 52.6059 4.07445 52.7275 4.447C52.8491 4.81954 52.9334 5.2411 52.9804 5.71168V6.25285C52.9373 6.71951 52.853 7.13911 52.7275 7.51166C52.6059 7.8842 52.4393 8.20184 52.2275 8.46459C52.0197 8.72733 51.7648 8.92928 51.4628 9.07046C51.1608 9.20771 50.8079 9.27634 50.404 9.27634C50.0314 9.27634 49.6903 9.19595 49.3805 9.03517C49.0746 8.87438 48.8099 8.6489 48.5864 8.3587C48.3668 8.06851 48.1962 7.72734 48.0746 7.33519C47.957 6.93912 47.8981 6.50971 47.8981 6.04697ZM48.9922 5.92344V6.04697C48.9922 6.36462 49.0236 6.66265 49.0864 6.94108C49.153 7.2195 49.255 7.4646 49.3922 7.67636C49.5295 7.88812 49.704 8.05479 49.9158 8.17635C50.1275 8.294 50.3805 8.35282 50.6746 8.35282C51.0354 8.35282 51.3314 8.27635 51.5628 8.12341C51.7981 7.97047 51.9863 7.76852 52.1275 7.51754C52.2687 7.26656 52.3785 6.99402 52.4569 6.6999V5.28228C52.4098 5.06659 52.3412 4.85875 52.251 4.65876C52.1647 4.45484 52.051 4.27445 51.9098 4.11759C51.7726 3.95681 51.602 3.82936 51.3981 3.73524C51.1981 3.64112 50.9608 3.59407 50.6863 3.59407C50.3883 3.59407 50.1314 3.65681 49.9158 3.7823C49.704 3.90387 49.5295 4.07249 49.3922 4.28817C49.255 4.49994 49.153 4.74699 49.0864 5.02934C49.0236 5.30777 48.9922 5.6058 48.9922 5.92344ZM60.185 7.92342V0.123528H61.2791V9.15869H60.2791L60.185 7.92342ZM55.9027 6.04697V5.92344C55.9027 5.43718 55.9616 4.99601 56.0792 4.59993C56.2008 4.19994 56.3714 3.85681 56.591 3.57054C56.8145 3.28427 57.0792 3.06466 57.3851 2.91172C57.6949 2.75486 58.04 2.67643 58.4203 2.67643C58.8203 2.67643 59.1694 2.74702 59.4674 2.88819C59.7693 3.02545 60.0242 3.2274 60.2321 3.49407C60.4438 3.75681 60.6105 4.07445 60.7321 4.447C60.8536 4.81954 60.938 5.2411 60.985 5.71168V6.25285C60.9419 6.71951 60.8576 7.13911 60.7321 7.51166C60.6105 7.8842 60.4438 8.20184 60.2321 8.46459C60.0242 8.72733 59.7693 8.92928 59.4674 9.07046C59.1654 9.20771 58.8125 9.27634 58.4086 9.27634C58.036 9.27634 57.6949 9.19595 57.3851 9.03517C57.0792 8.87438 56.8145 8.6489 56.591 8.3587C56.3714 8.06851 56.2008 7.72734 56.0792 7.33519C55.9616 6.93912 55.9027 6.50971 55.9027 6.04697ZM56.9968 5.92344V6.04697C56.9968 6.36462 57.0282 6.66265 57.091 6.94108C57.1576 7.2195 57.2596 7.4646 57.3968 7.67636C57.5341 7.88812 57.7086 8.05479 57.9204 8.17635C58.1321 8.294 58.3851 8.35282 58.6792 8.35282C59.0399 8.35282 59.336 8.27635 59.5674 8.12341C59.8027 7.97047 59.9909 7.76852 60.1321 7.51754C60.2733 7.26656 60.3831 6.99402 60.4615 6.6999V5.28228C60.4144 5.06659 60.3458 4.85875 60.2556 4.65876C60.1693 4.45484 60.0556 4.27445 59.9144 4.11759C59.7772 3.95681 59.6066 3.82936 59.4027 3.73524C59.2027 3.64112 58.9654 3.59407 58.6909 3.59407C58.3929 3.59407 58.136 3.65681 57.9204 3.7823C57.7086 3.90387 57.5341 4.07249 57.3968 4.28817C57.2596 4.49994 57.1576 4.74699 57.091 5.02934C57.0282 5.30777 56.9968 5.6058 56.9968 5.92344ZM65.2661 3.79406V9.15869H64.1779V2.79408H65.2367L65.2661 3.79406ZM67.2543 2.75878L67.2485 3.77053C67.1583 3.75093 67.072 3.73916 66.9896 3.73524C66.9112 3.7274 66.821 3.72348 66.719 3.72348C66.4681 3.72348 66.2465 3.76269 66.0543 3.84112C65.8622 3.91955 65.6995 4.02935 65.5661 4.17053C65.4328 4.3117 65.3269 4.48033 65.2485 4.6764C65.174 4.86856 65.125 5.08032 65.1014 5.31169L64.7955 5.48816C64.7955 5.10385 64.8328 4.74307 64.9073 4.40582C64.9857 4.06857 65.1053 3.77053 65.2661 3.51171C65.4269 3.24897 65.6308 3.04505 65.8779 2.89996C66.1289 2.75094 66.4269 2.67643 66.772 2.67643C66.8504 2.67643 66.9406 2.68624 67.0426 2.70584C67.1445 2.72153 67.2151 2.73918 67.2543 2.75878ZM71.9884 9.27634C71.5453 9.27634 71.1433 9.20183 70.7825 9.05281C70.4257 8.89987 70.1178 8.68615 69.859 8.41164C69.6041 8.13714 69.408 7.81165 69.2708 7.43519C69.1335 7.05872 69.0649 6.64696 69.0649 6.19991V5.95286C69.0649 5.43522 69.1414 4.97444 69.2943 4.57052C69.4472 4.16269 69.6551 3.81759 69.9178 3.53524C70.1806 3.25289 70.4786 3.03917 70.8119 2.89408C71.1453 2.74898 71.4904 2.67643 71.8472 2.67643C72.3021 2.67643 72.6943 2.75486 73.0237 2.91172C73.357 3.06858 73.6295 3.28819 73.8413 3.57054C74.0531 3.84896 74.2099 4.17837 74.3119 4.55876C74.4138 4.93522 74.4648 5.34698 74.4648 5.79403V6.28226H69.7119V5.39404H73.3766V5.31169C73.3609 5.02934 73.3021 4.75483 73.2001 4.48817C73.1021 4.22151 72.9452 4.0019 72.7296 3.82936C72.5139 3.65681 72.2198 3.57054 71.8472 3.57054C71.6002 3.57054 71.3727 3.62348 71.1649 3.72936C70.957 3.83132 70.7786 3.98426 70.6296 4.18818C70.4806 4.39209 70.3649 4.64111 70.2825 4.93522C70.2002 5.22934 70.159 5.56855 70.159 5.95286V6.19991C70.159 6.50187 70.2002 6.78618 70.2825 7.05284C70.3688 7.31558 70.4923 7.54695 70.6531 7.74695C70.8178 7.94695 71.0159 8.10381 71.2472 8.21753C71.4825 8.33125 71.7492 8.38812 72.0472 8.38812C72.4315 8.38812 72.757 8.30969 73.0237 8.15282C73.2903 7.99596 73.5237 7.78616 73.7237 7.52342L74.3825 8.04694C74.2452 8.25478 74.0707 8.45282 73.8589 8.64105C73.6472 8.82929 73.3864 8.98222 73.0766 9.09987C72.7707 9.21752 72.408 9.27634 71.9884 9.27634ZM80.6459 7.47048C80.6459 7.31362 80.6106 7.16853 80.54 7.03519C80.4734 6.89794 80.3341 6.77441 80.1224 6.66461C79.9145 6.55089 79.6008 6.45285 79.1812 6.3705C78.8283 6.29599 78.5087 6.20775 78.2224 6.1058C77.9401 6.00384 77.6989 5.88031 77.4989 5.73521C77.3028 5.59012 77.1518 5.41953 77.046 5.22345C76.9401 5.02738 76.8871 4.79797 76.8871 4.53523C76.8871 4.28425 76.942 4.047 77.0518 3.82347C77.1656 3.59995 77.3244 3.40191 77.5283 3.22937C77.7361 3.05682 77.9852 2.92153 78.2754 2.82349C78.5655 2.72545 78.8891 2.67643 79.2459 2.67643C79.7557 2.67643 80.191 2.76663 80.5518 2.94702C80.9126 3.12741 81.189 3.36858 81.3812 3.67054C81.5733 3.96857 81.6694 4.29994 81.6694 4.66464H80.5812C80.5812 4.48817 80.5283 4.31759 80.4224 4.15288C80.3204 3.98426 80.1694 3.84504 79.9694 3.73524C79.7734 3.62544 79.5322 3.57054 79.2459 3.57054C78.944 3.57054 78.6989 3.6176 78.5106 3.71171C78.3263 3.80191 78.191 3.91759 78.1048 4.05877C78.0224 4.19994 77.9812 4.34896 77.9812 4.50582C77.9812 4.62346 78.0008 4.72934 78.0401 4.82346C78.0832 4.91366 78.1577 4.99797 78.2636 5.0764C78.3695 5.15091 78.5185 5.22149 78.7106 5.28816C78.9028 5.35483 79.1479 5.42149 79.4459 5.48816C79.9675 5.6058 80.3969 5.74698 80.7341 5.91168C81.0714 6.07638 81.3224 6.27834 81.4871 6.51755C81.6518 6.75677 81.7341 7.04696 81.7341 7.38813C81.7341 7.66656 81.6753 7.92146 81.5577 8.15282C81.4439 8.38419 81.2773 8.58419 81.0577 8.75282C80.842 8.91752 80.5832 9.04693 80.2812 9.14105C79.9832 9.23124 79.6479 9.27634 79.2753 9.27634C78.7146 9.27634 78.2401 9.17634 77.8518 8.97634C77.4636 8.77635 77.1695 8.51753 76.9695 8.19988C76.7695 7.88224 76.6695 7.54695 76.6695 7.19401H77.7636C77.7793 7.49205 77.8656 7.7293 78.0224 7.90577C78.1793 8.07832 78.3714 8.20184 78.5989 8.27635C78.8263 8.34694 79.0518 8.38223 79.2753 8.38223C79.5734 8.38223 79.8224 8.34302 80.0224 8.26459C80.2263 8.18616 80.3812 8.07832 80.4871 7.94106C80.593 7.80381 80.6459 7.64695 80.6459 7.47048ZM88.074 7.47048C88.074 7.31362 88.0387 7.16853 87.9682 7.03519C87.9015 6.89794 87.7623 6.77441 87.5505 6.66461C87.3427 6.55089 87.029 6.45285 86.6093 6.3705C86.2564 6.29599 85.9368 6.20775 85.6505 6.1058C85.3682 6.00384 85.127 5.88031 84.927 5.73521C84.7309 5.59012 84.58 5.41953 84.4741 5.22345C84.3682 5.02738 84.3153 4.79797 84.3153 4.53523C84.3153 4.28425 84.3702 4.047 84.48 3.82347C84.5937 3.59995 84.7525 3.40191 84.9564 3.22937C85.1643 3.05682 85.4133 2.92153 85.7035 2.82349C85.9937 2.72545 86.3172 2.67643 86.6741 2.67643C87.1839 2.67643 87.6191 2.76663 87.9799 2.94702C88.3407 3.12741 88.6172 3.36858 88.8093 3.67054C89.0015 3.96857 89.0975 4.29994 89.0975 4.66464H88.0093C88.0093 4.48817 87.9564 4.31759 87.8505 4.15288C87.7485 3.98426 87.5976 3.84504 87.3976 3.73524C87.2015 3.62544 86.9603 3.57054 86.6741 3.57054C86.3721 3.57054 86.127 3.6176 85.9388 3.71171C85.7545 3.80191 85.6192 3.91759 85.5329 4.05877C85.4505 4.19994 85.4094 4.34896 85.4094 4.50582C85.4094 4.62346 85.429 4.72934 85.4682 4.82346C85.5113 4.91366 85.5858 4.99797 85.6917 5.0764C85.7976 5.15091 85.9466 5.22149 86.1388 5.28816C86.3309 5.35483 86.576 5.42149 86.8741 5.48816C87.3956 5.6058 87.825 5.74698 88.1623 5.91168C88.4995 6.07638 88.7505 6.27834 88.9152 6.51755C89.0799 6.75677 89.1623 7.04696 89.1623 7.38813C89.1623 7.66656 89.1034 7.92146 88.9858 8.15282C88.8721 8.38419 88.7054 8.58419 88.4858 8.75282C88.2701 8.91752 88.0113 9.04693 87.7093 9.14105C87.4113 9.23124 87.076 9.27634 86.7035 9.27634C86.1427 9.27634 85.6682 9.17634 85.28 8.97634C84.8917 8.77635 84.5976 8.51753 84.3976 8.19988C84.1976 7.88224 84.0976 7.54695 84.0976 7.19401H85.1917C85.2074 7.49205 85.2937 7.7293 85.4505 7.90577C85.6074 8.07832 85.7996 8.20184 86.027 8.27635C86.2545 8.34694 86.4799 8.38223 86.7035 8.38223C87.0015 8.38223 87.2505 8.34302 87.4505 8.26459C87.6544 8.18616 87.8093 8.07832 87.9152 7.94106C88.0211 7.80381 88.074 7.64695 88.074 7.47048ZM91.7493 8.58223C91.7493 8.39792 91.8061 8.24302 91.9199 8.11753C92.0375 7.98812 92.2061 7.92342 92.4257 7.92342C92.6453 7.92342 92.812 7.98812 92.9257 8.11753C93.0434 8.24302 93.1022 8.39792 93.1022 8.58223C93.1022 8.76262 93.0434 8.91556 92.9257 9.04105C92.812 9.16654 92.6453 9.22928 92.4257 9.22928C92.2061 9.22928 92.0375 9.16654 91.9199 9.04105C91.8061 8.91556 91.7493 8.76262 91.7493 8.58223ZM91.7552 3.38819C91.7552 3.20388 91.812 3.04898 91.9257 2.92349C92.0434 2.79408 92.212 2.72937 92.4316 2.72937C92.6512 2.72937 92.8179 2.79408 92.9316 2.92349C93.0493 3.04898 93.1081 3.20388 93.1081 3.38819C93.1081 3.56858 93.0493 3.72152 92.9316 3.847C92.8179 3.97249 92.6512 4.03524 92.4316 4.03524C92.212 4.03524 92.0434 3.97249 91.9257 3.847C91.812 3.72152 91.7552 3.56858 91.7552 3.38819Z" fill="white"/>
<path d="M105.606 8.26459V9.15869H99.9998V8.37635L102.806 5.25287C103.151 4.86856 103.417 4.54307 103.606 4.27641C103.798 4.00583 103.931 3.76465 104.006 3.55289C104.084 3.33721 104.123 3.1176 104.123 2.89408C104.123 2.61173 104.064 2.35683 103.947 2.12938C103.833 1.89801 103.664 1.7137 103.441 1.57645C103.217 1.4392 102.947 1.37057 102.629 1.37057C102.249 1.37057 101.931 1.44508 101.676 1.59409C101.425 1.73919 101.237 1.94311 101.112 2.20585C100.986 2.46859 100.923 2.77055 100.923 3.11172H99.835C99.835 2.62937 99.9409 2.1882 100.153 1.78821C100.364 1.38822 100.678 1.07057 101.094 0.835282C101.51 0.59607 102.021 0.476464 102.629 0.476464C103.17 0.476464 103.633 0.572541 104.017 0.764695C104.402 0.952928 104.696 1.21959 104.9 1.56468C105.108 1.90586 105.211 2.30585 105.211 2.76467C105.211 3.01564 105.168 3.27054 105.082 3.52936C105 3.78426 104.884 4.03916 104.735 4.29406C104.59 4.54895 104.419 4.79993 104.223 5.04699C104.031 5.29404 103.825 5.53718 103.606 5.77639L101.311 8.26459H105.606ZM109.181 4.15288V9.15869H108.093V2.79408H109.122L109.181 4.15288ZM108.922 5.73521L108.469 5.71757C108.473 5.28228 108.538 4.88032 108.663 4.5117C108.789 4.13916 108.965 3.81563 109.193 3.54113C109.42 3.26662 109.691 3.05486 110.004 2.90584C110.322 2.7529 110.673 2.67643 111.057 2.67643C111.371 2.67643 111.653 2.71957 111.904 2.80584C112.155 2.88819 112.369 3.02153 112.545 3.20584C112.726 3.39015 112.863 3.62936 112.957 3.92347C113.051 4.21367 113.098 4.56856 113.098 4.98816V9.15869H112.004V4.9764C112.004 4.64307 111.955 4.37641 111.857 4.17641C111.759 3.97249 111.616 3.82544 111.428 3.73524C111.24 3.64112 111.008 3.59407 110.734 3.59407C110.463 3.59407 110.216 3.65093 109.993 3.76465C109.773 3.87838 109.583 4.03524 109.422 4.23523C109.265 4.43523 109.142 4.66464 109.051 4.92346C108.965 5.17836 108.922 5.44894 108.922 5.73521ZM119.968 7.92342V0.123528H121.062V9.15869H120.062L119.968 7.92342ZM115.685 6.04697V5.92344C115.685 5.43718 115.744 4.99601 115.862 4.59993C115.983 4.19994 116.154 3.85681 116.374 3.57054C116.597 3.28427 116.862 3.06466 117.168 2.91172C117.478 2.75486 117.823 2.67643 118.203 2.67643C118.603 2.67643 118.952 2.74702 119.25 2.88819C119.552 3.02545 119.807 3.2274 120.015 3.49407C120.227 3.75681 120.393 4.07445 120.515 4.447C120.636 4.81954 120.721 5.2411 120.768 5.71168V6.25285C120.725 6.71951 120.64 7.13911 120.515 7.51166C120.393 7.8842 120.227 8.20184 120.015 8.46459C119.807 8.72733 119.552 8.92928 119.25 9.07046C118.948 9.20771 118.595 9.27634 118.191 9.27634C117.819 9.27634 117.478 9.19595 117.168 9.03517C116.862 8.87438 116.597 8.6489 116.374 8.3587C116.154 8.06851 115.983 7.72734 115.862 7.33519C115.744 6.93912 115.685 6.50971 115.685 6.04697ZM116.78 5.92344V6.04697C116.78 6.36462 116.811 6.66265 116.874 6.94108C116.94 7.2195 117.042 7.4646 117.18 7.67636C117.317 7.88812 117.491 8.05479 117.703 8.17635C117.915 8.294 118.168 8.35282 118.462 8.35282C118.823 8.35282 119.119 8.27635 119.35 8.12341C119.585 7.97047 119.774 7.76852 119.915 7.51754C120.056 7.26656 120.166 6.99402 120.244 6.6999V5.28228C120.197 5.06659 120.128 4.85875 120.038 4.65876C119.952 4.45484 119.838 4.27445 119.697 4.11759C119.56 3.95681 119.389 3.82936 119.185 3.73524C118.985 3.64112 118.748 3.59407 118.474 3.59407C118.176 3.59407 117.919 3.65681 117.703 3.7823C117.491 3.90387 117.317 4.07249 117.18 4.28817C117.042 4.49994 116.94 4.74699 116.874 5.02934C116.811 5.30777 116.78 5.6058 116.78 5.92344ZM129.453 0.594109V9.15869H128.318V0.594109H129.453ZM133.042 4.447V5.37639H129.206V4.447H133.042ZM133.624 0.594109V1.52351H129.206V0.594109H133.624ZM137.199 0.123528V9.15869H136.105V0.123528H137.199ZM139.863 6.04697V5.91168C139.863 5.45286 139.929 5.02738 140.063 4.63523C140.196 4.23916 140.388 3.89602 140.639 3.60583C140.89 3.31172 141.194 3.08427 141.551 2.92349C141.908 2.75878 142.308 2.67643 142.751 2.67643C143.198 2.67643 143.6 2.75878 143.957 2.92349C144.318 3.08427 144.623 3.31172 144.874 3.60583C145.129 3.89602 145.323 4.23916 145.457 4.63523C145.59 5.02738 145.657 5.45286 145.657 5.91168V6.04697C145.657 6.50579 145.59 6.93127 145.457 7.32342C145.323 7.71558 145.129 8.05871 144.874 8.35282C144.623 8.64301 144.32 8.87046 143.963 9.03517C143.61 9.19595 143.21 9.27634 142.763 9.27634C142.316 9.27634 141.914 9.19595 141.557 9.03517C141.2 8.87046 140.894 8.64301 140.639 8.35282C140.388 8.05871 140.196 7.71558 140.063 7.32342C139.929 6.93127 139.863 6.50579 139.863 6.04697ZM140.951 5.91168V6.04697C140.951 6.36462 140.988 6.66461 141.063 6.94696C141.137 7.22539 141.249 7.47244 141.398 7.68813C141.551 7.90381 141.741 8.07439 141.969 8.19988C142.196 8.32145 142.461 8.38223 142.763 8.38223C143.061 8.38223 143.321 8.32145 143.545 8.19988C143.772 8.07439 143.961 7.90381 144.11 7.68813C144.259 7.47244 144.37 7.22539 144.445 6.94696C144.523 6.66461 144.563 6.36462 144.563 6.04697V5.91168C144.563 5.59796 144.523 5.30189 144.445 5.02346C144.37 4.74111 144.257 4.49209 144.104 4.27641C143.955 4.0568 143.767 3.88426 143.539 3.75877C143.316 3.63328 143.053 3.57054 142.751 3.57054C142.453 3.57054 142.19 3.63328 141.963 3.75877C141.739 3.88426 141.551 4.0568 141.398 4.27641C141.249 4.49209 141.137 4.74111 141.063 5.02346C140.988 5.30189 140.951 5.59796 140.951 5.91168ZM147.938 6.04697V5.91168C147.938 5.45286 148.005 5.02738 148.138 4.63523C148.271 4.23916 148.463 3.89602 148.714 3.60583C148.965 3.31172 149.269 3.08427 149.626 2.92349C149.983 2.75878 150.383 2.67643 150.826 2.67643C151.273 2.67643 151.675 2.75878 152.032 2.92349C152.393 3.08427 152.699 3.31172 152.95 3.60583C153.204 3.89602 153.399 4.23916 153.532 4.63523C153.665 5.02738 153.732 5.45286 153.732 5.91168V6.04697C153.732 6.50579 153.665 6.93127 153.532 7.32342C153.399 7.71558 153.204 8.05871 152.95 8.35282C152.699 8.64301 152.395 8.87046 152.038 9.03517C151.685 9.19595 151.285 9.27634 150.838 9.27634C150.391 9.27634 149.989 9.19595 149.632 9.03517C149.275 8.87046 148.969 8.64301 148.714 8.35282C148.463 8.05871 148.271 7.71558 148.138 7.32342C148.005 6.93127 147.938 6.50579 147.938 6.04697ZM149.026 5.91168V6.04697C149.026 6.36462 149.063 6.66461 149.138 6.94696C149.212 7.22539 149.324 7.47244 149.473 7.68813C149.626 7.90381 149.816 8.07439 150.044 8.19988C150.271 8.32145 150.536 8.38223 150.838 8.38223C151.136 8.38223 151.397 8.32145 151.62 8.19988C151.848 8.07439 152.036 7.90381 152.185 7.68813C152.334 7.47244 152.446 7.22539 152.52 6.94696C152.599 6.66461 152.638 6.36462 152.638 6.04697V5.91168C152.638 5.59796 152.599 5.30189 152.52 5.02346C152.446 4.74111 152.332 4.49209 152.179 4.27641C152.03 4.0568 151.842 3.88426 151.614 3.75877C151.391 3.63328 151.128 3.57054 150.826 3.57054C150.528 3.57054 150.265 3.63328 150.038 3.75877C149.814 3.88426 149.626 4.0568 149.473 4.27641C149.324 4.49209 149.212 4.74111 149.138 5.02346C149.063 5.30189 149.026 5.59796 149.026 5.91168ZM157.39 3.79406V9.15869H156.301V2.79408H157.36L157.39 3.79406ZM159.378 2.75878L159.372 3.77053C159.282 3.75093 159.195 3.73916 159.113 3.73524C159.035 3.7274 158.944 3.72348 158.842 3.72348C158.591 3.72348 158.37 3.76269 158.178 3.84112C157.986 3.91955 157.823 4.02935 157.69 4.17053C157.556 4.3117 157.45 4.48033 157.372 4.6764C157.297 4.86856 157.248 5.08032 157.225 5.31169L156.919 5.48816C156.919 5.10385 156.956 4.74307 157.031 4.40582C157.109 4.06857 157.229 3.77053 157.39 3.51171C157.55 3.24897 157.754 3.04505 158.001 2.89996C158.252 2.75094 158.55 2.67643 158.895 2.67643C158.974 2.67643 159.064 2.68624 159.166 2.70584C159.268 2.72153 159.339 2.73918 159.378 2.75878ZM161.847 7.86459V8.74105C161.847 9.09791 161.757 9.47437 161.577 9.87045C161.396 10.2704 161.143 10.6038 160.818 10.8704L160.2 10.441C160.326 10.2685 160.431 10.092 160.518 9.91162C160.604 9.73516 160.669 9.55084 160.712 9.35869C160.759 9.17046 160.782 8.97046 160.782 8.7587V7.86459H161.847ZM175.392 4.60582V5.14699C175.392 5.79011 175.311 6.36658 175.15 6.87637C174.99 7.38617 174.758 7.8195 174.456 8.17635C174.154 8.53321 173.792 8.80576 173.368 8.99399C172.949 9.18222 172.478 9.27634 171.956 9.27634C171.45 9.27634 170.986 9.18222 170.562 8.99399C170.143 8.80576 169.778 8.53321 169.468 8.17635C169.162 7.8195 168.925 7.38617 168.756 6.87637C168.588 6.36658 168.503 5.79011 168.503 5.14699V4.60582C168.503 3.96269 168.586 3.38819 168.751 2.88231C168.919 2.37252 169.156 1.93919 169.462 1.58233C169.768 1.22155 170.131 0.947045 170.551 0.758813C170.974 0.57058 171.439 0.476464 171.945 0.476464C172.466 0.476464 172.937 0.57058 173.356 0.758813C173.78 0.947045 174.143 1.22155 174.445 1.58233C174.75 1.93919 174.984 2.37252 175.145 2.88231C175.309 3.38819 175.392 3.96269 175.392 4.60582ZM174.268 5.14699V4.59405C174.268 4.08426 174.215 3.63328 174.109 3.24113C174.007 2.84898 173.856 2.51957 173.656 2.25291C173.456 1.98625 173.211 1.78429 172.921 1.64704C172.635 1.50978 172.309 1.44116 171.945 1.44116C171.592 1.44116 171.272 1.50978 170.986 1.64704C170.703 1.78429 170.46 1.98625 170.256 2.25291C170.056 2.51957 169.901 2.84898 169.792 3.24113C169.682 3.63328 169.627 4.08426 169.627 4.59405V5.14699C169.627 5.6607 169.682 6.1156 169.792 6.51167C169.901 6.90382 170.058 7.23519 170.262 7.50578C170.47 7.77244 170.715 7.9744 170.998 8.11165C171.284 8.2489 171.603 8.31753 171.956 8.31753C172.325 8.31753 172.652 8.2489 172.939 8.11165C173.225 7.9744 173.466 7.77244 173.662 7.50578C173.862 7.23519 174.013 6.90382 174.115 6.51167C174.217 6.1156 174.268 5.6607 174.268 5.14699ZM178.126 0.123528H179.22V7.92342L179.126 9.15869H178.126V0.123528ZM183.52 5.92344V6.04697C183.52 6.50971 183.465 6.93912 183.355 7.33519C183.245 7.72734 183.084 8.06851 182.873 8.3587C182.661 8.6489 182.402 8.87438 182.096 9.03517C181.79 9.19595 181.439 9.27634 181.043 9.27634C180.639 9.27634 180.284 9.20771 179.979 9.07046C179.677 8.92928 179.422 8.72733 179.214 8.46459C179.006 8.20184 178.839 7.8842 178.714 7.51166C178.592 7.13911 178.508 6.71951 178.461 6.25285V5.71168C178.508 5.2411 178.592 4.81954 178.714 4.447C178.839 4.07445 179.006 3.75681 179.214 3.49407C179.422 3.2274 179.677 3.02545 179.979 2.88819C180.281 2.74702 180.632 2.67643 181.032 2.67643C181.432 2.67643 181.786 2.75486 182.096 2.91172C182.406 3.06466 182.665 3.28427 182.873 3.57054C183.084 3.85681 183.245 4.19994 183.355 4.59993C183.465 4.99601 183.52 5.43718 183.52 5.92344ZM182.426 6.04697V5.92344C182.426 5.6058 182.396 5.30777 182.337 5.02934C182.279 4.74699 182.184 4.49994 182.055 4.28817C181.926 4.07249 181.755 3.90387 181.543 3.7823C181.332 3.65681 181.071 3.59407 180.761 3.59407C180.486 3.59407 180.247 3.64112 180.043 3.73524C179.843 3.82936 179.673 3.95681 179.532 4.11759C179.39 4.27445 179.275 4.45484 179.184 4.65876C179.098 4.85875 179.034 5.06659 178.99 5.28228V6.6999C179.053 6.97441 179.155 7.23911 179.296 7.49401C179.441 7.74499 179.634 7.95087 179.873 8.11165C180.116 8.27243 180.416 8.35282 180.773 8.35282C181.067 8.35282 181.318 8.294 181.526 8.17635C181.737 8.05479 181.908 7.88812 182.037 7.67636C182.171 7.4646 182.269 7.2195 182.332 6.94108C182.394 6.66265 182.426 6.36462 182.426 6.04697ZM188.742 9.27634C188.299 9.27634 187.897 9.20183 187.536 9.05281C187.179 8.89987 186.871 8.68615 186.613 8.41164C186.358 8.13714 186.162 7.81165 186.024 7.43519C185.887 7.05872 185.819 6.64696 185.819 6.19991V5.95286C185.819 5.43522 185.895 4.97444 186.048 4.57052C186.201 4.16269 186.409 3.81759 186.671 3.53524C186.934 3.25289 187.232 3.03917 187.566 2.89408C187.899 2.74898 188.244 2.67643 188.601 2.67643C189.056 2.67643 189.448 2.75486 189.777 2.91172C190.111 3.06858 190.383 3.28819 190.595 3.57054C190.807 3.84896 190.964 4.17837 191.066 4.55876C191.167 4.93522 191.218 5.34698 191.218 5.79403V6.28226H186.466V5.39404H190.13V5.31169C190.115 5.02934 190.056 4.75483 189.954 4.48817C189.856 4.22151 189.699 4.0019 189.483 3.82936C189.267 3.65681 188.973 3.57054 188.601 3.57054C188.354 3.57054 188.126 3.62348 187.918 3.72936C187.711 3.83132 187.532 3.98426 187.383 4.18818C187.234 4.39209 187.118 4.64111 187.036 4.93522C186.954 5.22934 186.913 5.56855 186.913 5.95286V6.19991C186.913 6.50187 186.954 6.78618 187.036 7.05284C187.122 7.31558 187.246 7.54695 187.407 7.74695C187.571 7.94695 187.769 8.10381 188.001 8.21753C188.236 8.33125 188.503 8.38812 188.801 8.38812C189.185 8.38812 189.511 8.30969 189.777 8.15282C190.044 7.99596 190.277 7.78616 190.477 7.52342L191.136 8.04694C190.999 8.25478 190.824 8.45282 190.613 8.64105C190.401 8.82929 190.14 8.98222 189.83 9.09987C189.524 9.21752 189.162 9.27634 188.742 9.27634ZM195.4 8.49988L197.17 2.79408H198.335L195.782 10.141C195.723 10.2979 195.645 10.4665 195.547 10.6469C195.453 10.8312 195.331 11.0057 195.182 11.1704C195.033 11.3351 194.853 11.4685 194.641 11.5704C194.433 11.6763 194.184 11.7292 193.894 11.7292C193.807 11.7292 193.698 11.7175 193.564 11.694C193.431 11.6704 193.337 11.6508 193.282 11.6351L193.276 10.7528C193.307 10.7567 193.356 10.7606 193.423 10.7646C193.494 10.7724 193.543 10.7763 193.57 10.7763C193.817 10.7763 194.027 10.743 194.2 10.6763C194.372 10.6136 194.517 10.5057 194.635 10.3528C194.756 10.2038 194.86 9.9979 194.947 9.73516L195.4 8.49988ZM194.1 2.79408L195.753 7.73518L196.035 8.88223L195.253 9.28222L192.911 2.79408H194.1ZM204.181 8.07047V4.79405C204.181 4.54307 204.13 4.32543 204.028 4.14112C203.93 3.95288 203.781 3.80779 203.581 3.70583C203.381 3.60387 203.134 3.55289 202.839 3.55289C202.565 3.55289 202.324 3.59995 202.116 3.69406C201.912 3.78818 201.751 3.91171 201.634 4.06465C201.52 4.21759 201.463 4.38229 201.463 4.55876H200.375C200.375 4.33131 200.434 4.10582 200.551 3.8823C200.669 3.65877 200.838 3.45681 201.057 3.27642C201.281 3.09211 201.547 2.94702 201.857 2.84114C202.171 2.73133 202.52 2.67643 202.904 2.67643C203.367 2.67643 203.775 2.75486 204.128 2.91172C204.485 3.06858 204.763 3.30584 204.963 3.62348C205.167 3.9372 205.269 4.33131 205.269 4.80581V7.77048C205.269 7.98224 205.286 8.20773 205.322 8.44694C205.361 8.68615 205.418 8.89203 205.492 9.06458V9.15869H204.357C204.302 9.0332 204.259 8.86654 204.228 8.6587C204.196 8.44694 204.181 8.25086 204.181 8.07047ZM204.369 5.29992L204.381 6.06462H203.281C202.971 6.06462 202.694 6.09011 202.451 6.14109C202.208 6.18815 202.004 6.26069 201.839 6.35873C201.675 6.45677 201.549 6.5803 201.463 6.72932C201.377 6.87441 201.334 7.045 201.334 7.24107C201.334 7.44107 201.379 7.62342 201.469 7.78812C201.559 7.95283 201.694 8.0842 201.875 8.18224C202.059 8.27635 202.285 8.32341 202.551 8.32341C202.885 8.32341 203.179 8.25282 203.434 8.11165C203.688 7.97047 203.89 7.79793 204.039 7.59401C204.192 7.39009 204.275 7.19205 204.286 6.9999L204.751 7.52342C204.724 7.68813 204.649 7.87048 204.528 8.07047C204.406 8.27047 204.243 8.46262 204.039 8.64694C203.839 8.82732 203.6 8.9783 203.322 9.09987C203.047 9.21752 202.738 9.27634 202.392 9.27634C201.961 9.27634 201.583 9.19203 201.257 9.0234C200.936 8.85478 200.685 8.62929 200.504 8.34694C200.328 8.06067 200.239 7.74107 200.239 7.38813C200.239 7.04696 200.306 6.74696 200.439 6.48814C200.573 6.2254 200.765 6.00776 201.016 5.83521C201.267 5.65874 201.569 5.52541 201.922 5.43522C202.275 5.34502 202.669 5.29992 203.104 5.29992H204.369ZM6.62343 22.9644V26.0996C6.51755 26.2565 6.34893 26.433 6.11756 26.629C5.88619 26.8212 5.56659 26.9898 5.15875 27.1349C4.75483 27.2761 4.23327 27.3467 3.59407 27.3467C3.07251 27.3467 2.59212 27.2565 2.15291 27.0761C1.71762 26.8918 1.3392 26.6251 1.01763 26.2761C0.69999 25.9232 0.452935 25.4957 0.276467 24.9938C0.10392 24.4879 0.0176468 23.9153 0.0176468 23.2761V22.6114C0.0176468 21.9722 0.0921555 21.4017 0.241173 20.8997C0.394112 20.3977 0.617638 19.9723 0.911752 19.6232C1.20587 19.2703 1.56664 19.0037 1.99409 18.8233C2.42153 18.6389 2.91172 18.5468 3.46466 18.5468C4.11955 18.5468 4.6666 18.6605 5.10581 18.888C5.54894 19.1115 5.89403 19.4213 6.14109 19.8174C6.39207 20.2134 6.55285 20.6644 6.62343 21.1703H5.48816C5.43718 20.8605 5.33522 20.5781 5.18228 20.3232C5.03326 20.0683 4.81954 19.8644 4.54111 19.7115C4.26268 19.5546 3.90387 19.4762 3.46466 19.4762C3.06858 19.4762 2.72545 19.5487 2.43526 19.6938C2.14507 19.8389 1.90586 20.0468 1.71762 20.3174C1.52939 20.5879 1.38822 20.9154 1.2941 21.2997C1.2039 21.684 1.15881 22.1173 1.15881 22.5997V23.2761C1.15881 23.7702 1.21567 24.2114 1.32939 24.5996C1.44704 24.9879 1.6137 25.3192 1.82939 25.5938C2.04507 25.8643 2.30193 26.0702 2.59996 26.2114C2.90192 26.3526 3.23525 26.4232 3.59995 26.4232C4.00386 26.4232 4.33131 26.3898 4.58229 26.3232C4.83326 26.2526 5.02934 26.1702 5.17051 26.0761C5.31169 25.9781 5.41953 25.8859 5.49404 25.7996V23.882H3.51171V22.9644H6.62343ZM13.4398 25.7585V20.8644H14.5339V27.229H13.4927L13.4398 25.7585ZM13.6457 24.4173L14.0986 24.4055C14.0986 24.8291 14.0535 25.2212 13.9633 25.582C13.8771 25.9388 13.7359 26.2486 13.5398 26.5114C13.3437 26.7741 13.0869 26.98 12.7692 27.129C12.4516 27.2741 12.0653 27.3467 11.6104 27.3467C11.3006 27.3467 11.0163 27.3016 10.7575 27.2114C10.5026 27.1212 10.283 26.982 10.0987 26.7937C9.91437 26.6055 9.77123 26.3604 9.66927 26.0585C9.57124 25.7565 9.52222 25.3938 9.52222 24.9702V20.8644H10.6104V24.982C10.6104 25.2683 10.6418 25.5055 10.7046 25.6938C10.7712 25.8781 10.8595 26.0251 10.9693 26.1349C11.083 26.2408 11.2085 26.3153 11.3457 26.3584C11.4869 26.4016 11.632 26.4232 11.781 26.4232C12.2437 26.4232 12.6104 26.3349 12.881 26.1585C13.1516 25.9781 13.3457 25.7369 13.4633 25.4349C13.5849 25.1291 13.6457 24.7898 13.6457 24.4173ZM21.1032 25.5408C21.1032 25.384 21.0679 25.2389 20.9973 25.1055C20.9307 24.9683 20.7915 24.8447 20.5797 24.7349C20.3719 24.6212 20.0581 24.5232 19.6385 24.4408C19.2856 24.3663 18.966 24.2781 18.6797 24.1761C18.3974 24.0742 18.1562 23.9506 17.9562 23.8055C17.7601 23.6604 17.6092 23.4899 17.5033 23.2938C17.3974 23.0977 17.3445 22.8683 17.3445 22.6056C17.3445 22.3546 17.3994 22.1173 17.5092 21.8938C17.6229 21.6703 17.7817 21.4722 17.9856 21.2997C18.1935 21.1271 18.4425 20.9919 18.7327 20.8938C19.0229 20.7958 19.3464 20.7468 19.7032 20.7468C20.213 20.7468 20.6483 20.837 21.0091 21.0173C21.3699 21.1977 21.6464 21.4389 21.8385 21.7409C22.0307 22.0389 22.1267 22.3703 22.1267 22.735H21.0385C21.0385 22.5585 20.9856 22.3879 20.8797 22.2232C20.7777 22.0546 20.6268 21.9154 20.4268 21.8056C20.2307 21.6958 19.9895 21.6409 19.7032 21.6409C19.4013 21.6409 19.1562 21.6879 18.968 21.782C18.7837 21.8722 18.6484 21.9879 18.5621 22.1291C18.4797 22.2703 18.4386 22.4193 18.4386 22.5761C18.4386 22.6938 18.4582 22.7997 18.4974 22.8938C18.5405 22.984 18.615 23.0683 18.7209 23.1467C18.8268 23.2212 18.9758 23.2918 19.168 23.3585C19.3601 23.4252 19.6052 23.4918 19.9032 23.5585C20.4248 23.6761 20.8542 23.8173 21.1915 23.982C21.5287 24.1467 21.7797 24.3487 21.9444 24.5879C22.1091 24.8271 22.1914 25.1173 22.1914 25.4585C22.1914 25.7369 22.1326 25.9918 22.015 26.2232C21.9013 26.4545 21.7346 26.6545 21.515 26.8231C21.2993 26.9879 21.0405 27.1173 20.7385 27.2114C20.4405 27.3016 20.1052 27.3467 19.7327 27.3467C19.1719 27.3467 18.6974 27.2467 18.3092 27.0467C17.9209 26.8467 17.6268 26.5879 17.4268 26.2702C17.2268 25.9526 17.1268 25.6173 17.1268 25.2643H18.2209C18.2366 25.5624 18.3229 25.7996 18.4797 25.9761C18.6366 26.1486 18.8288 26.2722 19.0562 26.3467C19.2836 26.4173 19.5091 26.4526 19.7327 26.4526C20.0307 26.4526 20.2797 26.4133 20.4797 26.3349C20.6836 26.2565 20.8385 26.1486 20.9444 26.0114C21.0503 25.8741 21.1032 25.7173 21.1032 25.5408ZM27.4902 20.8644V21.6997H24.0491V20.8644H27.4902ZM25.2138 19.3174H26.302V25.6526C26.302 25.8683 26.3353 26.031 26.402 26.1408C26.4686 26.2506 26.5549 26.3232 26.6608 26.3584C26.7667 26.3937 26.8804 26.4114 27.002 26.4114C27.0922 26.4114 27.1863 26.4035 27.2843 26.3879C27.3863 26.3683 27.4627 26.3526 27.5137 26.3408L27.5196 27.229C27.4333 27.2565 27.3196 27.282 27.1784 27.3055C27.0412 27.3329 26.8745 27.3467 26.6784 27.3467C26.4118 27.3467 26.1667 27.2937 25.9432 27.1878C25.7196 27.082 25.5412 26.9055 25.4079 26.6584C25.2785 26.4075 25.2138 26.0702 25.2138 25.6467V19.3174ZM29.5655 24.1173V23.982C29.5655 23.5232 29.6321 23.0977 29.7655 22.7056C29.8988 22.3095 30.0909 21.9664 30.3419 21.6762C30.5929 21.382 30.8968 21.1546 31.2537 20.9938C31.6105 20.8291 32.0105 20.7468 32.4537 20.7468C32.9007 20.7468 33.3027 20.8291 33.6595 20.9938C34.0203 21.1546 34.3262 21.382 34.5772 21.6762C34.8321 21.9664 35.0262 22.3095 35.1595 22.7056C35.2928 23.0977 35.3595 23.5232 35.3595 23.982V24.1173C35.3595 24.5761 35.2928 25.0016 35.1595 25.3938C35.0262 25.7859 34.8321 26.129 34.5772 26.4232C34.3262 26.7133 34.0223 26.9408 33.6654 27.1055C33.3125 27.2663 32.9125 27.3467 32.4654 27.3467C32.0184 27.3467 31.6164 27.2663 31.2596 27.1055C30.9027 26.9408 30.5968 26.7133 30.3419 26.4232C30.0909 26.129 29.8988 25.7859 29.7655 25.3938C29.6321 25.0016 29.5655 24.5761 29.5655 24.1173ZM30.6537 23.982V24.1173C30.6537 24.4349 30.6909 24.7349 30.7654 25.0173C30.84 25.2957 30.9517 25.5428 31.1007 25.7585C31.2537 25.9741 31.4439 26.1447 31.6713 26.2702C31.8988 26.3918 32.1635 26.4526 32.4654 26.4526C32.7635 26.4526 33.0242 26.3918 33.2478 26.2702C33.4752 26.1447 33.6634 25.9741 33.8125 25.7585C33.9615 25.5428 34.0732 25.2957 34.1477 25.0173C34.2262 24.7349 34.2654 24.4349 34.2654 24.1173V23.982C34.2654 23.6683 34.2262 23.3722 34.1477 23.0938C34.0732 22.8114 33.9595 22.5624 33.8066 22.3467C33.6576 22.1271 33.4693 21.9546 33.2419 21.8291C33.0184 21.7036 32.7556 21.6409 32.4537 21.6409C32.1556 21.6409 31.8929 21.7036 31.6654 21.8291C31.4419 21.9546 31.2537 22.1271 31.1007 22.3467C30.9517 22.5624 30.84 22.8114 30.7654 23.0938C30.6909 23.3722 30.6537 23.6683 30.6537 23.982ZM38.9171 25.9349V26.8114C38.9171 27.1682 38.8269 27.5447 38.6465 27.9408C38.4661 28.3408 38.2132 28.6741 37.8877 28.9408L37.2701 28.5114C37.3955 28.3388 37.5014 28.1623 37.5877 27.982C37.674 27.8055 37.7387 27.6212 37.7818 27.429C37.8289 27.2408 37.8524 27.0408 37.8524 26.829V25.9349H38.9171ZM47.1734 22.4114H47.9499C48.3303 22.4114 48.644 22.3487 48.8911 22.2232C49.142 22.0938 49.3283 21.9193 49.4499 21.6997C49.5754 21.4762 49.6381 21.2252 49.6381 20.9468C49.6381 20.6174 49.5832 20.3409 49.4734 20.1174C49.3636 19.8938 49.1989 19.7252 48.9793 19.6115C48.7597 19.4978 48.4813 19.4409 48.144 19.4409C47.8381 19.4409 47.5676 19.5017 47.3323 19.6232C47.1009 19.7409 46.9185 19.9095 46.7852 20.1291C46.6558 20.3487 46.5911 20.6075 46.5911 20.9056H45.5029C45.5029 20.4703 45.6127 20.0742 45.8323 19.7174C46.0519 19.3605 46.3597 19.0762 46.7558 18.8644C47.1558 18.6527 47.6185 18.5468 48.144 18.5468C48.6617 18.5468 49.1146 18.6389 49.5028 18.8233C49.8911 19.0037 50.193 19.2742 50.4087 19.635C50.6244 19.9919 50.7322 20.437 50.7322 20.9703C50.7322 21.186 50.6812 21.4173 50.5793 21.6644C50.4812 21.9075 50.3263 22.135 50.1146 22.3467C49.9067 22.5585 49.6362 22.733 49.3028 22.8703C48.9695 23.0036 48.5695 23.0703 48.1028 23.0703H47.1734V22.4114ZM47.1734 23.3055V22.6526H48.1028C48.6479 22.6526 49.0989 22.7173 49.4558 22.8467C49.8126 22.9761 50.093 23.1487 50.2969 23.3644C50.5048 23.5801 50.6499 23.8173 50.7322 24.0761C50.8185 24.331 50.8616 24.5859 50.8616 24.8408C50.8616 25.2408 50.793 25.5957 50.6557 25.9055C50.5224 26.2153 50.3322 26.4781 50.0852 26.6937C49.842 26.9094 49.5558 27.0722 49.2264 27.182C48.897 27.2918 48.5381 27.3467 48.1499 27.3467C47.7774 27.3467 47.4264 27.2937 47.097 27.1878C46.7715 27.082 46.4833 26.929 46.2323 26.729C45.9813 26.5251 45.7852 26.2761 45.6441 25.982C45.5029 25.6839 45.4323 25.3447 45.4323 24.9643H46.5205C46.5205 25.2624 46.5852 25.5232 46.7146 25.7467C46.848 25.9702 47.0362 26.1447 47.2793 26.2702C47.5264 26.3918 47.8166 26.4526 48.1499 26.4526C48.4832 26.4526 48.7695 26.3957 49.0087 26.282C49.2518 26.1643 49.4381 25.9879 49.5675 25.7526C49.7009 25.5173 49.7675 25.2212 49.7675 24.8644C49.7675 24.5075 49.693 24.2153 49.544 23.9879C49.395 23.7565 49.1832 23.5859 48.9087 23.4761C48.6381 23.3624 48.3185 23.3055 47.9499 23.3055H47.1734ZM57.7427 18.6527H57.8368V19.5762H57.7427C57.1662 19.5762 56.6839 19.6703 56.2957 19.8585C55.9074 20.0429 55.5996 20.2919 55.3721 20.6056C55.1447 20.9154 54.98 21.2644 54.878 21.6526C54.78 22.0409 54.731 22.435 54.731 22.835V24.0938C54.731 24.4742 54.7761 24.8114 54.8663 25.1055C54.9565 25.3957 55.08 25.6408 55.2369 25.8408C55.3937 26.0408 55.5702 26.1918 55.7663 26.2937C55.9663 26.3957 56.1741 26.4467 56.3898 26.4467C56.6408 26.4467 56.8643 26.3996 57.0604 26.3055C57.2564 26.2075 57.4211 26.0722 57.5545 25.8996C57.6917 25.7232 57.7956 25.5153 57.8662 25.2761C57.9368 25.0369 57.9721 24.7742 57.9721 24.4879C57.9721 24.233 57.9407 23.9879 57.878 23.7526C57.8153 23.5134 57.7192 23.3016 57.5898 23.1173C57.4604 22.9291 57.2976 22.782 57.1015 22.6761C56.9094 22.5663 56.68 22.5114 56.4133 22.5114C56.1114 22.5114 55.829 22.586 55.5663 22.735C55.3074 22.8801 55.0937 23.0722 54.9251 23.3114C54.7604 23.5467 54.6663 23.8036 54.6427 24.082L54.0663 24.0761C54.1212 23.6369 54.2231 23.2624 54.3722 22.9526C54.5251 22.6389 54.7133 22.384 54.9369 22.1879C55.1643 21.9879 55.4172 21.8428 55.6957 21.7526C55.978 21.6585 56.2761 21.6115 56.5898 21.6115C57.0172 21.6115 57.3858 21.6918 57.6956 21.8526C58.0054 22.0134 58.2603 22.2291 58.4603 22.4997C58.6603 22.7663 58.8074 23.0683 58.9015 23.4055C58.9995 23.7389 59.0486 24.082 59.0486 24.4349C59.0486 24.8389 58.9917 25.2173 58.878 25.5702C58.7643 25.9232 58.5937 26.233 58.3662 26.4996C58.1427 26.7663 57.8662 26.9741 57.5368 27.1231C57.2074 27.2722 56.8251 27.3467 56.3898 27.3467C55.927 27.3467 55.5231 27.2526 55.178 27.0643C54.8329 26.8722 54.5467 26.6173 54.3192 26.2996C54.0918 25.982 53.9212 25.629 53.8075 25.2408C53.6937 24.8526 53.6369 24.4585 53.6369 24.0585V23.5467C53.6369 22.9428 53.6977 22.3507 53.8192 21.7703C53.9408 21.1899 54.1506 20.6644 54.4486 20.1938C54.7506 19.7232 55.1682 19.3487 55.7016 19.0703C56.2349 18.7919 56.9153 18.6527 57.7427 18.6527ZM67.0826 18.6644V19.2762L63.5356 27.229H62.3885L65.9296 19.5585H61.2944V18.6644H67.0826ZM70.6343 25.9349V26.8114C70.6343 27.1682 70.5441 27.5447 70.3637 27.9408C70.1833 28.3408 69.9304 28.6741 69.6049 28.9408L68.9873 28.5114C69.1127 28.3388 69.2186 28.1623 69.3049 27.982C69.3912 27.8055 69.4559 27.6212 69.499 27.429C69.5461 27.2408 69.5696 27.0408 69.5696 26.829V25.9349H70.6343ZM78.6789 23.1526L77.8083 22.9291L78.2377 18.6644H82.6318V19.6703H79.1612L78.9024 21.9997C79.0593 21.9095 79.2573 21.8252 79.4965 21.7467C79.7396 21.6683 80.0181 21.6291 80.3318 21.6291C80.7279 21.6291 81.0828 21.6977 81.3965 21.835C81.7102 21.9683 81.9769 22.1605 82.1965 22.4114C82.42 22.6624 82.5906 22.9644 82.7082 23.3173C82.8259 23.6703 82.8847 24.0644 82.8847 24.4997C82.8847 24.9114 82.8278 25.2898 82.7141 25.6349C82.6043 25.98 82.4376 26.282 82.2141 26.5408C81.9906 26.7957 81.7082 26.9937 81.3671 27.1349C81.0298 27.2761 80.6318 27.3467 80.173 27.3467C79.8279 27.3467 79.5004 27.2996 79.1906 27.2055C78.8848 27.1075 78.6103 26.9604 78.3671 26.7643C78.1279 26.5643 77.9318 26.3173 77.7789 26.0232C77.6299 25.7251 77.5358 25.3761 77.4965 24.9761H78.5318C78.5789 25.2977 78.673 25.5683 78.8142 25.7879C78.9553 26.0075 79.1397 26.1741 79.3671 26.2879C79.5985 26.3977 79.8671 26.4526 80.173 26.4526C80.4318 26.4526 80.6612 26.4075 80.8612 26.3173C81.0612 26.2271 81.2298 26.0977 81.3671 25.929C81.5043 25.7604 81.6082 25.5565 81.6788 25.3173C81.7533 25.0781 81.7906 24.8094 81.7906 24.5114C81.7906 24.2408 81.7533 23.9899 81.6788 23.7585C81.6043 23.5271 81.4926 23.3252 81.3435 23.1526C81.1985 22.9801 81.02 22.8467 80.8083 22.7526C80.5965 22.6546 80.3534 22.6056 80.0789 22.6056C79.7142 22.6056 79.4377 22.6546 79.2495 22.7526C79.0651 22.8507 78.875 22.984 78.6789 23.1526ZM88.0658 20.8644V21.6997H84.6247V20.8644H88.0658ZM85.7894 19.3174H86.8776V25.6526C86.8776 25.8683 86.9109 26.031 86.9776 26.1408C87.0442 26.2506 87.1305 26.3232 87.2364 26.3584C87.3423 26.3937 87.456 26.4114 87.5776 26.4114C87.6678 26.4114 87.7619 26.4035 87.8599 26.3879C87.9619 26.3683 88.0383 26.3526 88.0893 26.3408L88.0952 27.229C88.0089 27.2565 87.8952 27.282 87.754 27.3055C87.6168 27.3329 87.4501 27.3467 87.254 27.3467C86.9874 27.3467 86.7423 27.2937 86.5188 27.1878C86.2952 27.082 86.1168 26.9055 85.9835 26.6584C85.8541 26.4075 85.7894 26.0702 85.7894 25.6467V19.3174ZM91.6352 18.1939V27.229H90.5469V18.1939H91.6352ZM91.3763 23.8055L90.9234 23.7879C90.9273 23.3526 90.992 22.9507 91.1175 22.582C91.243 22.2095 91.4195 21.886 91.6469 21.6115C91.8744 21.337 92.145 21.1252 92.4587 20.9762C92.7763 20.8232 93.1273 20.7468 93.5116 20.7468C93.8253 20.7468 94.1077 20.7899 94.3587 20.8762C94.6096 20.9585 94.8234 21.0919 94.9998 21.2762C95.1802 21.4605 95.3175 21.6997 95.4116 21.9938C95.5057 22.284 95.5528 22.6389 95.5528 23.0585V27.229H94.4587V23.0467C94.4587 22.7134 94.4096 22.4467 94.3116 22.2467C94.2136 22.0428 94.0704 21.8958 93.8822 21.8056C93.694 21.7115 93.4626 21.6644 93.1881 21.6644C92.9175 21.6644 92.6704 21.7213 92.4469 21.835C92.2273 21.9487 92.0371 22.1056 91.8763 22.3056C91.7195 22.5056 91.596 22.735 91.5058 22.9938C91.4195 23.2487 91.3763 23.5193 91.3763 23.8055ZM103.103 18.6644H104.203L107.009 25.6467L109.809 18.6644H110.915L107.433 27.229H106.574L103.103 18.6644ZM102.744 18.6644H103.715L103.874 23.8879V27.229H102.744V18.6644ZM110.297 18.6644H111.268V27.229H110.138V23.8879L110.297 18.6644ZM118.055 26.1408V22.8644C118.055 22.6134 118.004 22.3958 117.902 22.2114C117.804 22.0232 117.655 21.8781 117.455 21.7762C117.255 21.6742 117.008 21.6232 116.714 21.6232C116.439 21.6232 116.198 21.6703 115.99 21.7644C115.786 21.8585 115.625 21.982 115.508 22.135C115.394 22.2879 115.337 22.4526 115.337 22.6291H114.249C114.249 22.4016 114.308 22.1762 114.425 21.9526C114.543 21.7291 114.712 21.5271 114.931 21.3468C115.155 21.1624 115.421 21.0173 115.731 20.9115C116.045 20.8017 116.394 20.7468 116.778 20.7468C117.241 20.7468 117.649 20.8252 118.002 20.9821C118.359 21.1389 118.637 21.3762 118.837 21.6938C119.041 22.0075 119.143 22.4016 119.143 22.8761V25.8408C119.143 26.0526 119.161 26.2781 119.196 26.5173C119.235 26.7565 119.292 26.9624 119.367 27.1349V27.229H118.231C118.176 27.1035 118.133 26.9369 118.102 26.729C118.07 26.5173 118.055 26.3212 118.055 26.1408ZM118.243 23.3703L118.255 24.1349H117.155C116.845 24.1349 116.569 24.1604 116.325 24.2114C116.082 24.2585 115.878 24.331 115.714 24.4291C115.549 24.5271 115.423 24.6506 115.337 24.7996C115.251 24.9447 115.208 25.1153 115.208 25.3114C115.208 25.5114 115.253 25.6938 115.343 25.8585C115.433 26.0232 115.569 26.1545 115.749 26.2526C115.933 26.3467 116.159 26.3937 116.425 26.3937C116.759 26.3937 117.053 26.3232 117.308 26.182C117.563 26.0408 117.765 25.8683 117.914 25.6643C118.067 25.4604 118.149 25.2624 118.161 25.0702L118.625 25.5938C118.598 25.7585 118.523 25.9408 118.402 26.1408C118.28 26.3408 118.118 26.533 117.914 26.7173C117.714 26.8977 117.474 27.0486 117.196 27.1702C116.921 27.2878 116.612 27.3467 116.267 27.3467C115.835 27.3467 115.457 27.2624 115.131 27.0937C114.81 26.9251 114.559 26.6996 114.378 26.4173C114.202 26.131 114.114 25.8114 114.114 25.4585C114.114 25.1173 114.18 24.8173 114.314 24.5585C114.447 24.2957 114.639 24.0781 114.89 23.9055C115.141 23.7291 115.443 23.5957 115.796 23.5055C116.149 23.4154 116.543 23.3703 116.978 23.3703H118.243ZM123.242 20.8644V27.229H122.148V20.8644H123.242ZM122.065 19.1762C122.065 18.9997 122.118 18.8507 122.224 18.7291C122.334 18.6076 122.495 18.5468 122.706 18.5468C122.914 18.5468 123.073 18.6076 123.183 18.7291C123.297 18.8507 123.354 18.9997 123.354 19.1762C123.354 19.3448 123.297 19.4899 123.183 19.6115C123.073 19.7291 122.914 19.788 122.706 19.788C122.495 19.788 122.334 19.7291 122.224 19.6115C122.118 19.4899 122.065 19.3448 122.065 19.1762ZM127.282 22.2232V27.229H126.193V20.8644H127.223L127.282 22.2232ZM127.023 23.8055L126.57 23.7879C126.574 23.3526 126.639 22.9507 126.764 22.582C126.89 22.2095 127.066 21.886 127.293 21.6115C127.521 21.337 127.792 21.1252 128.105 20.9762C128.423 20.8232 128.774 20.7468 129.158 20.7468C129.472 20.7468 129.754 20.7899 130.005 20.8762C130.256 20.9585 130.47 21.0919 130.646 21.2762C130.827 21.4605 130.964 21.6997 131.058 21.9938C131.152 22.284 131.199 22.6389 131.199 23.0585V27.229H130.105V23.0467C130.105 22.7134 130.056 22.4467 129.958 22.2467C129.86 22.0428 129.717 21.8958 129.529 21.8056C129.341 21.7115 129.109 21.6644 128.835 21.6644C128.564 21.6644 128.317 21.7213 128.093 21.835C127.874 21.9487 127.684 22.1056 127.523 22.3056C127.366 22.5056 127.243 22.735 127.152 22.9938C127.066 23.2487 127.023 23.5193 127.023 23.8055ZM138.414 18.6644H141.25C141.893 18.6644 142.436 18.7625 142.879 18.9586C143.326 19.1546 143.665 19.4448 143.897 19.8291C144.132 20.2095 144.25 20.6781 144.25 21.235C144.25 21.6271 144.169 21.986 144.009 22.3114C143.852 22.633 143.624 22.9075 143.326 23.135C143.032 23.3585 142.679 23.5252 142.267 23.635L141.95 23.7585H139.285L139.273 22.835H141.285C141.693 22.835 142.032 22.7644 142.303 22.6232C142.573 22.4781 142.777 22.284 142.914 22.0409C143.052 21.7977 143.12 21.5291 143.12 21.235C143.12 20.9056 143.056 20.6174 142.926 20.3703C142.797 20.1232 142.593 19.933 142.314 19.7997C142.04 19.6625 141.685 19.5938 141.25 19.5938H139.55V27.229H138.414V18.6644ZM143.42 27.229L141.338 23.3467L142.52 23.3408L144.632 27.1584V27.229H143.42ZM150.89 25.9937V18.1939H151.984V27.229H150.984L150.89 25.9937ZM146.607 24.1173V23.9938C146.607 23.5075 146.666 23.0663 146.784 22.6703C146.905 22.2703 147.076 21.9271 147.296 21.6409C147.519 21.3546 147.784 21.135 148.09 20.9821C148.399 20.8252 148.745 20.7468 149.125 20.7468C149.525 20.7468 149.874 20.8173 150.172 20.9585C150.474 21.0958 150.729 21.2977 150.937 21.5644C151.148 21.8271 151.315 22.1448 151.437 22.5173C151.558 22.8899 151.643 23.3114 151.69 23.782V24.3232C151.646 24.7898 151.562 25.2094 151.437 25.582C151.315 25.9545 151.148 26.2722 150.937 26.5349C150.729 26.7977 150.474 26.9996 150.172 27.1408C149.87 27.278 149.517 27.3467 149.113 27.3467C148.741 27.3467 148.399 27.2663 148.09 27.1055C147.784 26.9447 147.519 26.7192 147.296 26.429C147.076 26.1388 146.905 25.7977 146.784 25.4055C146.666 25.0094 146.607 24.58 146.607 24.1173ZM147.701 23.9938V24.1173C147.701 24.4349 147.733 24.733 147.796 25.0114C147.862 25.2898 147.964 25.5349 148.101 25.7467C148.239 25.9585 148.413 26.1251 148.625 26.2467C148.837 26.3643 149.09 26.4232 149.384 26.4232C149.745 26.4232 150.041 26.3467 150.272 26.1937C150.507 26.0408 150.695 25.8388 150.837 25.5879C150.978 25.3369 151.088 25.0643 151.166 24.7702V23.3526C151.119 23.1369 151.05 22.9291 150.96 22.7291C150.874 22.5252 150.76 22.3448 150.619 22.1879C150.482 22.0271 150.311 21.8997 150.107 21.8056C149.907 21.7115 149.67 21.6644 149.396 21.6644C149.097 21.6644 148.841 21.7271 148.625 21.8526C148.413 21.9742 148.239 22.1428 148.101 22.3585C147.964 22.5703 147.862 22.8173 147.796 23.0997C147.733 23.3781 147.701 23.6761 147.701 23.9938ZM155.871 25.9349V26.8114C155.871 27.1682 155.781 27.5447 155.6 27.9408C155.42 28.3408 155.167 28.6741 154.841 28.9408L154.224 28.5114C154.349 28.3388 154.455 28.1623 154.541 27.982C154.628 27.8055 154.692 27.6212 154.735 27.429C154.783 27.2408 154.806 27.0408 154.806 26.829V25.9349H155.871ZM167.386 25.0643C167.386 24.8644 167.354 24.6879 167.292 24.5349C167.233 24.3781 167.127 24.2369 166.974 24.1114C166.825 23.9859 166.617 23.8663 166.351 23.7526C166.088 23.6389 165.754 23.5232 165.351 23.4055C164.927 23.2801 164.545 23.1408 164.204 22.9879C163.862 22.831 163.57 22.6526 163.327 22.4526C163.084 22.2526 162.898 22.0232 162.768 21.7644C162.639 21.5056 162.574 21.2095 162.574 20.8762C162.574 20.5428 162.643 20.235 162.78 19.9527C162.917 19.6703 163.113 19.4252 163.368 19.2174C163.627 19.0056 163.935 18.8409 164.292 18.7233C164.649 18.6056 165.047 18.5468 165.486 18.5468C166.129 18.5468 166.674 18.6703 167.121 18.9174C167.572 19.1605 167.915 19.4801 168.151 19.8762C168.386 20.2683 168.503 20.6879 168.503 21.135H167.374C167.374 20.8134 167.305 20.5291 167.168 20.2821C167.031 20.0311 166.823 19.835 166.545 19.6938C166.266 19.5487 165.913 19.4762 165.486 19.4762C165.082 19.4762 164.749 19.537 164.486 19.6585C164.223 19.7801 164.027 19.9448 163.898 20.1527C163.772 20.3605 163.709 20.5977 163.709 20.8644C163.709 21.0448 163.747 21.2095 163.821 21.3585C163.9 21.5036 164.019 21.6389 164.18 21.7644C164.345 21.8899 164.553 22.0056 164.804 22.1114C165.058 22.2173 165.362 22.3193 165.715 22.4173C166.202 22.5546 166.621 22.7075 166.974 22.8761C167.327 23.0448 167.617 23.235 167.845 23.4467C168.076 23.6546 168.247 23.8918 168.356 24.1585C168.47 24.4212 168.527 24.7193 168.527 25.0526C168.527 25.4016 168.456 25.7173 168.315 25.9996C168.174 26.282 167.972 26.5232 167.709 26.7231C167.447 26.9231 167.131 27.078 166.762 27.1878C166.398 27.2937 165.99 27.3467 165.539 27.3467C165.143 27.3467 164.753 27.2918 164.368 27.182C163.988 27.0722 163.641 26.9075 163.327 26.6879C163.017 26.4682 162.768 26.1977 162.58 25.8761C162.396 25.5506 162.304 25.1742 162.304 24.7467H163.433C163.433 25.0408 163.49 25.2938 163.604 25.5055C163.717 25.7134 163.872 25.8859 164.068 26.0232C164.268 26.1604 164.494 26.2624 164.745 26.329C165 26.3918 165.264 26.4232 165.539 26.4232C165.935 26.4232 166.27 26.3683 166.545 26.2584C166.819 26.1486 167.027 25.9918 167.168 25.7879C167.313 25.5839 167.386 25.3428 167.386 25.0643ZM173.655 27.3467C173.212 27.3467 172.81 27.2722 172.449 27.1231C172.092 26.9702 171.785 26.7565 171.526 26.482C171.271 26.2075 171.075 25.882 170.938 25.5055C170.8 25.1291 170.732 24.7173 170.732 24.2702V24.0232C170.732 23.5055 170.808 23.0448 170.961 22.6409C171.114 22.233 171.322 21.8879 171.585 21.6056C171.847 21.3232 172.145 21.1095 172.479 20.9644C172.812 20.8193 173.157 20.7468 173.514 20.7468C173.969 20.7468 174.361 20.8252 174.69 20.9821C175.024 21.1389 175.296 21.3585 175.508 21.6409C175.72 21.9193 175.877 22.2487 175.979 22.6291C176.081 23.0056 176.132 23.4173 176.132 23.8644V24.3526H171.379V23.4644H175.043V23.382C175.028 23.0997 174.969 22.8252 174.867 22.5585C174.769 22.2918 174.612 22.0722 174.396 21.8997C174.181 21.7271 173.887 21.6409 173.514 21.6409C173.267 21.6409 173.039 21.6938 172.832 21.7997C172.624 21.9016 172.445 22.0546 172.296 22.2585C172.147 22.4624 172.032 22.7114 171.949 23.0056C171.867 23.2997 171.826 23.6389 171.826 24.0232V24.2702C171.826 24.5722 171.867 24.8565 171.949 25.1232C172.036 25.3859 172.159 25.6173 172.32 25.8173C172.485 26.0173 172.683 26.1741 172.914 26.2879C173.149 26.4016 173.416 26.4584 173.714 26.4584C174.098 26.4584 174.424 26.38 174.69 26.2232C174.957 26.0663 175.19 25.8565 175.39 25.5938L176.049 26.1173C175.912 26.3251 175.737 26.5232 175.526 26.7114C175.314 26.8996 175.053 27.0526 174.743 27.1702C174.438 27.2878 174.075 27.3467 173.655 27.3467ZM181.154 26.4526C181.413 26.4526 181.652 26.3996 181.872 26.2937C182.091 26.1879 182.272 26.0428 182.413 25.8585C182.554 25.6702 182.634 25.4565 182.654 25.2173H183.689C183.67 25.5938 183.542 25.9447 183.307 26.2702C183.075 26.5918 182.772 26.8526 182.395 27.0526C182.019 27.2486 181.605 27.3467 181.154 27.3467C180.675 27.3467 180.258 27.2624 179.901 27.0937C179.548 26.9251 179.254 26.6937 179.019 26.3996C178.787 26.1055 178.613 25.7683 178.495 25.3879C178.381 25.0036 178.325 24.5977 178.325 24.1702V23.9232C178.325 23.4957 178.381 23.0918 178.495 22.7114C178.613 22.3271 178.787 21.9879 179.019 21.6938C179.254 21.3997 179.548 21.1683 179.901 20.9997C180.258 20.8311 180.675 20.7468 181.154 20.7468C181.652 20.7468 182.087 20.8487 182.46 21.0526C182.832 21.2526 183.124 21.5271 183.336 21.8762C183.552 22.2213 183.67 22.6134 183.689 23.0526H182.654C182.634 22.7899 182.56 22.5526 182.43 22.3409C182.305 22.1291 182.132 21.9605 181.913 21.835C181.697 21.7056 181.444 21.6409 181.154 21.6409C180.821 21.6409 180.54 21.7075 180.313 21.8409C180.089 21.9703 179.911 22.1467 179.777 22.3703C179.648 22.5899 179.554 22.835 179.495 23.1056C179.44 23.3722 179.413 23.6448 179.413 23.9232V24.1702C179.413 24.4487 179.44 24.7232 179.495 24.9938C179.55 25.2643 179.642 25.5094 179.772 25.729C179.905 25.9486 180.083 26.1251 180.307 26.2584C180.534 26.3879 180.817 26.4526 181.154 26.4526ZM188.782 20.8644V21.6997H185.341V20.8644H188.782ZM186.506 19.3174H187.594V25.6526C187.594 25.8683 187.627 26.031 187.694 26.1408C187.76 26.2506 187.847 26.3232 187.953 26.3584C188.058 26.3937 188.172 26.4114 188.294 26.4114C188.384 26.4114 188.478 26.4035 188.576 26.3879C188.678 26.3683 188.755 26.3526 188.806 26.3408L188.811 27.229C188.725 27.2565 188.611 27.282 188.47 27.3055C188.333 27.3329 188.166 27.3467 187.97 27.3467C187.704 27.3467 187.459 27.2937 187.235 27.1878C187.011 27.082 186.833 26.9055 186.7 26.6584C186.57 26.4075 186.506 26.0702 186.506 25.6467V19.3174ZM190.857 24.1173V23.982C190.857 23.5232 190.924 23.0977 191.057 22.7056C191.191 22.3095 191.383 21.9664 191.634 21.6762C191.885 21.382 192.189 21.1546 192.545 20.9938C192.902 20.8291 193.302 20.7468 193.745 20.7468C194.193 20.7468 194.594 20.8291 194.951 20.9938C195.312 21.1546 195.618 21.382 195.869 21.6762C196.124 21.9664 196.318 22.3095 196.451 22.7056C196.585 23.0977 196.651 23.5232 196.651 23.982V24.1173C196.651 24.5761 196.585 25.0016 196.451 25.3938C196.318 25.7859 196.124 26.129 195.869 26.4232C195.618 26.7133 195.314 26.9408 194.957 27.1055C194.604 27.2663 194.204 27.3467 193.757 27.3467C193.31 27.3467 192.908 27.2663 192.551 27.1055C192.195 26.9408 191.889 26.7133 191.634 26.4232C191.383 26.129 191.191 25.7859 191.057 25.3938C190.924 25.0016 190.857 24.5761 190.857 24.1173ZM191.945 23.982V24.1173C191.945 24.4349 191.983 24.7349 192.057 25.0173C192.132 25.2957 192.244 25.5428 192.393 25.7585C192.545 25.9741 192.736 26.1447 192.963 26.2702C193.191 26.3918 193.455 26.4526 193.757 26.4526C194.055 26.4526 194.316 26.3918 194.54 26.2702C194.767 26.1447 194.955 25.9741 195.104 25.7585C195.253 25.5428 195.365 25.2957 195.44 25.0173C195.518 24.7349 195.557 24.4349 195.557 24.1173V23.982C195.557 23.6683 195.518 23.3722 195.44 23.0938C195.365 22.8114 195.251 22.5624 195.098 22.3467C194.949 22.1271 194.761 21.9546 194.534 21.8291C194.31 21.7036 194.047 21.6409 193.745 21.6409C193.447 21.6409 193.185 21.7036 192.957 21.8291C192.734 21.9546 192.545 22.1271 192.393 22.3467C192.244 22.5624 192.132 22.8114 192.057 23.0938C191.983 23.3722 191.945 23.6683 191.945 23.982ZM200.309 21.8644V27.229H199.221V20.8644H200.279L200.309 21.8644ZM202.297 20.8291L202.291 21.8409C202.201 21.8213 202.115 21.8095 202.032 21.8056C201.954 21.7977 201.864 21.7938 201.762 21.7938C201.511 21.7938 201.289 21.833 201.097 21.9115C200.905 21.9899 200.742 22.0997 200.609 22.2409C200.476 22.382 200.37 22.5507 200.291 22.7467C200.217 22.9389 200.168 23.1506 200.144 23.382L199.838 23.5585C199.838 23.1742 199.876 22.8134 199.95 22.4761C200.029 22.1389 200.148 21.8409 200.309 21.582C200.47 21.3193 200.674 21.1154 200.921 20.9703C201.172 20.8213 201.47 20.7468 201.815 20.7468C201.893 20.7468 201.983 20.7566 202.085 20.7762C202.187 20.7919 202.258 20.8095 202.297 20.8291ZM212.759 18.6527H212.853V19.5762H212.759C212.183 19.5762 211.701 19.6703 211.312 19.8585C210.924 20.0429 210.616 20.2919 210.389 20.6056C210.161 20.9154 209.997 21.2644 209.895 21.6526C209.797 22.0409 209.748 22.435 209.748 22.835V24.0938C209.748 24.4742 209.793 24.8114 209.883 25.1055C209.973 25.3957 210.097 25.6408 210.253 25.8408C210.41 26.0408 210.587 26.1918 210.783 26.2937C210.983 26.3957 211.191 26.4467 211.406 26.4467C211.657 26.4467 211.881 26.3996 212.077 26.3055C212.273 26.2075 212.438 26.0722 212.571 25.8996C212.708 25.7232 212.812 25.5153 212.883 25.2761C212.953 25.0369 212.989 24.7742 212.989 24.4879C212.989 24.233 212.957 23.9879 212.895 23.7526C212.832 23.5134 212.736 23.3016 212.606 23.1173C212.477 22.9291 212.314 22.782 212.118 22.6761C211.926 22.5663 211.697 22.5114 211.43 22.5114C211.128 22.5114 210.846 22.586 210.583 22.735C210.324 22.8801 210.11 23.0722 209.942 23.3114C209.777 23.5467 209.683 23.8036 209.659 24.082L209.083 24.0761C209.138 23.6369 209.24 23.2624 209.389 22.9526C209.542 22.6389 209.73 22.384 209.953 22.1879C210.181 21.9879 210.434 21.8428 210.712 21.7526C210.995 21.6585 211.293 21.6115 211.606 21.6115C212.034 21.6115 212.402 21.6918 212.712 21.8526C213.022 22.0134 213.277 22.2291 213.477 22.4997C213.677 22.7663 213.824 23.0683 213.918 23.4055C214.016 23.7389 214.065 24.082 214.065 24.4349C214.065 24.8389 214.008 25.2173 213.895 25.5702C213.781 25.9232 213.61 26.233 213.383 26.4996C213.159 26.7663 212.883 26.9741 212.553 27.1231C212.224 27.2722 211.842 27.3467 211.406 27.3467C210.944 27.3467 210.54 27.2526 210.195 27.0643C209.85 26.8722 209.563 26.6173 209.336 26.2996C209.108 25.982 208.938 25.629 208.824 25.2408C208.71 24.8526 208.653 24.4585 208.653 24.0585V23.5467C208.653 22.9428 208.714 22.3507 208.836 21.7703C208.957 21.1899 209.167 20.6644 209.465 20.1938C209.767 19.7232 210.185 19.3487 210.718 19.0703C211.251 18.7919 211.932 18.6527 212.759 18.6527ZM217.67 25.9349V26.8114C217.67 27.1682 217.58 27.5447 217.399 27.9408C217.219 28.3408 216.966 28.6741 216.64 28.9408L216.023 28.5114C216.148 28.3388 216.254 28.1623 216.34 27.982C216.427 27.8055 216.491 27.6212 216.535 27.429C216.582 27.2408 216.605 27.0408 216.605 26.829V25.9349H217.67ZM230.214 22.3467V23.2703H225.579V22.3467H230.214ZM225.756 18.6644V27.229H224.62V18.6644H225.756ZM231.203 18.6644V27.229H230.073V18.6644H231.203ZM238.99 25.0643C238.99 24.8644 238.958 24.6879 238.895 24.5349C238.837 24.3781 238.731 24.2369 238.578 24.1114C238.429 23.9859 238.221 23.8663 237.954 23.7526C237.692 23.6389 237.358 23.5232 236.954 23.4055C236.531 23.2801 236.148 23.1408 235.807 22.9879C235.466 22.831 235.174 22.6526 234.931 22.4526C234.688 22.2526 234.501 22.0232 234.372 21.7644C234.243 21.5056 234.178 21.2095 234.178 20.8762C234.178 20.5428 234.246 20.235 234.384 19.9527C234.521 19.6703 234.717 19.4252 234.972 19.2174C235.231 19.0056 235.539 18.8409 235.895 18.7233C236.252 18.6056 236.65 18.5468 237.09 18.5468C237.733 18.5468 238.278 18.6703 238.725 18.9174C239.176 19.1605 239.519 19.4801 239.754 19.8762C239.99 20.2683 240.107 20.6879 240.107 21.135H238.978C238.978 20.8134 238.909 20.5291 238.772 20.2821C238.635 20.0311 238.427 19.835 238.148 19.6938C237.87 19.5487 237.517 19.4762 237.09 19.4762C236.686 19.4762 236.352 19.537 236.09 19.6585C235.827 19.7801 235.631 19.9448 235.501 20.1527C235.376 20.3605 235.313 20.5977 235.313 20.8644C235.313 21.0448 235.35 21.2095 235.425 21.3585C235.503 21.5036 235.623 21.6389 235.784 21.7644C235.948 21.8899 236.156 22.0056 236.407 22.1114C236.662 22.2173 236.966 22.3193 237.319 22.4173C237.805 22.5546 238.225 22.7075 238.578 22.8761C238.931 23.0448 239.221 23.235 239.448 23.4467C239.68 23.6546 239.85 23.8918 239.96 24.1585C240.074 24.4212 240.131 24.7193 240.131 25.0526C240.131 25.4016 240.06 25.7173 239.919 25.9996C239.778 26.282 239.576 26.5232 239.313 26.7231C239.05 26.9231 238.735 27.078 238.366 27.1878C238.001 27.2937 237.593 27.3467 237.142 27.3467C236.746 27.3467 236.356 27.2918 235.972 27.182C235.592 27.0722 235.244 26.9075 234.931 26.6879C234.621 26.4682 234.372 26.1977 234.184 25.8761C233.999 25.5506 233.907 25.1742 233.907 24.7467H235.037C235.037 25.0408 235.094 25.2938 235.207 25.5055C235.321 25.7134 235.476 25.8859 235.672 26.0232C235.872 26.1604 236.097 26.2624 236.348 26.329C236.603 26.3918 236.868 26.4232 237.142 26.4232C237.539 26.4232 237.874 26.3683 238.148 26.2584C238.423 26.1486 238.631 25.9918 238.772 25.7879C238.917 25.5839 238.99 25.3428 238.99 25.0643ZM242.782 18.6644H245.618C246.261 18.6644 246.804 18.7625 247.247 18.9586C247.694 19.1546 248.033 19.4448 248.265 19.8291C248.5 20.2095 248.618 20.6781 248.618 21.235C248.618 21.6271 248.537 21.986 248.376 22.3114C248.22 22.633 247.992 22.9075 247.694 23.135C247.4 23.3585 247.047 23.5252 246.635 23.635L246.318 23.7585H243.653L243.641 22.835H245.653C246.061 22.835 246.4 22.7644 246.671 22.6232C246.941 22.4781 247.145 22.284 247.282 22.0409C247.42 21.7977 247.488 21.5291 247.488 21.235C247.488 20.9056 247.424 20.6174 247.294 20.3703C247.165 20.1232 246.961 19.933 246.682 19.7997C246.408 19.6625 246.053 19.5938 245.618 19.5938H243.918V27.229H242.782V18.6644ZM247.788 27.229L245.706 23.3467L246.888 23.3408L249 27.1584V27.229H247.788ZM5.48816 44.3758V45.2994H1.20587V44.3758H5.48816ZM1.42939 36.7348V45.2994H0.294113V36.7348H1.42939ZM11.581 44.2111V40.9347C11.581 40.6837 11.53 40.4661 11.4281 40.2818C11.33 40.0935 11.181 39.9484 10.981 39.8465C10.781 39.7445 10.534 39.6936 10.2399 39.6936C9.96535 39.6936 9.72417 39.7406 9.51633 39.8347C9.31242 39.9288 9.15163 40.0524 9.03399 40.2053C8.92026 40.3582 8.8634 40.523 8.8634 40.6994H7.77518C7.77518 40.472 7.83401 40.2465 7.95165 40.023C8.0693 39.7994 8.23792 39.5975 8.45753 39.4171C8.68105 39.2328 8.94772 39.0877 9.25751 38.9818C9.57124 38.872 9.92025 38.8171 10.3046 38.8171C10.7673 38.8171 11.1751 38.8955 11.5281 39.0524C11.8849 39.2092 12.1634 39.4465 12.3634 39.7641C12.5673 40.0779 12.6692 40.472 12.6692 40.9465V43.9111C12.6692 44.1229 12.6869 44.3484 12.7222 44.5876C12.7614 44.8268 12.8182 45.0327 12.8928 45.2052V45.2994H11.7575C11.7026 45.1739 11.6594 45.0072 11.6281 44.7994C11.5967 44.5876 11.581 44.3915 11.581 44.2111ZM11.7692 41.4406L11.781 42.2053H10.681C10.3712 42.2053 10.0948 42.2308 9.85162 42.2817C9.60849 42.3288 9.40457 42.4014 9.23987 42.4994C9.07516 42.5974 8.94968 42.721 8.8634 42.87C8.77713 43.0151 8.73399 43.1857 8.73399 43.3817C8.73399 43.5817 8.77909 43.7641 8.86928 43.9288C8.95948 44.0935 9.09477 44.2249 9.27516 44.3229C9.45947 44.417 9.68496 44.4641 9.95162 44.4641C10.285 44.4641 10.5791 44.3935 10.834 44.2523C11.0889 44.1111 11.2908 43.9386 11.4398 43.7347C11.5928 43.5308 11.6751 43.3327 11.6869 43.1406L12.1516 43.6641C12.1241 43.8288 12.0496 44.0111 11.9281 44.2111C11.8065 44.4111 11.6438 44.6033 11.4398 44.7876C11.2398 44.968 11.0006 45.119 10.7222 45.2405C10.4477 45.3582 10.1379 45.417 9.7928 45.417C9.36143 45.417 8.98301 45.3327 8.65752 45.1641C8.33596 44.9954 8.08498 44.7699 7.90459 44.4876C7.72812 44.2013 7.63989 43.8817 7.63989 43.5288C7.63989 43.1876 7.70656 42.8876 7.83989 42.6288C7.97322 42.3661 8.16537 42.1484 8.41635 41.9759C8.66733 41.7994 8.96928 41.6661 9.32222 41.5759C9.67516 41.4857 10.0693 41.4406 10.5046 41.4406H11.7692ZM17.2798 44.6405L19.0503 38.9347H20.215L17.6621 46.2817C17.6033 46.4386 17.5248 46.6072 17.4268 46.7876C17.3327 46.9719 17.2111 47.1464 17.0621 47.3111C16.9131 47.4758 16.7327 47.6091 16.5209 47.7111C16.3131 47.817 16.0641 47.8699 15.7739 47.8699C15.6876 47.8699 15.5778 47.8581 15.4445 47.8346C15.3112 47.8111 15.217 47.7915 15.1621 47.7758L15.1563 46.8934C15.1876 46.8974 15.2366 46.9013 15.3033 46.9052C15.3739 46.9131 15.4229 46.917 15.4504 46.917C15.6974 46.917 15.9072 46.8836 16.0798 46.817C16.2523 46.7542 16.3974 46.6464 16.5151 46.4935C16.6366 46.3444 16.7405 46.1386 16.8268 45.8758L17.2798 44.6405ZM15.9798 38.9347L17.6327 43.8758L17.915 45.0229L17.1327 45.4229L14.7916 38.9347H15.9798ZM22.0197 42.1876V42.0523C22.0197 41.5935 22.0864 41.168 22.2197 40.7759C22.353 40.3798 22.5452 40.0367 22.7961 39.7465C23.0471 39.4524 23.351 39.2249 23.7079 39.0641C24.0648 38.8994 24.4647 38.8171 24.9079 38.8171C25.3549 38.8171 25.7569 38.8994 26.1137 39.0641C26.4745 39.2249 26.7804 39.4524 27.0314 39.7465C27.2863 40.0367 27.4804 40.3798 27.6137 40.7759C27.7471 41.168 27.8137 41.5935 27.8137 42.0523V42.1876C27.8137 42.6465 27.7471 43.0719 27.6137 43.4641C27.4804 43.8562 27.2863 44.1994 27.0314 44.4935C26.7804 44.7837 26.4765 45.0111 26.1196 45.1758C25.7667 45.3366 25.3667 45.417 24.9196 45.417C24.4726 45.417 24.0706 45.3366 23.7138 45.1758C23.3569 45.0111 23.051 44.7837 22.7961 44.4935C22.5452 44.1994 22.353 43.8562 22.2197 43.4641C22.0864 43.0719 22.0197 42.6465 22.0197 42.1876ZM23.1079 42.0523V42.1876C23.1079 42.5053 23.1452 42.8053 23.2197 43.0876C23.2942 43.366 23.4059 43.6131 23.555 43.8288C23.7079 44.0445 23.8981 44.2151 24.1255 44.3405C24.353 44.4621 24.6177 44.5229 24.9196 44.5229C25.2177 44.5229 25.4785 44.4621 25.702 44.3405C25.9294 44.2151 26.1177 44.0445 26.2667 43.8288C26.4157 43.6131 26.5275 43.366 26.602 43.0876C26.6804 42.8053 26.7196 42.5053 26.7196 42.1876V42.0523C26.7196 41.7386 26.6804 41.4425 26.602 41.1641C26.5275 40.8818 26.4137 40.6328 26.2608 40.4171C26.1118 40.1975 25.9236 40.0249 25.6961 39.8994C25.4726 39.7739 25.2098 39.7112 24.9079 39.7112C24.6098 39.7112 24.3471 39.7739 24.1197 39.8994C23.8961 40.0249 23.7079 40.1975 23.555 40.4171C23.4059 40.6328 23.2942 40.8818 23.2197 41.1641C23.1452 41.4425 23.1079 41.7386 23.1079 42.0523ZM34.2772 43.8288V38.9347H35.3713V45.2994H34.3301L34.2772 43.8288ZM34.483 42.4876L34.936 42.4759C34.936 42.8994 34.8909 43.2915 34.8007 43.6523C34.7144 44.0092 34.5732 44.319 34.3772 44.5817C34.1811 44.8445 33.9242 45.0503 33.6066 45.1994C33.2889 45.3445 32.9027 45.417 32.4478 45.417C32.138 45.417 31.8537 45.3719 31.5948 45.2817C31.3399 45.1915 31.1203 45.0523 30.936 44.8641C30.7517 44.6758 30.6086 44.4307 30.5066 44.1288C30.4086 43.8268 30.3596 43.4641 30.3596 43.0406V38.9347H31.4478V43.0523C31.4478 43.3386 31.4792 43.5758 31.5419 43.7641C31.6086 43.9484 31.6968 44.0954 31.8066 44.2053C31.9203 44.3111 32.0458 44.3856 32.1831 44.4288C32.3242 44.4719 32.4693 44.4935 32.6184 44.4935C33.0811 44.4935 33.4478 44.4052 33.7183 44.2288C33.9889 44.0484 34.183 43.8072 34.3007 43.5053C34.4223 43.1994 34.483 42.8602 34.483 42.4876ZM40.8994 38.9347V39.77H37.4583V38.9347H40.8994ZM38.623 37.3877H39.7112V43.7229C39.7112 43.9386 39.7445 44.1013 39.8112 44.2111C39.8779 44.3209 39.9641 44.3935 40.07 44.4288C40.1759 44.4641 40.2896 44.4817 40.4112 44.4817C40.5014 44.4817 40.5955 44.4739 40.6935 44.4582C40.7955 44.4386 40.872 44.4229 40.9229 44.4111L40.9288 45.2994C40.8426 45.3268 40.7288 45.3523 40.5877 45.3758C40.4504 45.4033 40.2837 45.417 40.0877 45.417C39.821 45.417 39.5759 45.3641 39.3524 45.2582C39.1289 45.1523 38.9504 44.9758 38.8171 44.7288C38.6877 44.4778 38.623 44.1405 38.623 43.717V37.3877ZM44.3688 44.0053V44.8817C44.3688 45.2386 44.2786 45.615 44.0982 46.0111C43.9178 46.4111 43.6649 46.7444 43.3394 47.0111L42.7217 46.5817C42.8472 46.4091 42.9531 46.2327 43.0394 46.0523C43.1257 45.8758 43.1904 45.6915 43.2335 45.4994C43.2806 45.3111 43.3041 45.1111 43.3041 44.8994V44.0053H44.3688ZM54.3722 41.2935H52.2016L52.1898 40.3818H54.1604C54.4859 40.3818 54.7702 40.3269 55.0133 40.2171C55.2565 40.1073 55.4447 39.9504 55.578 39.7465C55.7153 39.5387 55.7839 39.2916 55.7839 39.0053C55.7839 38.6916 55.7231 38.4367 55.6016 38.2406C55.4839 38.0406 55.3016 37.8955 55.0545 37.8053C54.8114 37.7112 54.5016 37.6642 54.1251 37.6642H52.4545V45.2994H51.3193V36.7348H54.1251C54.5643 36.7348 54.9565 36.7799 55.3016 36.8701C55.6467 36.9563 55.9388 37.0936 56.178 37.2818C56.4212 37.4661 56.6055 37.7014 56.731 37.9877C56.8564 38.274 56.9192 38.6171 56.9192 39.0171C56.9192 39.37 56.829 39.6896 56.6486 39.9759C56.4682 40.2582 56.2172 40.4896 55.8957 40.67C55.578 40.8504 55.2055 40.9661 54.778 41.0171L54.3722 41.2935ZM54.3192 45.2994H51.7546L52.3957 44.3758H54.3192C54.68 44.3758 54.9859 44.3131 55.2369 44.1876C55.4918 44.0621 55.6859 43.8856 55.8192 43.6582C55.9525 43.4268 56.0192 43.1543 56.0192 42.8406C56.0192 42.5229 55.9623 42.2484 55.8486 42.017C55.7349 41.7857 55.5565 41.6072 55.3133 41.4818C55.0702 41.3563 54.7565 41.2935 54.3722 41.2935H52.7545L52.7663 40.3818H54.978L55.2192 40.7112C55.631 40.7465 55.98 40.8641 56.2663 41.0641C56.5525 41.2602 56.7702 41.5112 56.9192 41.8171C57.0721 42.1229 57.1486 42.4602 57.1486 42.8288C57.1486 43.3621 57.0309 43.8131 56.7957 44.1817C56.5643 44.5464 56.2368 44.8249 55.8133 45.017C55.3898 45.2052 54.8918 45.2994 54.3192 45.2994ZM62.5062 45.417C62.063 45.417 61.6611 45.3425 61.3003 45.1935C60.9434 45.0405 60.6356 44.8268 60.3768 44.5523C60.1219 44.2778 59.9258 43.9523 59.7886 43.5758C59.6513 43.1994 59.5827 42.7876 59.5827 42.3406V42.0935C59.5827 41.5759 59.6591 41.1151 59.8121 40.7112C59.965 40.3033 60.1729 39.9583 60.4356 39.6759C60.6983 39.3936 60.9964 39.1798 61.3297 39.0347C61.663 38.8896 62.0081 38.8171 62.365 38.8171C62.8199 38.8171 63.212 38.8955 63.5414 39.0524C63.8748 39.2092 64.1473 39.4288 64.3591 39.7112C64.5708 39.9896 64.7277 40.319 64.8297 40.6994C64.9316 41.0759 64.9826 41.4876 64.9826 41.9347V42.4229H60.2297V41.5347H63.8944V41.4523C63.8787 41.17 63.8199 40.8955 63.7179 40.6288C63.6199 40.3622 63.463 40.1426 63.2473 39.97C63.0316 39.7975 62.7375 39.7112 62.365 39.7112C62.1179 39.7112 61.8905 39.7641 61.6826 39.87C61.4748 39.972 61.2964 40.1249 61.1474 40.3288C60.9983 40.5328 60.8827 40.7818 60.8003 41.0759C60.718 41.37 60.6768 41.7092 60.6768 42.0935V42.3406C60.6768 42.6425 60.718 42.9268 60.8003 43.1935C60.8866 43.4562 61.0101 43.6876 61.1709 43.8876C61.3356 44.0876 61.5336 44.2445 61.765 44.3582C62.0003 44.4719 62.267 44.5288 62.565 44.5288C62.9493 44.5288 63.2748 44.4503 63.5414 44.2935C63.8081 44.1366 64.0414 43.9268 64.2414 43.6641L64.9002 44.1876C64.763 44.3954 64.5885 44.5935 64.3767 44.7817C64.165 44.9699 63.9042 45.1229 63.5944 45.2405C63.2885 45.3582 62.9258 45.417 62.5062 45.417ZM68.5461 40.2935V45.2994H67.4579V38.9347H68.4873L68.5461 40.2935ZM68.2873 41.8759L67.8343 41.8582C67.8382 41.4229 67.903 41.021 68.0284 40.6524C68.1539 40.2798 68.3304 39.9563 68.5578 39.6818C68.7853 39.4073 69.0559 39.1955 69.3696 39.0465C69.6872 38.8936 70.0382 38.8171 70.4225 38.8171C70.7362 38.8171 71.0186 38.8602 71.2696 38.9465C71.5205 39.0289 71.7343 39.1622 71.9107 39.3465C72.0911 39.5308 72.2284 39.77 72.3225 40.0641C72.4166 40.3543 72.4637 40.7092 72.4637 41.1288V45.2994H71.3696V41.1171C71.3696 40.7837 71.3206 40.5171 71.2225 40.3171C71.1245 40.1132 70.9813 39.9661 70.7931 39.8759C70.6049 39.7818 70.3735 39.7347 70.099 39.7347C69.8284 39.7347 69.5814 39.7916 69.3578 39.9053C69.1382 40.019 68.948 40.1759 68.7873 40.3759C68.6304 40.5759 68.5069 40.8053 68.4167 41.0641C68.3304 41.319 68.2873 41.5896 68.2873 41.8759ZM79.4447 38.9347H80.433V45.1641C80.433 45.7248 80.3192 46.2033 80.0918 46.5993C79.8643 46.9954 79.5467 47.2954 79.1389 47.4993C78.735 47.7072 78.2683 47.8111 77.7389 47.8111C77.5193 47.8111 77.2605 47.7758 76.9624 47.7052C76.6683 47.6385 76.3781 47.5229 76.0919 47.3581C75.8095 47.1974 75.5723 46.9797 75.3801 46.7052L75.9507 46.0582C76.2173 46.3797 76.4958 46.6033 76.786 46.7287C77.0801 46.8542 77.3703 46.917 77.6565 46.917C78.0016 46.917 78.2997 46.8523 78.5506 46.7229C78.8016 46.5935 78.9957 46.4013 79.133 46.1464C79.2742 45.8954 79.3447 45.5856 79.3447 45.217V40.3347L79.4447 38.9347ZM75.0625 42.1876V42.0641C75.0625 41.5778 75.1193 41.1367 75.233 40.7406C75.3507 40.3406 75.5174 39.9975 75.733 39.7112C75.9526 39.4249 76.2173 39.2053 76.5271 39.0524C76.8369 38.8955 77.186 38.8171 77.5742 38.8171C77.9742 38.8171 78.3232 38.8877 78.6212 39.0289C78.9232 39.1661 79.1781 39.3681 79.3859 39.6347C79.5977 39.8975 79.7643 40.2151 79.8859 40.5877C80.0075 40.9602 80.0918 41.3818 80.1389 41.8523V42.3935C80.0957 42.8602 80.0114 43.2798 79.8859 43.6523C79.7643 44.0249 79.5977 44.3425 79.3859 44.6052C79.1781 44.868 78.9232 45.0699 78.6212 45.2111C78.3193 45.3484 77.9663 45.417 77.5624 45.417C77.182 45.417 76.8369 45.3366 76.5271 45.1758C76.2213 45.015 75.9585 44.7896 75.7389 44.4994C75.5193 44.2092 75.3507 43.868 75.233 43.4759C75.1193 43.0798 75.0625 42.6504 75.0625 42.1876ZM76.1507 42.0641V42.1876C76.1507 42.5053 76.182 42.8033 76.2448 43.0817C76.3115 43.3602 76.4115 43.6053 76.5448 43.817C76.682 44.0288 76.8565 44.1954 77.0683 44.317C77.2801 44.4347 77.533 44.4935 77.8271 44.4935C78.1879 44.4935 78.4859 44.417 78.7212 44.2641C78.9565 44.1111 79.1428 43.9092 79.28 43.6582C79.4212 43.4072 79.531 43.1347 79.6094 42.8406V41.4229C79.5663 41.2073 79.4996 40.9994 79.4095 40.7994C79.3232 40.5955 79.2095 40.4151 79.0683 40.2582C78.931 40.0975 78.7604 39.97 78.5565 39.8759C78.3526 39.7818 78.1134 39.7347 77.8389 39.7347C77.5409 39.7347 77.284 39.7975 77.0683 39.923C76.8565 40.0445 76.682 40.2132 76.5448 40.4288C76.4115 40.6406 76.3115 40.8877 76.2448 41.17C76.182 41.4484 76.1507 41.7465 76.1507 42.0641ZM87.0435 44.2111V40.9347C87.0435 40.6837 86.9925 40.4661 86.8905 40.2818C86.7925 40.0935 86.6435 39.9484 86.4435 39.8465C86.2435 39.7445 85.9964 39.6936 85.7023 39.6936C85.4278 39.6936 85.1866 39.7406 84.9788 39.8347C84.7749 39.9288 84.6141 40.0524 84.4964 40.2053C84.3827 40.3582 84.3259 40.523 84.3259 40.6994H83.2376C83.2376 40.472 83.2965 40.2465 83.4141 40.023C83.5318 39.7994 83.7004 39.5975 83.92 39.4171C84.1435 39.2328 84.4102 39.0877 84.72 38.9818C85.0337 38.872 85.3827 38.8171 85.767 38.8171C86.2298 38.8171 86.6376 38.8955 86.9905 39.0524C87.3474 39.2092 87.6258 39.4465 87.8258 39.7641C88.0297 40.0779 88.1317 40.472 88.1317 40.9465V43.9111C88.1317 44.1229 88.1493 44.3484 88.1846 44.5876C88.2238 44.8268 88.2807 45.0327 88.3552 45.2052V45.2994H87.2199C87.165 45.1739 87.1219 45.0072 87.0905 44.7994C87.0592 44.5876 87.0435 44.3915 87.0435 44.2111ZM87.2317 41.4406L87.2435 42.2053H86.1435C85.8337 42.2053 85.5572 42.2308 85.3141 42.2817C85.0709 42.3288 84.867 42.4014 84.7023 42.4994C84.5376 42.5974 84.4121 42.721 84.3259 42.87C84.2396 43.0151 84.1964 43.1857 84.1964 43.3817C84.1964 43.5817 84.2415 43.7641 84.3317 43.9288C84.4219 44.0935 84.5572 44.2249 84.7376 44.3229C84.9219 44.417 85.1474 44.4641 85.4141 44.4641C85.7474 44.4641 86.0415 44.3935 86.2964 44.2523C86.5513 44.1111 86.7533 43.9386 86.9023 43.7347C87.0552 43.5308 87.1376 43.3327 87.1493 43.1406L87.614 43.6641C87.5866 43.8288 87.5121 44.0111 87.3905 44.2111C87.269 44.4111 87.1062 44.6033 86.9023 44.7876C86.7023 44.968 86.4631 45.119 86.1847 45.2405C85.9101 45.3582 85.6003 45.417 85.2553 45.417C84.8239 45.417 84.4455 45.3327 84.12 45.1641C83.7984 44.9954 83.5474 44.7699 83.367 44.4876C83.1906 44.2013 83.1023 43.8817 83.1023 43.5288C83.1023 43.1876 83.169 42.8876 83.3023 42.6288C83.4357 42.3661 83.6278 42.1484 83.8788 41.9759C84.1298 41.7994 84.4317 41.6661 84.7847 41.5759C85.1376 41.4857 85.5317 41.4406 85.967 41.4406H87.2317ZM92.2304 36.2642V45.2994H91.1363V36.2642H92.2304ZM99.0762 43.8288V38.9347H100.17V45.2994H99.1292L99.0762 43.8288ZM99.2821 42.4876L99.7351 42.4759C99.7351 42.8994 99.69 43.2915 99.5998 43.6523C99.5135 44.0092 99.3723 44.319 99.1762 44.5817C98.9802 44.8445 98.7233 45.0503 98.4057 45.1994C98.088 45.3445 97.7017 45.417 97.2469 45.417C96.9371 45.417 96.6527 45.3719 96.3939 45.2817C96.139 45.1915 95.9194 45.0523 95.7351 44.8641C95.5508 44.6758 95.4077 44.4307 95.3057 44.1288C95.2077 43.8268 95.1586 43.4641 95.1586 43.0406V38.9347H96.2469V43.0523C96.2469 43.3386 96.2782 43.5758 96.341 43.7641C96.4076 43.9484 96.4959 44.0954 96.6057 44.2053C96.7194 44.3111 96.8449 44.3856 96.9821 44.4288C97.1233 44.4719 97.2684 44.4935 97.4174 44.4935C97.8802 44.4935 98.2468 44.4052 98.5174 44.2288C98.788 44.0484 98.9821 43.8072 99.0998 43.5053C99.2213 43.1994 99.2821 42.8602 99.2821 42.4876ZM104.122 39.9347V45.2994H103.034V38.9347H104.093L104.122 39.9347ZM106.11 38.8994L106.104 39.9112C106.014 39.8916 105.928 39.8798 105.846 39.8759C105.767 39.8681 105.677 39.8641 105.575 39.8641C105.324 39.8641 105.102 39.9034 104.91 39.9818C104.718 40.0602 104.555 40.17 104.422 40.3112C104.289 40.4524 104.183 40.621 104.104 40.8171C104.03 41.0092 103.981 41.221 103.957 41.4523L103.651 41.6288C103.651 41.2445 103.689 40.8837 103.763 40.5465C103.842 40.2092 103.961 39.9112 104.122 39.6524C104.283 39.3896 104.487 39.1857 104.734 39.0406C104.985 38.8916 105.283 38.8171 105.628 38.8171C105.706 38.8171 105.797 38.8269 105.898 38.8465C106 38.8622 106.071 38.8798 106.11 38.8994ZM112.215 43.8288V38.9347H113.309V45.2994H112.268L112.215 43.8288ZM112.421 42.4876L112.874 42.4759C112.874 42.8994 112.829 43.2915 112.738 43.6523C112.652 44.0092 112.511 44.319 112.315 44.5817C112.119 44.8445 111.862 45.0503 111.544 45.1994C111.227 45.3445 110.84 45.417 110.385 45.417C110.076 45.417 109.791 45.3719 109.533 45.2817C109.278 45.1915 109.058 45.0523 108.874 44.8641C108.689 44.6758 108.546 44.4307 108.444 44.1288C108.346 43.8268 108.297 43.4641 108.297 43.0406V38.9347H109.385V43.0523C109.385 43.3386 109.417 43.5758 109.48 43.7641C109.546 43.9484 109.635 44.0954 109.744 44.2053C109.858 44.3111 109.984 44.3856 110.121 44.4288C110.262 44.4719 110.407 44.4935 110.556 44.4935C111.019 44.4935 111.385 44.4052 111.656 44.2288C111.927 44.0484 112.121 43.8072 112.238 43.5053C112.36 43.1994 112.421 42.8602 112.421 42.4876ZM117.161 44.0053V44.8817C117.161 45.2386 117.07 45.615 116.89 46.0111C116.71 46.4111 116.457 46.7444 116.131 47.0111L115.514 46.5817C115.639 46.4091 115.745 46.2327 115.831 46.0523C115.918 45.8758 115.982 45.6915 116.025 45.4994C116.072 45.3111 116.096 45.1111 116.096 44.8994V44.0053H117.161ZM125.246 36.7348V45.2994H124.111V36.7348H125.246ZM130.417 36.7348L126.858 40.7288L124.858 42.8053L124.67 41.5935L126.176 39.9347L129.052 36.7348H130.417ZM129.323 45.2994L126.152 41.1229L126.829 40.223L130.676 45.2994H129.323ZM136.469 44.2111V40.9347C136.469 40.6837 136.418 40.4661 136.316 40.2818C136.218 40.0935 136.069 39.9484 135.869 39.8465C135.669 39.7445 135.422 39.6936 135.127 39.6936C134.853 39.6936 134.612 39.7406 134.404 39.8347C134.2 39.9288 134.039 40.0524 133.922 40.2053C133.808 40.3582 133.751 40.523 133.751 40.6994H132.663C132.663 40.472 132.722 40.2465 132.839 40.023C132.957 39.7994 133.126 39.5975 133.345 39.4171C133.569 39.2328 133.835 39.0877 134.145 38.9818C134.459 38.872 134.808 38.8171 135.192 38.8171C135.655 38.8171 136.063 38.8955 136.416 39.0524C136.773 39.2092 137.051 39.4465 137.251 39.7641C137.455 40.0779 137.557 40.472 137.557 40.9465V43.9111C137.557 44.1229 137.575 44.3484 137.61 44.5876C137.649 44.8268 137.706 45.0327 137.78 45.2052V45.2994H136.645C136.59 45.1739 136.547 45.0072 136.516 44.7994C136.484 44.5876 136.469 44.3915 136.469 44.2111ZM136.657 41.4406L136.669 42.2053H135.569C135.259 42.2053 134.982 42.2308 134.739 42.2817C134.496 42.3288 134.292 42.4014 134.127 42.4994C133.963 42.5974 133.837 42.721 133.751 42.87C133.665 43.0151 133.622 43.1857 133.622 43.3817C133.622 43.5817 133.667 43.7641 133.757 43.9288C133.847 44.0935 133.982 44.2249 134.163 44.3229C134.347 44.417 134.573 44.4641 134.839 44.4641C135.173 44.4641 135.467 44.3935 135.722 44.2523C135.976 44.1111 136.178 43.9386 136.327 43.7347C136.48 43.5308 136.563 43.3327 136.575 43.1406L137.039 43.6641C137.012 43.8288 136.937 44.0111 136.816 44.2111C136.694 44.4111 136.531 44.6033 136.327 44.7876C136.127 44.968 135.888 45.119 135.61 45.2405C135.335 45.3582 135.026 45.417 134.68 45.417C134.249 45.417 133.871 45.3327 133.545 45.1641C133.224 44.9954 132.973 44.7699 132.792 44.4876C132.616 44.2013 132.528 43.8817 132.528 43.5288C132.528 43.1876 132.594 42.8876 132.728 42.6288C132.861 42.3661 133.053 42.1484 133.304 41.9759C133.555 41.7994 133.857 41.6661 134.21 41.5759C134.563 41.4857 134.957 41.4406 135.392 41.4406H136.657ZM141.562 39.9347V45.2994H140.473V38.9347H141.532L141.562 39.9347ZM143.55 38.8994L143.544 39.9112C143.454 39.8916 143.367 39.8798 143.285 39.8759C143.207 39.8681 143.116 39.8641 143.014 39.8641C142.763 39.8641 142.542 39.9034 142.35 39.9818C142.158 40.0602 141.995 40.17 141.862 40.3112C141.728 40.4524 141.622 40.621 141.544 40.8171C141.469 41.0092 141.42 41.221 141.397 41.4523L141.091 41.6288C141.091 41.2445 141.128 40.8837 141.203 40.5465C141.281 40.2092 141.401 39.9112 141.562 39.6524C141.722 39.3896 141.926 39.1857 142.173 39.0406C142.424 38.8916 142.722 38.8171 143.067 38.8171C143.146 38.8171 143.236 38.8269 143.338 38.8465C143.44 38.8622 143.51 38.8798 143.55 38.8994ZM146.848 40.2935V45.2994H145.76V38.9347H146.79L146.848 40.2935ZM146.59 41.8759L146.137 41.8582C146.141 41.4229 146.205 41.021 146.331 40.6524C146.456 40.2798 146.633 39.9563 146.86 39.6818C147.088 39.4073 147.358 39.1955 147.672 39.0465C147.99 38.8936 148.341 38.8171 148.725 38.8171C149.039 38.8171 149.321 38.8602 149.572 38.9465C149.823 39.0289 150.037 39.1622 150.213 39.3465C150.394 39.5308 150.531 39.77 150.625 40.0641C150.719 40.3543 150.766 40.7092 150.766 41.1288V45.2994H149.672V41.1171C149.672 40.7837 149.623 40.5171 149.525 40.3171C149.427 40.1132 149.284 39.9661 149.096 39.8759C148.907 39.7818 148.676 39.7347 148.401 39.7347C148.131 39.7347 147.884 39.7916 147.66 39.9053C147.441 40.019 147.25 40.1759 147.09 40.3759C146.933 40.5759 146.809 40.8053 146.719 41.0641C146.633 41.319 146.59 41.5896 146.59 41.8759ZM157.377 44.2111V40.9347C157.377 40.6837 157.326 40.4661 157.224 40.2818C157.126 40.0935 156.977 39.9484 156.777 39.8465C156.577 39.7445 156.33 39.6936 156.035 39.6936C155.761 39.6936 155.52 39.7406 155.312 39.8347C155.108 39.9288 154.947 40.0524 154.83 40.2053C154.716 40.3582 154.659 40.523 154.659 40.6994H153.571C153.571 40.472 153.63 40.2465 153.747 40.023C153.865 39.7994 154.033 39.5975 154.253 39.4171C154.477 39.2328 154.743 39.0877 155.053 38.9818C155.367 38.872 155.716 38.8171 156.1 38.8171C156.563 38.8171 156.971 38.8955 157.324 39.0524C157.681 39.2092 157.959 39.4465 158.159 39.7641C158.363 40.0779 158.465 40.472 158.465 40.9465V43.9111C158.465 44.1229 158.482 44.3484 158.518 44.5876C158.557 44.8268 158.614 45.0327 158.688 45.2052V45.2994H157.553C157.498 45.1739 157.455 45.0072 157.424 44.7994C157.392 44.5876 157.377 44.3915 157.377 44.2111ZM157.565 41.4406L157.577 42.2053H156.477C156.167 42.2053 155.89 42.2308 155.647 42.2817C155.404 42.3288 155.2 42.4014 155.035 42.4994C154.871 42.5974 154.745 42.721 154.659 42.87C154.573 43.0151 154.53 43.1857 154.53 43.3817C154.53 43.5817 154.575 43.7641 154.665 43.9288C154.755 44.0935 154.89 44.2249 155.071 44.3229C155.255 44.417 155.481 44.4641 155.747 44.4641C156.081 44.4641 156.375 44.3935 156.63 44.2523C156.884 44.1111 157.086 43.9386 157.235 43.7347C157.388 43.5308 157.471 43.3327 157.482 43.1406L157.947 43.6641C157.92 43.8288 157.845 44.0111 157.724 44.2111C157.602 44.4111 157.439 44.6033 157.235 44.7876C157.035 44.968 156.796 45.119 156.518 45.2405C156.243 45.3582 155.933 45.417 155.588 45.417C155.157 45.417 154.779 45.3327 154.453 45.1641C154.132 44.9954 153.881 44.7699 153.7 44.4876C153.524 44.2013 153.435 43.8817 153.435 43.5288C153.435 43.1876 153.502 42.8876 153.635 42.6288C153.769 42.3661 153.961 42.1484 154.212 41.9759C154.463 41.7994 154.765 41.6661 155.118 41.5759C155.471 41.4857 155.865 41.4406 156.3 41.4406H157.565ZM164.046 38.9347V39.77H160.605V38.9347H164.046ZM161.769 37.3877H162.858V43.7229C162.858 43.9386 162.891 44.1013 162.958 44.2111C163.024 44.3209 163.111 44.3935 163.216 44.4288C163.322 44.4641 163.436 44.4817 163.558 44.4817C163.648 44.4817 163.742 44.4739 163.84 44.4582C163.942 44.4386 164.018 44.4229 164.069 44.4111L164.075 45.2994C163.989 45.3268 163.875 45.3523 163.734 45.3758C163.597 45.4033 163.43 45.417 163.234 45.417C162.967 45.417 162.722 45.3641 162.499 45.2582C162.275 45.1523 162.097 44.9758 161.964 44.7288C161.834 44.4778 161.769 44.1405 161.769 43.717V37.3877ZM170.28 44.2111V40.9347C170.28 40.6837 170.229 40.4661 170.127 40.2818C170.029 40.0935 169.88 39.9484 169.68 39.8465C169.48 39.7445 169.233 39.6936 168.939 39.6936C168.664 39.6936 168.423 39.7406 168.215 39.8347C168.011 39.9288 167.851 40.0524 167.733 40.2053C167.619 40.3582 167.562 40.523 167.562 40.6994H166.474C166.474 40.472 166.533 40.2465 166.651 40.023C166.768 39.7994 166.937 39.5975 167.156 39.4171C167.38 39.2328 167.647 39.0877 167.956 38.9818C168.27 38.872 168.619 38.8171 169.003 38.8171C169.466 38.8171 169.874 38.8955 170.227 39.0524C170.584 39.2092 170.862 39.4465 171.062 39.7641C171.266 40.0779 171.368 40.472 171.368 40.9465V43.9111C171.368 44.1229 171.386 44.3484 171.421 44.5876C171.46 44.8268 171.517 45.0327 171.592 45.2052V45.2994H170.456C170.401 45.1739 170.358 45.0072 170.327 44.7994C170.296 44.5876 170.28 44.3915 170.28 44.2111ZM170.468 41.4406L170.48 42.2053H169.38C169.07 42.2053 168.794 42.2308 168.551 42.2817C168.307 42.3288 168.103 42.4014 167.939 42.4994C167.774 42.5974 167.649 42.721 167.562 42.87C167.476 43.0151 167.433 43.1857 167.433 43.3817C167.433 43.5817 167.478 43.7641 167.568 43.9288C167.658 44.0935 167.794 44.2249 167.974 44.3229C168.158 44.417 168.384 44.4641 168.651 44.4641C168.984 44.4641 169.278 44.3935 169.533 44.2523C169.788 44.1111 169.99 43.9386 170.139 43.7347C170.292 43.5308 170.374 43.3327 170.386 43.1406L170.851 43.6641C170.823 43.8288 170.749 44.0111 170.627 44.2111C170.505 44.4111 170.343 44.6033 170.139 44.7876C169.939 44.968 169.7 45.119 169.421 45.2405C169.147 45.3582 168.837 45.417 168.492 45.417C168.06 45.417 167.682 45.3327 167.356 45.1641C167.035 44.9954 166.784 44.7699 166.604 44.4876C166.427 44.2013 166.339 43.8817 166.339 43.5288C166.339 43.1876 166.405 42.8876 166.539 42.6288C166.672 42.3661 166.864 42.1484 167.115 41.9759C167.366 41.7994 167.668 41.6661 168.021 41.5759C168.374 41.4857 168.768 41.4406 169.203 41.4406H170.468ZM175.379 36.2642V45.2994H174.285V36.2642H175.379ZM179.267 38.9347L176.49 41.9053L174.938 43.517L174.849 42.3582L175.961 41.0288L177.937 38.9347H179.267ZM178.273 45.2994L176.002 42.2641L176.567 41.2935L179.555 45.2994H178.273ZM185.348 44.2111V40.9347C185.348 40.6837 185.297 40.4661 185.195 40.2818C185.097 40.0935 184.948 39.9484 184.748 39.8465C184.548 39.7445 184.301 39.6936 184.007 39.6936C183.732 39.6936 183.491 39.7406 183.283 39.8347C183.079 39.9288 182.919 40.0524 182.801 40.2053C182.687 40.3582 182.63 40.523 182.63 40.6994H181.542C181.542 40.472 181.601 40.2465 181.719 40.023C181.836 39.7994 182.005 39.5975 182.224 39.4171C182.448 39.2328 182.715 39.0877 183.024 38.9818C183.338 38.872 183.687 38.8171 184.071 38.8171C184.534 38.8171 184.942 38.8955 185.295 39.0524C185.652 39.2092 185.93 39.4465 186.13 39.7641C186.334 40.0779 186.436 40.472 186.436 40.9465V43.9111C186.436 44.1229 186.454 44.3484 186.489 44.5876C186.528 44.8268 186.585 45.0327 186.66 45.2052V45.2994H185.524C185.47 45.1739 185.426 45.0072 185.395 44.7994C185.364 44.5876 185.348 44.3915 185.348 44.2111ZM185.536 41.4406L185.548 42.2053H184.448C184.138 42.2053 183.862 42.2308 183.619 42.2817C183.375 42.3288 183.171 42.4014 183.007 42.4994C182.842 42.5974 182.717 42.721 182.63 42.87C182.544 43.0151 182.501 43.1857 182.501 43.3817C182.501 43.5817 182.546 43.7641 182.636 43.9288C182.726 44.0935 182.862 44.2249 183.042 44.3229C183.226 44.417 183.452 44.4641 183.719 44.4641C184.052 44.4641 184.346 44.3935 184.601 44.2523C184.856 44.1111 185.058 43.9386 185.207 43.7347C185.36 43.5308 185.442 43.3327 185.454 43.1406L185.919 43.6641C185.891 43.8288 185.817 44.0111 185.695 44.2111C185.573 44.4111 185.411 44.6033 185.207 44.7876C185.007 44.968 184.768 45.119 184.489 45.2405C184.215 45.3582 183.905 45.417 183.56 45.417C183.128 45.417 182.75 45.3327 182.424 45.1641C182.103 44.9954 181.852 44.7699 181.672 44.4876C181.495 44.2013 181.407 43.8817 181.407 43.5288C181.407 43.1876 181.473 42.8876 181.607 42.6288C181.74 42.3661 181.932 42.1484 182.183 41.9759C182.434 41.7994 182.736 41.6661 183.089 41.5759C183.442 41.4857 183.836 41.4406 184.271 41.4406H185.536ZM194.804 41.2229L193.934 40.9994L194.363 36.7348H198.757V37.7406H195.287L195.028 40.07C195.185 39.9798 195.383 39.8955 195.622 39.8171C195.865 39.7386 196.143 39.6994 196.457 39.6994C196.853 39.6994 197.208 39.7681 197.522 39.9053C197.836 40.0386 198.102 40.2308 198.322 40.4818C198.545 40.7328 198.716 41.0347 198.834 41.3876C198.951 41.7406 199.01 42.1347 199.01 42.57C199.01 42.9817 198.953 43.3602 198.84 43.7053C198.73 44.0504 198.563 44.3523 198.34 44.6111C198.116 44.866 197.834 45.0641 197.492 45.2052C197.155 45.3464 196.757 45.417 196.298 45.417C195.953 45.417 195.626 45.3699 195.316 45.2758C195.01 45.1778 194.736 45.0307 194.493 44.8347C194.253 44.6347 194.057 44.3876 193.904 44.0935C193.755 43.7955 193.661 43.4464 193.622 43.0464H194.657C194.704 43.368 194.798 43.6386 194.94 43.8582C195.081 44.0778 195.265 44.2445 195.493 44.3582C195.724 44.468 195.992 44.5229 196.298 44.5229C196.557 44.5229 196.787 44.4778 196.987 44.3876C197.187 44.2974 197.355 44.168 197.492 43.9994C197.63 43.8307 197.734 43.6268 197.804 43.3876C197.879 43.1484 197.916 42.8798 197.916 42.5817C197.916 42.3112 197.879 42.0602 197.804 41.8288C197.73 41.5974 197.618 41.3955 197.469 41.2229C197.324 41.0504 197.145 40.9171 196.934 40.8229C196.722 40.7249 196.479 40.6759 196.204 40.6759C195.84 40.6759 195.563 40.7249 195.375 40.8229C195.191 40.921 195 41.0543 194.804 41.2229ZM205.585 36.723H205.679V37.6465H205.585C205.009 37.6465 204.526 37.7406 204.138 37.9289C203.75 38.1132 203.442 38.3622 203.215 38.6759C202.987 38.9857 202.823 39.3347 202.721 39.723C202.623 40.1112 202.574 40.5053 202.574 40.9053V42.1641C202.574 42.5445 202.619 42.8817 202.709 43.1759C202.799 43.466 202.923 43.7111 203.079 43.9111C203.236 44.1111 203.413 44.2621 203.609 44.3641C203.809 44.466 204.017 44.517 204.232 44.517C204.483 44.517 204.707 44.47 204.903 44.3758C205.099 44.2778 205.264 44.1425 205.397 43.97C205.534 43.7935 205.638 43.5857 205.709 43.3464C205.779 43.1072 205.815 42.8445 205.815 42.5582C205.815 42.3033 205.783 42.0582 205.721 41.8229C205.658 41.5837 205.562 41.372 205.432 41.1876C205.303 40.9994 205.14 40.8524 204.944 40.7465C204.752 40.6367 204.523 40.5818 204.256 40.5818C203.954 40.5818 203.672 40.6563 203.409 40.8053C203.15 40.9504 202.936 41.1426 202.768 41.3818C202.603 41.6171 202.509 41.8739 202.485 42.1523L201.909 42.1465C201.964 41.7072 202.066 41.3327 202.215 41.0229C202.368 40.7092 202.556 40.4543 202.779 40.2582C203.007 40.0583 203.26 39.9132 203.538 39.823C203.821 39.7288 204.119 39.6818 204.432 39.6818C204.86 39.6818 205.228 39.7622 205.538 39.923C205.848 40.0837 206.103 40.2994 206.303 40.57C206.503 40.8367 206.65 41.1386 206.744 41.4759C206.842 41.8092 206.891 42.1523 206.891 42.5053C206.891 42.9092 206.834 43.2876 206.721 43.6406C206.607 43.9935 206.436 44.3033 206.209 44.57C205.985 44.8366 205.709 45.0445 205.379 45.1935C205.05 45.3425 204.668 45.417 204.232 45.417C203.77 45.417 203.366 45.3229 203.021 45.1346C202.676 44.9425 202.389 44.6876 202.162 44.37C201.934 44.0523 201.764 43.6994 201.65 43.3111C201.536 42.9229 201.479 42.5288 201.479 42.1288V41.6171C201.479 41.0131 201.54 40.421 201.662 39.8406C201.783 39.2602 201.993 38.7347 202.291 38.2642C202.593 37.7936 203.011 37.4191 203.544 37.1406C204.077 36.8622 204.758 36.723 205.585 36.723ZM214.766 40.3347V41.6406C214.766 42.3425 214.704 42.9347 214.578 43.417C214.453 43.8994 214.272 44.2876 214.037 44.5817C213.802 44.8758 213.517 45.0896 213.184 45.2229C212.855 45.3523 212.482 45.417 212.066 45.417C211.737 45.417 211.433 45.3758 211.155 45.2935C210.876 45.2111 210.625 45.0797 210.402 44.8994C210.182 44.715 209.994 44.4758 209.837 44.1817C209.68 43.8876 209.561 43.5308 209.478 43.1111C209.396 42.6915 209.355 42.2014 209.355 41.6406V40.3347C209.355 39.6328 209.417 39.0445 209.543 38.57C209.672 38.0955 209.855 37.7151 210.09 37.4289C210.325 37.1387 210.608 36.9308 210.937 36.8054C211.27 36.6799 211.643 36.6171 212.055 36.6171C212.388 36.6171 212.694 36.6583 212.972 36.7407C213.255 36.8191 213.506 36.9465 213.725 37.123C213.945 37.2955 214.131 37.5269 214.284 37.8171C214.441 38.1034 214.56 38.4544 214.643 38.87C214.725 39.2857 214.766 39.7739 214.766 40.3347ZM213.672 41.8171V40.1524C213.672 39.7681 213.649 39.4308 213.602 39.1406C213.559 38.8465 213.494 38.5955 213.408 38.3877C213.321 38.1798 213.211 38.0112 213.078 37.8818C212.949 37.7524 212.798 37.6583 212.625 37.5995C212.457 37.5367 212.266 37.5053 212.055 37.5053C211.796 37.5053 211.566 37.5544 211.366 37.6524C211.166 37.7465 210.998 37.8975 210.861 38.1053C210.727 38.3132 210.625 38.5857 210.555 38.923C210.484 39.2602 210.449 39.67 210.449 40.1524V41.8171C210.449 42.2014 210.47 42.5406 210.513 42.8347C210.561 43.1288 210.629 43.3837 210.719 43.5994C210.81 43.8111 210.919 43.9856 211.049 44.1229C211.178 44.2602 211.327 44.3621 211.496 44.4288C211.668 44.4915 211.859 44.5229 212.066 44.5229C212.333 44.5229 212.566 44.4719 212.766 44.37C212.966 44.268 213.133 44.1092 213.266 43.8935C213.404 43.6739 213.506 43.3935 213.572 43.0523C213.639 42.7072 213.672 42.2955 213.672 41.8171ZM220.947 36.6877V45.2994H219.859V38.0465L217.665 38.8465V37.8642L220.777 36.6877H220.947ZM230.728 40.3347V41.6406C230.728 42.3425 230.666 42.9347 230.54 43.417C230.415 43.8994 230.234 44.2876 229.999 44.5817C229.764 44.8758 229.479 45.0896 229.146 45.2229C228.817 45.3523 228.444 45.417 228.029 45.417C227.699 45.417 227.395 45.3758 227.117 45.2935C226.838 45.2111 226.587 45.0797 226.364 44.8994C226.144 44.715 225.956 44.4758 225.799 44.1817C225.642 43.8876 225.523 43.5308 225.44 43.1111C225.358 42.6915 225.317 42.2014 225.317 41.6406V40.3347C225.317 39.6328 225.38 39.0445 225.505 38.57C225.634 38.0955 225.817 37.7151 226.052 37.4289C226.287 37.1387 226.57 36.9308 226.899 36.8054C227.232 36.6799 227.605 36.6171 228.017 36.6171C228.35 36.6171 228.656 36.6583 228.934 36.7407C229.217 36.8191 229.468 36.9465 229.687 37.123C229.907 37.2955 230.093 37.5269 230.246 37.8171C230.403 38.1034 230.523 38.4544 230.605 38.87C230.687 39.2857 230.728 39.7739 230.728 40.3347ZM229.634 41.8171V40.1524C229.634 39.7681 229.611 39.4308 229.564 39.1406C229.521 38.8465 229.456 38.5955 229.37 38.3877C229.283 38.1798 229.174 38.0112 229.04 37.8818C228.911 37.7524 228.76 37.6583 228.587 37.5995C228.419 37.5367 228.229 37.5053 228.017 37.5053C227.758 37.5053 227.529 37.5544 227.329 37.6524C227.129 37.7465 226.96 37.8975 226.823 38.1053C226.689 38.3132 226.587 38.5857 226.517 38.923C226.446 39.2602 226.411 39.67 226.411 40.1524V41.8171C226.411 42.2014 226.432 42.5406 226.476 42.8347C226.523 43.1288 226.591 43.3837 226.681 43.5994C226.772 43.8111 226.881 43.9856 227.011 44.1229C227.14 44.2602 227.289 44.3621 227.458 44.4288C227.63 44.4915 227.821 44.5229 228.029 44.5229C228.295 44.5229 228.529 44.4719 228.729 44.37C228.929 44.268 229.095 44.1092 229.228 43.8935C229.366 43.6739 229.468 43.3935 229.534 43.0523C229.601 42.7072 229.634 42.2955 229.634 41.8171ZM238.945 44.4052V45.2994H233.339V44.517L236.145 41.3935C236.49 41.0092 236.757 40.6837 236.945 40.4171C237.137 40.1465 237.27 39.9053 237.345 39.6936C237.423 39.4779 237.462 39.2583 237.462 39.0347C237.462 38.7524 237.404 38.4975 237.286 38.27C237.172 38.0387 237.004 37.8544 236.78 37.7171C236.557 37.5799 236.286 37.5112 235.968 37.5112C235.588 37.5112 235.27 37.5857 235.015 37.7348C234.764 37.8799 234.576 38.0838 234.451 38.3465C234.325 38.6093 234.263 38.9112 234.263 39.2524H233.174C233.174 38.77 233.28 38.3289 233.492 37.9289C233.704 37.5289 234.017 37.2112 234.433 36.9759C234.849 36.7367 235.361 36.6171 235.968 36.6171C236.51 36.6171 236.972 36.7132 237.357 36.9054C237.741 37.0936 238.035 37.3603 238.239 37.7053C238.447 38.0465 238.551 38.4465 238.551 38.9053C238.551 39.1563 238.508 39.4112 238.421 39.67C238.339 39.9249 238.223 40.1798 238.074 40.4347C237.929 40.6896 237.759 40.9406 237.562 41.1876C237.37 41.4347 237.164 41.6778 236.945 41.917L234.651 44.4052H238.945Z" fill="#E0E0E0"/>
</svg>
