<svg width="19" height="18" viewBox="0 0 19 18" fill="none" xmlns="http://www.w3.org/2000/svg">
<path d="M10.1536 4.7445C11.0535 4.89532 11.871 5.32036 12.5236 5.97163C13.1762 6.62291 13.5987 7.43871 13.7532 8.33679M10.291 1.80005C11.8916 2.07084 13.3514 2.82838 14.5123 3.98353C15.6733 5.14211 16.4289 6.59891 16.7003 8.19624M15.45 14.5513C15.45 14.5513 14.581 15.4048 14.3681 15.655C14.0211 16.0252 13.6124 16.2 13.0766 16.2C13.0251 16.2 12.9701 16.2 12.9186 16.1966C11.8985 16.1315 10.9505 15.7339 10.2395 15.3945C8.29537 14.4553 6.58829 13.1219 5.16973 11.432C3.99847 10.0232 3.21535 8.72068 2.6967 7.32216C2.37726 6.46865 2.26048 5.80366 2.312 5.17639C2.34635 4.77534 2.50091 4.44285 2.786 4.15834L3.95726 2.98948C4.12556 2.8318 4.30417 2.74611 4.47934 2.74611C4.69573 2.74611 4.87091 2.87636 4.98082 2.98605C4.98425 2.98948 4.98769 2.99291 4.99112 2.99633C5.20064 3.19172 5.39986 3.39395 5.60938 3.6099C5.71586 3.71959 5.82577 3.82928 5.93569 3.94239L6.87338 4.87817C7.23746 5.24151 7.23746 5.57743 6.87338 5.94078C6.77377 6.04018 6.6776 6.13958 6.57799 6.23556C6.28947 6.53035 6.51612 6.30416 6.21729 6.57153C6.21042 6.57838 6.20355 6.58181 6.20012 6.58866C5.90473 6.88345 5.95968 7.17138 6.02151 7.36676C6.02494 7.37705 6.02838 7.38733 6.03181 7.39761C6.27568 7.98719 6.61916 8.54248 7.14125 9.20404L7.14468 9.20747C8.09268 10.3729 9.0922 11.2813 10.1948 11.9771C10.3356 12.0662 10.4798 12.1382 10.6172 12.2068C10.7409 12.2685 10.8577 12.3267 10.9573 12.3884C10.971 12.3953 10.9848 12.4056 10.9985 12.4124C11.1153 12.4707 11.2252 12.4981 11.3385 12.4981C11.6236 12.4981 11.8022 12.3199 11.8606 12.2616L12.5339 11.5897C12.6507 11.4732 12.8361 11.3326 13.0525 11.3326C13.2655 11.3326 13.4407 11.4663 13.5471 11.5829C13.5506 11.5863 13.5506 11.5863 13.554 11.5897L15.4466 13.4784C15.8004 13.828 15.45 14.5513 15.45 14.5513Z" stroke="#F57C00" stroke-linecap="round" stroke-linejoin="round"/>
</svg>
